<svg xmlns="http://www.w3.org/2000/svg" width="53.993" height="64" viewBox="0 0 53.993 64">
  <g transform="translate(-37.758 0)">
    <g transform="translate(37.758 0)">
      <path fill="#fff" d="M136.634,27.135c.583,3.79,3.512,8.613,8.322,10.309a9.119,9.119,0,0,0,6.109-.013,13.787,13.787,0,0,0,8.348-10.3c.636-.053,1.471-.941,2.372-4.134,1.232-4.36-.08-5.009-1.193-4.9a11.558,11.558,0,0,0,.477-1.789c1.882-11.3-3.684-11.688-3.684-11.688a8.583,8.583,0,0,0-3.353-3.114A11.323,11.323,0,0,0,147.156.05a10.269,10.269,0,0,0-2.743.517h0a12.053,12.053,0,0,0-3.021,1.55,15.837,15.837,0,0,0-3.1,2.571,12.585,12.585,0,0,0-3.353,5.884,12.774,12.774,0,0,0,.027,5.751h0a11.173,11.173,0,0,0,.477,1.789c-1.113-.106-2.425.543-1.193,4.9C135.163,26.194,136,27.082,136.634,27.135Z" transform="translate(-121.031 0)" />
      <path fill="#fff" d="M86.608,280.066a42.028,42.028,0,0,1-12.271-5.592l-4.293,13.583-.808,2.557-.013-.04-.7,2.173-2.266-6.427c5.566-7.765-1.126-7.686-1.5-7.672-.371-.013-7.063-.093-1.5,7.672l-2.266,6.427-.7-2.173-.013.04-.808-2.557-4.307-13.583a42.028,42.028,0,0,1-12.271,5.592c-5.049,1.285-5.287,7.116-5.088,9.991,0,0,.292,3.909.583,5.632,0,0,9.859,6.4,26.37,6.414s26.37-6.414,26.37-6.414c.292-1.723.583-5.632.583-5.632C91.9,287.182,91.657,281.351,86.608,280.066Z" transform="translate(-37.758 -238.103)" />
    </g>
  </g>
</svg>
