<svg xmlns="http://www.w3.org/2000/svg" width="88.397" height="64" viewBox="0 0 88.397 64">
  <g id="Icon" transform="translate(-11.053 -78.7)">
    <g id="UsersAdd" transform="translate(11.053 78.7)">
      <path id="Path_100" d="M185.7,333.282a5.421,5.421,0,0,1-5.126,3.682h-28.7a5.425,5.425,0,0,1-5.162-7.075l3.646-11.407a3.844,3.844,0,0,1,5.433-2.238,23.952,23.952,0,0,0,20.828,0,3.878,3.878,0,0,1,2.6-.343,8.121,8.121,0,0,0,4.62,14.8h1.8v1.8c.018.271.036.523.054.776Z" transform="translate(-122.015 -273.018)" fill="#fff"/>
      <circle id="Ellipse_5" cx="10.631" cy="10.631" r="10.631" transform="translate(33.579 20.395)" fill="#fff"/>
      <path id="Path_101" d="M346.416,211.459h-3.1a8.122,8.122,0,0,0-16.244,0H319a14.21,14.21,0,0,0,.487-16.388v-.018a3.841,3.841,0,0,1,5.36-2.256,20.723,20.723,0,0,0,9.169,2.021,20.476,20.476,0,0,0,9.169-2.021,3.833,3.833,0,0,1,5.36,2.274l3,9.349A5.371,5.371,0,0,1,346.416,211.459Z" transform="translate(-263.42 -171.879)" fill="#fff"/>
      <circle id="Ellipse_6" cx="9.656" cy="9.656" r="9.656" transform="translate(60.958 0)" fill="#fff"/>
      <path id="Path_102" d="M43.891,211.377H16.476a5.416,5.416,0,0,1-5.162-7.057l3-9.349a3.861,3.861,0,0,1,5.36-2.274,20.723,20.723,0,0,0,9.169,2.021,20.723,20.723,0,0,0,9.169-2.021,3.837,3.837,0,0,1,5.36,2.256v.018a14.164,14.164,0,0,0,.523,16.406Z" transform="translate(-11.053 -171.797)" fill="#fff"/>
      <circle id="Ellipse_7" cx="9.656" cy="9.656" r="9.656" transform="translate(8.148 0)" fill="#fff"/>
      <path id="Path_103" d="M353.065,283.227h-5.415v-5.415a4.512,4.512,0,0,0-9.024,0v5.415h-5.415a4.512,4.512,0,0,0,0,9.024h5.415v5.415a4.512,4.512,0,1,0,9.024,0v-5.415h5.415a4.512,4.512,0,1,0,0-9.024Z" transform="translate(-271.37 -238.178)" fill="#fff"/>
    </g>
  </g>
</svg>
