<svg xmlns="http://www.w3.org/2000/svg" width="96" height="64" viewBox="0 0 96 64">
  <path fill="#fff" d="M93.051,7.811A6.374,6.374,0,0,0,86.075,9.2a2.832,2.832,0,0,0-.288.32L71.4,28.49V15.6A9.6,9.6,0,0,0,61.8,6H10.6A9.6,9.6,0,0,0,1,15.6V60.4A9.6,9.6,0,0,0,10.6,70H61.8a9.6,9.6,0,0,0,9.6-9.6V47.51L85.8,66.48a6.4,6.4,0,0,0,11.2-4.2V13.725a6.4,6.4,0,0,0-3.949-5.914ZM45.8,41.2H39.4v6.4a3.2,3.2,0,1,1-6.4,0V41.2H26.6a3.2,3.2,0,0,1,0-6.4H33V28.4a3.2,3.2,0,1,1,6.4,0v6.4h6.4a3.2,3.2,0,0,1,0,6.4Z" transform="translate(-1 -6)" />
</svg>
