<svg xmlns="http://www.w3.org/2000/svg" width="67.533" height="64" viewBox="0 0 67.533 64">
  <path fill="#fff" d="M69.683,32.483V53.215A11.689,11.689,0,0,1,56.726,66.172H15.263A11.689,11.689,0,0,1,2.305,53.215V18.662A11.689,11.689,0,0,1,15.263,5.705H39.449a2.591,2.591,0,0,1,0,5.183H15.263c-5.449,0-7.774,2.325-7.774,7.774V50.624l8.776-8.776a3.483,3.483,0,0,1,4.906,0L24.419,45.1a1.728,1.728,0,0,0,2.419,0L43.907,28.026a3.483,3.483,0,0,1,4.906,0L64.5,43.713V32.483a2.591,2.591,0,0,1,5.183,0ZM22.149,21.254a4.33,4.33,0,1,0,.024,0ZM53.27,14.343h4.319v4.319a2.591,2.591,0,1,0,5.183,0V14.343h4.319a2.591,2.591,0,1,0,0-5.183H62.772V4.841a2.591,2.591,0,1,0-5.183,0V9.161H53.27a2.591,2.591,0,0,0,0,5.183Z" transform="translate(-2.228 -2.25)" />
</svg>
