<svg xmlns="http://www.w3.org/2000/svg" width="63.248" height="64" viewBox="0 0 63.248 64">
  <path fill="#fff" d="M7.813,34.043a86.815,86.815,0,0,0,14.282,4.278A1.011,1.011,0,0,0,23,37.815a12.645,12.645,0,0,1,10.375-5.827,12.7,12.7,0,0,1,10.408,5.827.963.963,0,0,0,.909.505,89.691,89.691,0,0,0,14.248-4.244,7.5,7.5,0,0,0,4.749-7.04V23.8A8.933,8.933,0,0,0,53.589,13.7H49.379V8.645A5.922,5.922,0,0,0,43.484,2.75H23.274a5.9,5.9,0,0,0-5.895,5.895V13.7H13.168A8.933,8.933,0,0,0,3.063,23.8v3.234a7.411,7.411,0,0,0,4.749,7.006Zm14.619-25.4a.835.835,0,0,1,.842-.842H43.484a.835.835,0,0,1,.842.842V13.7H22.431ZM43.484,60.855A16.842,16.842,0,0,1,60.326,44.013a19.142,19.142,0,0,1,1.987.1,1.92,1.92,0,0,0,.438.034.93.93,0,0,0,.943-.977V37.142a11.618,11.618,0,0,1-2.9,1.617,90.1,90.1,0,0,1-15.091,4.514,6.578,6.578,0,0,1-1.145.1,6.029,6.029,0,0,1-4.985-2.762,7.6,7.6,0,0,0-6.2-3.571,7.592,7.592,0,0,0-6.164,3.571,6,6,0,0,1-6.131,2.661A89.529,89.529,0,0,1,5.96,38.758a10.748,10.748,0,0,1-2.9-1.651V54.118A8.933,8.933,0,0,0,13.168,64.224H42.642a.93.93,0,0,0,.977-.943,2.385,2.385,0,0,0-.034-.472A18.972,18.972,0,0,1,43.484,60.855ZM33.379,47.382a3.368,3.368,0,0,1-.027-6.737h.027a3.368,3.368,0,1,1,0,6.737ZM66.214,57.487a2.526,2.526,0,0,1-2.526,2.526h-4.2v4.211a2.526,2.526,0,1,1-5.053,0V60.013H50.221a2.526,2.526,0,0,1,0-5.053h4.211V50.75a2.526,2.526,0,0,1,5.053,0v4.211h4.211a2.526,2.526,0,0,1,2.526,2.526Z" transform="translate(-2.973 -2.75)" />
</svg>
