<svg xmlns="http://www.w3.org/2000/svg" width="69.333" height="64" viewBox="0 0 69.333 64">
  <g transform="translate(-48 -64)">
    <path fill="#fff" d="M168,69.333H130.667a2.667,2.667,0,1,1,0-5.333H168a2.667,2.667,0,1,1,0,5.333Z" transform="translate(-66.667)" />
    <path fill="#fff" d="M146.667,117.333h-48a2.667,2.667,0,0,1,0-5.333h48a2.667,2.667,0,0,1,0,5.333Z" transform="translate(-40 -40)" />
    <path fill="#fff" d="M109.855,208H55.478A7.487,7.487,0,0,1,48,200.522V167.478A7.487,7.487,0,0,1,55.478,160h54.377a7.487,7.487,0,0,1,7.478,7.478v33.043A7.487,7.487,0,0,1,109.855,208Z" transform="translate(0 -80)"/>
  </g>
</svg>
