<svg xmlns="http://www.w3.org/2000/svg" width="71.111" height="64" viewBox="0 0 71.111 64">
  <path fill="#fff" d="M69.556,17.222H48.222a3.556,3.556,0,0,0-3.556,3.556V31.444H37.556V6.556A3.556,3.556,0,0,0,34,3H5.556A3.556,3.556,0,0,0,2,6.556V63.444A3.556,3.556,0,0,0,5.556,67h64a3.556,3.556,0,0,0,3.556-3.556V20.778a3.556,3.556,0,0,0-3.556-3.556ZM23.333,13.667h7.111v7.111H23.333ZM16.222,49.222H9.111V42.111h7.111Zm0-14.222H9.111V27.889h7.111Zm0-14.222H9.111V13.667h7.111ZM30.444,49.222H23.333V42.111h7.111Zm0-14.222H23.333V27.889h7.111Zm32,14.222H55.333V42.111h7.111Zm0-14.222H55.333V27.889h7.111Z" transform="translate(-2 -3)" />
</svg>
