<svg xmlns="http://www.w3.org/2000/svg" width="64" height="64" viewBox="0 0 64 64">
  <path fill="#fff" d="M15.379.529A14.833,14.833,0,0,0,.562,15.376L.529,35.9A14.77,14.77,0,0,0,14.277,50.64v12.82a1.067,1.067,0,0,0,1.823.754L29.535,50.746H49.715A14.822,14.822,0,0,0,64.529,35.9V15.379A14.8,14.8,0,0,0,49.748.529Zm6.485,21.912a3.2,3.2,0,1,1-3.2,3.2A3.215,3.215,0,0,1,21.865,22.441Zm10.665,0a3.2,3.2,0,1,1-3.2,3.2A3.216,3.216,0,0,1,32.529,22.441Zm10.669,0a3.2,3.2,0,1,1-3.2,3.2A3.216,3.216,0,0,1,43.2,22.441Z" transform="translate(-0.529 -0.529)" />
</svg>
