<svg xmlns="http://www.w3.org/2000/svg" width="64" height="64" viewBox="0 0 64 64">
  <g>
    <path fill="#fff" d="M3.462.634a2,2,0,1,1-2.828,0,2,2,0,0,1,2.828,0" transform="translate(39.978 51.953)" />
    <path fill="#fff" d="M3.462.634a2,2,0,1,1-2.828,0,2,2,0,0,1,2.828,0" transform="translate(31.995 59.952)" />
    <path fill="#fff" d="M6.925,1.269a4,4,0,1,1-5.656,0,4,4,0,0,1,5.656,0" transform="translate(43.914 55.903)" />
    <path fill="#fff" d="M18.367,0a7.429,7.429,0,0,0-5.72,2.679L0,17.855a16.366,16.366,0,0,1,2.676,1.538,16.885,16.885,0,0,1,5.334,6.38L23.135,13.167A7.447,7.447,0,0,0,18.367,0Z" transform="translate(38.17)" />
    <path fill="#fff" d="M38.655,2.781v0a13.589,13.589,0,0,0-16.885.963C18.858,6.37,10,14.366,1.7,16.171L0,16.542s.127,5.583,1.819,8.1c3.314-.37,6-1.056,6.918-1.977C6.7,25.075,5.151,26.816,3.951,28.119A25.656,25.656,0,0,0,7.519,31.9a38.79,38.79,0,0,0,10.688-7.108C15.335,29.577,13,33.171,11.772,35.023a100.25,100.25,0,0,0,9.179-5.971c-1.165,1.165-2.693,4.825-3.929,9.005,1.378.665,5.253,2.058,5.253,2.058,5.95-.453,16.284-14.47,19.764-19.832a12.872,12.872,0,0,0-3.384-17.5Z" transform="translate(-0.016 19.882)" />
  </g>
</svg>
