<svg xmlns="http://www.w3.org/2000/svg" width="83.587" height="64" viewBox="0 0 83.587 64">
  <g><path fill="#fff" d="M163.787,62.439a8.359,8.359,0,0,1,0,11.821L116.5,121.542a8.358,8.358,0,0,1-11.821,0l-5.91-5.91,53.193-53.193A8.358,8.358,0,0,1,163.787,62.439Z" transform="translate(-82.648 -59.991)" /><path fill="#fff" d="M2.448,232.081a8.359,8.359,0,0,1,11.821,0l25.5,25.5-5.91,5.91a8.359,8.359,0,0,1-11.821,0L2.448,243.9a8.358,8.358,0,0,1,0-11.821Z" transform="translate(0 -201.938)" /></g>
</svg>
