<svg id="Layer_2" xmlns="http://www.w3.org/2000/svg" width="64" height="64" viewBox="0 0 64 64">
  <path fill="#fff" d="M49.263,0H14.737A14.779,14.779,0,0,0,0,14.737V49.263A14.779,14.779,0,0,0,14.737,64H49.263A14.779,14.779,0,0,0,64,49.263V14.737A14.779,14.779,0,0,0,49.263,0ZM45.141,34.758H35.427a.564.564,0,0,0-.568.568v9.726a2.859,2.859,0,0,1-5.718,0V35.326a.564.564,0,0,0-.568-.568H18.859a2.859,2.859,0,0,1,0-5.718h9.714a.564.564,0,0,0,.568-.568V18.758a2.859,2.859,0,0,1,5.718,0v9.714a.564.564,0,0,0,.568.581h9.714a2.859,2.859,0,1,1,0,5.718Z" />
</svg>
