<svg xmlns="http://www.w3.org/2000/svg" width="64" height="64" viewBox="0 0 64 64">
  <g>
    <path fill="#fff" d="M50.668,107.151A2.666,2.666,0,0,0,48,109.817v21.334a2.669,2.669,0,0,1-2.667,2.667H8a2.669,2.669,0,0,1-2.667-2.667V93.817A2.669,2.669,0,0,1,8,91.15H29.334a2.667,2.667,0,0,0,0-5.334H8a8.01,8.01,0,0,0-8,8v37.335a8.01,8.01,0,0,0,8,8H45.335a8.01,8.01,0,0,0,8-8V109.817A2.665,2.665,0,0,0,50.668,107.151Zm0,0" transform="translate(0 -76)" />
    <path fill="#fff" d="M184.085,89.361a1.349,1.349,0,0,0-.365.68l-1.885,9.43a1.332,1.332,0,0,0,1.31,1.594,1.268,1.268,0,0,0,.261-.026l9.427-1.885a1.328,1.328,0,0,0,.683-.366l21.1-21.1-9.427-9.427Zm0,0" transform="translate(-159.081 -59.29)" />
    <path fill="#fff" d="M404.563,2.451a6.671,6.671,0,0,0-9.427,0l-3.691,3.691,9.427,9.427,3.691-3.691a6.666,6.666,0,0,0,0-9.427Zm0,0" transform="translate(-342.513)" />
  </g>
</svg>
