<svg xmlns="http://www.w3.org/2000/svg" width="67.229" height="64" viewBox="0 0 67.229 64">
  <g transform="translate(-4 -5.51)">
    <path fill="#fff" d="M65.454,5.51H9.774A5.774,5.774,0,0,0,4,11.273v5.174H71.228V11.272A5.774,5.774,0,0,0,65.454,5.51ZM14.372,12.785a1.369,1.369,0,1,1,1.336-1.369,1.369,1.369,0,0,1-1.336,1.369Zm5.474,0a1.369,1.369,0,1,1,1.369-1.369,1.368,1.368,0,0,1-1.369,1.369Zm5.462,0a1.369,1.369,0,1,1,1.369-1.369,1.368,1.368,0,0,1-1.369,1.369Zm5.882,0a1.369,1.369,0,1,1,1.369-1.369,1.369,1.369,0,0,1-1.369,1.369Zm31.225-.168H46.63a1.2,1.2,0,1,1,0-2.4H62.417a1.2,1.2,0,1,1,0,2.4Z" transform="translate(0 0)" />
    <path fill="#fff" d="M53,52.929c5.2-6.128.49-16.1-7.575-15.919-8.6-.1-13.057,10.662-6.914,16.675a9.761,9.761,0,0,0,12.749.912c.164.169,7.834,7.82,8.26,8.248a1.2,1.2,0,1,0,1.693-1.705S53.451,53.381,53,52.929Z" transform="translate(6.347 6.316)" />
    <path fill="#fff" d="M4,16.62V49.13a5.774,5.774,0,0,0,5.774,5.762h30.5a11.864,11.864,0,0,1-.576-2.4c-1.578-11.378,12.419-18.452,20.673-10.24a12.217,12.217,0,0,1,2.881,12.641h2.2a5.774,5.774,0,0,0,5.774-5.763V16.62ZM22.728,26.968c.09-6,9.726-6,9.808,0v5.414a4.6,4.6,0,0,1-5.354,4.454,4.46,4.46,0,0,1-4.454-4.454ZM11.359,32.023a1.2,1.2,0,1,1,2.4,0,2.25,2.25,0,0,0,2.233,2.413,2.224,2.224,0,0,0,2.221-2.221v-7.3H14.9a1.2,1.2,0,1,1,0-2.4h4.514a1.2,1.2,0,0,1,1.2,1.2v8.5a4.629,4.629,0,1,1-9.256-.192Zm1.2,9.256h9.868a1.2,1.2,0,1,1,0,2.4H12.56a1.2,1.2,0,1,1,0-2.4Zm0,5.858H27.638a1.2,1.2,0,1,1,0,2.4H12.56a1.2,1.2,0,1,1,0-2.4ZM43.8,27.064a3.777,3.777,0,0,1-1.044,2.617A3.777,3.777,0,0,1,43.8,32.3a3.939,3.939,0,0,1-3.818,4.538H35.934a1.2,1.2,0,0,1-1.2-1.2V23.715a1.2,1.2,0,0,1,1.2-1.2h4.046a3.948,3.948,0,0,1,3.818,4.55Z" transform="translate(0 2.228)" />
    <path fill="#fff" d="M34.445,28.5H31.6v3.554h2.845a1.419,1.419,0,0,0,1.417-1.417v-.72A1.419,1.419,0,0,0,34.445,28.5Z" transform="translate(5.534 4.61)" />
    <path fill="#fff" d="M34.445,23.53H31.6V27.1h2.845a1.419,1.419,0,0,0,1.417-1.417v-.732A1.419,1.419,0,0,0,34.445,23.53Z" transform="translate(5.534 3.613)" />
    <path fill="#fff" d="M23.653,33.05h.9A2.044,2.044,0,0,0,26.606,31V25.583a2.052,2.052,0,0,0-2.053-2.053h-.9A2.06,2.06,0,0,0,21.6,25.583V31a2.052,2.052,0,0,0,2.053,2.053Z" transform="translate(3.529 3.613)" />
  </g>
</svg>
