<svg xmlns="http://www.w3.org/2000/svg" width="64" height="64" viewBox="0 0 64 64">
  <g transform="translate(-2.25 -2.25)">
    <path d="M60.737,2.25H44.912a4.058,4.058,0,0,0-2.927,1.257,4,4,0,0,0-1.1,2.991,4.129,4.129,0,0,0,4.21,3.818h4.828L37.217,23.023a4.033,4.033,0,0,0,5.7,5.7L55.626,16.021V20.85a4.131,4.131,0,0,0,3.818,4.211,4.006,4.006,0,0,0,2.991-1.1,4.05,4.05,0,0,0,1.257-2.926V5.208A2.961,2.961,0,0,0,60.736,2.25Z" transform="translate(2.555)" fill="#fff"/>
    <path d="M16.021,10.317H20.85A4.129,4.129,0,0,0,25.06,6.5a4,4,0,0,0-1.1-2.991,4.052,4.052,0,0,0-2.927-1.257H5.208A2.96,2.96,0,0,0,2.25,5.209V21.034A4.035,4.035,0,0,0,6.5,25.062a4.131,4.131,0,0,0,3.818-4.211V16.022L23.023,28.728a4.033,4.033,0,0,0,5.7-5.7Z" transform="translate(0 0)" fill="#fff"/>
    <path d="M23.023,37.218,10.317,49.923V45.095A4.131,4.131,0,0,0,6.5,40.884a3.972,3.972,0,0,0-2.991,1.1A4.05,4.05,0,0,0,2.25,44.912V60.737a2.961,2.961,0,0,0,2.958,2.958H21.033a4.058,4.058,0,0,0,2.927-1.257,4,4,0,0,0,1.1-2.991,4.129,4.129,0,0,0-4.21-3.818H16.021L28.728,42.922a4.034,4.034,0,1,0-5.705-5.7Z" transform="translate(0 2.555)" fill="#fff"/>
    <path d="M59.446,40.884a4.131,4.131,0,0,0-3.818,4.211v4.828L42.922,37.218a4.034,4.034,0,1,0-5.705,5.7L49.923,55.627H45.095a4.129,4.129,0,0,0-4.21,3.817,4,4,0,0,0,1.1,2.991,4.052,4.052,0,0,0,2.927,1.257H60.737a2.96,2.96,0,0,0,2.958-2.958V44.911a4.051,4.051,0,0,0-1.257-2.926,4.006,4.006,0,0,0-2.991-1.1Z" transform="translate(2.555 2.555)" fill="#fff"/>
  </g>
</svg>
