<svg xmlns="http://www.w3.org/2000/svg" width="64" height="64" viewBox="0 0 64 64">
    <g>
      <circle fill="#fff" cx="7.164" cy="7.164" r="7.164" transform="translate(24.836)" />
      <path fill="#fff" d="M191.914,125.925v1.989H193.9a1.989,1.989,0,0,0,1.989-1.989v-7.957A5.975,5.975,0,0,0,189.925,112h-7.957A5.975,5.975,0,0,0,176,117.968v7.957a1.989,1.989,0,0,0,1.989,1.989h1.989v-1.989a5.968,5.968,0,0,1,11.936,0Z" transform="translate(-154.118 -97.732)" />
      <path fill="#fff" d="M252.844,210.029a3.98,3.98,0,0,0-2.984,3.853v3.233l-1.989-.249V209.9a3.082,3.082,0,1,0-5.968,0v6.216l-1.989-.249v-7.957a3.082,3.082,0,1,0-5.968,0v7.211l-1.989-.249v-18.9a3.979,3.979,0,0,0-7.957,0v35.807h31.828v-17.9a3.98,3.98,0,0,0-2.984-3.853Z" transform="translate(-196.15 -167.785)" />
      <path fill="#fff" d="M145.989,336h-.995a1,1,0,0,0-.995.995v20.887h7.957V341.968A5.968,5.968,0,0,0,145.989,336Z" transform="translate(-126.097 -293.882)" />
      <circle fill="#fff" cx="7.164" cy="7.164" r="7.164" transform="translate(46.806 1.91)" />
      <path fill="#fff" d="M365.925,128h-7.957A5.975,5.975,0,0,0,352,133.968v7.957a1.989,1.989,0,0,0,1.989,1.989H369.9a1.989,1.989,0,0,0,1.989-1.989v-7.957A5.975,5.975,0,0,0,365.925,128Z" transform="translate(-308.236 -111.742)" />
      <circle fill="#fff" cx="7.164" cy="7.164" r="7.164" transform="translate(2.866 1.91)" />
      <path fill="#fff" d="M19.893,141.925v-7.957A5.975,5.975,0,0,0,13.925,128H5.968A5.975,5.975,0,0,0,0,133.968v7.957a1.989,1.989,0,0,0,1.989,1.989H17.9A1.989,1.989,0,0,0,19.893,141.925Z" transform="translate(0 -111.742)" />
    </g>
</svg>
