<svg xmlns="http://www.w3.org/2000/svg" width="64" height="64" viewBox="0 0 64 64">
  <path fill="#fff" d="M62.274,27.837l0,0L36.163,1.727a5.891,5.891,0,0,0-8.333,0L1.737,27.819l-.026.027A5.889,5.889,0,0,0,5.631,37.884q.09.009.182.009H6.854V57.105a6.9,6.9,0,0,0,6.9,6.9H23.963a1.875,1.875,0,0,0,1.875-1.875V47.063a3.149,3.149,0,0,1,3.146-3.146h6.024a3.149,3.149,0,0,1,3.146,3.146V62.125A1.875,1.875,0,0,0,40.03,64H50.244a6.9,6.9,0,0,0,6.9-6.9V37.893H58.1a5.892,5.892,0,0,0,4.169-10.056Zm0,0" />
</svg>
