<svg xmlns="http://www.w3.org/2000/svg" width="55" height="64" viewBox="0 0 55 64">
  <g><path fill="#fff" d="M57.914,29.118a21.048,21.048,0,0,0-11.2-3.239l6.971-6.972a2.288,2.288,0,0,0-2.343-3.789L37.609,19.7a2.285,2.285,0,0,0-1.483,1.567l-4.66,17.022L26.807,21.263A2.285,2.285,0,0,0,25.324,19.7L11.591,15.118a2.288,2.288,0,0,0-2.342,3.789l6.971,6.972a21.048,21.048,0,0,0-11.2,3.239,2.289,2.289,0,0,0,.639,4.1c.153.045,15.451,4.535,24.027,15.171a2.289,2.289,0,0,0,3.563,0c8.576-10.635,23.874-15.126,24.027-15.171a2.289,2.289,0,0,0,.639-4.1Z" transform="translate(-4 16.756)" /><path fill="#fff" d="M31.467,29.467c15.17,0,27.467-4.1,27.467-9.156,0-3.7-6.584-6.887-16.061-8.331L39.3,3.408A2.289,2.289,0,0,0,35.76,2.5L31.467,5.936,27.174,2.5a2.289,2.289,0,0,0-3.542.908L20.061,11.98C10.585,13.424,4,16.611,4,20.311,4,25.368,16.3,29.467,31.467,29.467Z" transform="translate(-4 0)"/></g>
</svg>
