<svg xmlns="http://www.w3.org/2000/svg" width="64" height="64" viewBox="0 0 64 64">
  <g transform="translate(-6.6 -6.24)">
    <path fill="#fff" d="M30.847,15.668A1.351,1.351,0,0,0,29.5,17.014v1.347a4.04,4.04,0,1,0,8.081,0V7.587a1.347,1.347,0,1,0-2.694,0V18.361a1.347,1.347,0,0,1-2.694,0V17.014A1.351,1.351,0,0,0,30.847,15.668Z" transform="translate(8.148 0)" />
    <path fill="#fff" d="M42.54,22.4a4.052,4.052,0,0,0,4.04-4.04V10.28a4.04,4.04,0,0,0-8.081,0v8.081A4.044,4.044,0,0,0,42.54,22.4ZM41.194,10.28a1.347,1.347,0,1,1,2.694,0v8.081a1.347,1.347,0,0,1-2.694,0Z" transform="translate(11.27 0)" />
    <path fill="#fff" d="M51.714,6.24H48.347A1.351,1.351,0,0,0,47,7.587V21.055A1.351,1.351,0,0,0,48.347,22.4h3.367A4.705,4.705,0,0,0,55,14.321,4.705,4.705,0,0,0,51.714,6.24Zm0,13.468h-2.02v-4.04h2.02a2.02,2.02,0,1,1,0,4.04Zm0-6.734h-2.02V8.934h2.02a2.02,2.02,0,1,1,0,4.04Z" transform="translate(14.217 0)" />
    <path fill="#fff" d="M10.524,48.6,7.2,39.9a5.407,5.407,0,0,0-.835,5.32A5.3,5.3,0,0,0,9.2,48.21a4.969,4.969,0,0,0,1.32.391Z" transform="translate(0 11.673)" />
    <path fill="#fff" d="M31.074,22.3c-1.508,6.613-7.717,12.485-11.7,15.663a4.255,4.255,0,0,1,.539.97l3.865,10.061a3.6,3.6,0,0,1,.256,1.077c5.091-.3,13.616-.108,19.178,3.8a1.253,1.253,0,0,0,.768.256,1.294,1.294,0,0,0,.835-.3,1.364,1.364,0,0,0,.431-1.535l-3.434-8.929a6.724,6.724,0,0,0-.889-11.825,6.644,6.644,0,0,0-3.838-.5l-3.434-8.929a1.357,1.357,0,0,0-1.36-.862A1.375,1.375,0,0,0,31.074,22.3Z" transform="translate(4.635 5.205)" />
    <path fill="#fff" d="M15.18,48.679,19.624,55.9a1.348,1.348,0,0,0,1.145.633,1.242,1.242,0,0,0,.485-.094l5.024-1.926a1.333,1.333,0,0,0,.795-.822,1.371,1.371,0,0,0-.121-1.145L22.776,45.77Z" transform="translate(3.182 13.709)" />
    <path fill="#fff" d="M19.422,34.542,9.361,38.407a1.348,1.348,0,0,0-.768,1.737l3.852,10.061a1.4,1.4,0,0,0,.714.754,1.3,1.3,0,0,0,.552.108,1.525,1.525,0,0,0,.485-.081l10.061-3.865A1.419,1.419,0,0,0,25,46.407a1.289,1.289,0,0,0,.027-1.024L21.159,35.323a1.355,1.355,0,0,0-1.737-.781Z" transform="translate(0.866 9.786)" />
  </g>
</svg>
