<svg xmlns="http://www.w3.org/2000/svg" width="60" height="64" viewBox="0 0 60 64">
  <g>
    <path fill="#fff" d="M15.4,38.52,2,45.608V22.436l7.676-3.443a1.1,1.1,0,0,1,1.516.719l4.754,17.545A1.1,1.1,0,0,1,15.4,38.52Z" transform="translate(-2 20.392)" />
    <path fill="#fff" d="M52.926,25.158,34.613,35.073a8.824,8.824,0,0,1-6.588.737l-9.755-2.737-6.647,3.242L7.7,21.834l6.526-3.244a14.936,14.936,0,0,1,6.68-1.578H34.549c4.286,0,4.524,6.389.282,6.731l-5.089.417a1.657,1.657,0,0,0,.271,3.3l5.085-.422a6.7,6.7,0,0,0,5.868-4.917l9.825-2.7a3.073,3.073,0,0,1,2.134,5.734Z" transform="translate(4.882 18.118)" />
    <path fill="#fff" d="M42.9,10v7.724a3.312,3.312,0,0,1-3.31,3.31H15.31A3.312,3.312,0,0,1,12,17.724V10Z" transform="translate(12.069 9.655)" />
    <path fill="#fff" d="M39.586,8.621H34.069V4.759A2.76,2.76,0,0,0,31.31,2H23.586a2.76,2.76,0,0,0-2.759,2.759V8.621H15.31A3.312,3.312,0,0,0,12,11.931v4.414H42.9V11.931A3.312,3.312,0,0,0,39.586,8.621ZM24.138,5.31h6.621v3.31H24.138Z" transform="translate(12.069 0)" />
  </g>
</svg>
