<svg xmlns="http://www.w3.org/2000/svg" width="72.98" height="64" viewBox="0 0 72.98 64">
  <g transform="translate(0 -31.5)">
    <path fill="#fff" d="M28.179,61.433H10.69a2.138,2.138,0,0,1,0-4.276l26.126-.128a10.72,10.72,0,0,1,8.368-8.492v-14.9A2.138,2.138,0,0,0,43.047,31.5H2.138A2.138,2.138,0,0,0,0,33.638V84.81a2.138,2.138,0,0,0,2.138,2.138H27.8V76.036a10.749,10.749,0,0,1-1-4.541v-5.2A9.208,9.208,0,0,1,28.179,61.433ZM10.69,40.052h23.8a2.138,2.138,0,1,1,0,4.276H10.69a2.138,2.138,0,1,1,0-4.276Zm0,8.552h23.8a2.138,2.138,0,1,1,0,4.276H10.69a2.138,2.138,0,0,1,0-4.276Zm5.131,21.381H10.69a2.138,2.138,0,0,1,0-4.276h5.131a2.138,2.138,0,0,1,0,4.276Z" />
    <path fill="#fff" d="M349.061,377.5h4.276v4.276h-4.276Z" transform="translate(-299.306 -296.681)" />
    <path fill="#fff" d="M251.237,380.729V383.2a2.138,2.138,0,0,1-2.138,2.138h-8.552a2.138,2.138,0,0,1-2.138-2.138v-2.439L227.57,377.77A10.925,10.925,0,0,1,225,376.694v8.933a5.851,5.851,0,0,0,5.844,5.844h28.223a5.851,5.851,0,0,0,5.844-5.844v-8.956a10.956,10.956,0,0,1-2.644,1.095Z" transform="translate(-192.93 -295.971)" />
    <path fill="#fff" d="M290.3,186.505H311.6a6.423,6.423,0,0,0-5.943-4.005h-9.408A6.423,6.423,0,0,0,290.3,186.505Z" transform="translate(-248.925 -129.477)" />
    <path fill="#fff" d="M254.918,240.6H222.989A5,5,0,0,0,218,245.589v5.2a6.352,6.352,0,0,0,4.706,6.183l9.7,2.68v-1.677a2.138,2.138,0,0,1,2.138-2.138H243.1a2.138,2.138,0,0,1,2.138,2.138v1.65l9.922-2.665a6.345,6.345,0,0,0,4.751-6.195v-5.177A5,5,0,0,0,254.918,240.6Z" transform="translate(-186.926 -179.295)" />
  </g>
</svg>
