<svg xmlns="http://www.w3.org/2000/svg" width="61" height="64" viewBox="0 0 61 64">
  <g transform="translate(-32 -21.333)">
    <path fill="#fff" d="M406.788,32.969a1.455,1.455,0,0,0,1.455-1.455V22.788a1.455,1.455,0,1,0-2.909,0v8.727A1.455,1.455,0,0,0,406.788,32.969Z" transform="translate(-322.424)" />
    <path fill="#fff" d="M449.455,75.635a1.455,1.455,0,0,0,1.455-1.455V65.454a1.455,1.455,0,1,0-2.909,0v8.727a1.455,1.455,0,0,0,1.454,1.455Z" transform="translate(-359.273 -36.848)" />
    <path fill="#fff" d="M97.455,42.667A1.455,1.455,0,0,0,96,44.121v8.727a1.455,1.455,0,1,0,2.909,0V44.121a1.455,1.455,0,0,0-1.454-1.454Z" transform="translate(-55.273 -18.425)" />
    <path fill="#fff" d="M54.788,106.667a1.455,1.455,0,0,0-1.455,1.455v8.727a1.455,1.455,0,1,0,2.909,0v-8.727A1.455,1.455,0,0,0,54.788,106.667Z" transform="translate(-18.424 -73.698)" />
    <path fill="#fff" d="M405.878,194.85a1.454,1.454,0,0,0-2.057,0l-1.881,1.88V182.788a1.455,1.455,0,1,0-2.909,0V196.73l-1.881-1.88a1.454,1.454,0,1,0-2.057,2.057l4.364,4.364a1.454,1.454,0,0,0,2.057,0l4.364-4.364a1.454,1.454,0,0,0,0-2.057Z" transform="translate(-313.213 -138.182)" />
    <path fill="#fff" d="M165.334,64a16,16,0,1,0,16,16A16,16,0,0,0,165.334,64Zm2.557,22.842a5.825,5.825,0,0,1-1.1.415v1.47a1.455,1.455,0,1,1-2.909,0v-1.4a7.858,7.858,0,0,1-3.043-1.391,1.454,1.454,0,1,1,1.723-2.343,3.774,3.774,0,0,0,4.018.651,1.516,1.516,0,0,0,.938-1.083c0-.69-.637-1.05-2.065-1.6-.257-.1-.5-.191-.7-.282-.143-.063-.315-.127-.5-.2-1.3-.493-4-1.519-4-4.34a4.271,4.271,0,0,1,2.534-3.679,5.819,5.819,0,0,1,1.1-.409V71.273a1.455,1.455,0,1,1,2.909,0v1.317a7.833,7.833,0,0,1,3.043,1.38,1.455,1.455,0,1,1-1.723,2.344,3.774,3.774,0,0,0-4.018-.651,1.516,1.516,0,0,0-.938,1.083c0,.684.746,1.1,2.124,1.621.242.092.462.176.645.257.167.074.361.147.567.226,1.376.526,3.936,1.5,3.936,4.313A4.271,4.271,0,0,1,167.891,86.842Z" transform="translate(-101.334 -36.849)" />
    <path fill="#fff" d="M160.45,349.4a2.1,2.1,0,0,1-1.258,1.105l-25.44,8.48a7.8,7.8,0,0,1-6.007-.422l-7.4-3.7a6.89,6.89,0,0,0-4.218-.633l-5.884.982V342.428l10.073-3.353a7.906,7.906,0,0,1,4.938-.015l12.727,4.167a2.033,2.033,0,0,1-1.055,3.913l-8-1.455a1.453,1.453,0,0,0-.523,2.858l8,1.455a4.577,4.577,0,0,0,.887.08,4.9,4.9,0,0,0,3.091-1.091l17.826-2.633a2.145,2.145,0,0,1,2.247,3.047Z" transform="translate(-67.57 -274.066)" />
    <path fill="#fff" d="M39.76,340.339V357.1a1.6,1.6,0,0,1-1.593,1.593H33.593A1.592,1.592,0,0,1,32,357.1V340.339a1.6,1.6,0,0,1,1.593-1.593h4.575a1.6,1.6,0,0,1,1.593,1.593Z" transform="translate(0 -274.13)" />
  </g>
</svg>
