<svg id="_032-locator" xmlns="http://www.w3.org/2000/svg" width="64" height="64" viewBox="0 0 64 64">
  <path fill="#fff" d="M23.2,0A19.256,19.256,0,0,0,4,19.2C4,29.76,23.2,54.4,23.2,54.4S42.4,29.76,42.4,19.2A19.256,19.256,0,0,0,23.2,0Zm0,25.6a6.4,6.4,0,1,1,6.4-6.4A6.419,6.419,0,0,1,23.2,25.6Z" transform="translate(8.8)" />
  <path fill="#fff" d="M52.16,11.32a51.773,51.773,0,0,1-3.2,5.76C54.4,19,57.6,21.56,57.6,23.8c0,3.84-10.24,9.6-25.6,9.6S6.4,27.64,6.4,23.8c0-2.24,3.2-4.8,8.64-7.04A51.773,51.773,0,0,1,11.84,11C4.48,14.2,0,18.68,0,23.8c0,8.96,13.44,16,31.36,16,16,0,32.64-5.44,32.64-16C64,18.68,59.52,14.2,52.16,11.32Z" transform="translate(0 24)" />
</svg>
