<svg xmlns="http://www.w3.org/2000/svg" width="64" height="64" viewBox="0 0 241.134 64">
  <g id="Group_100969"  transform="translate(-41.441 -23.292)">
    <g id="Group_99882"  transform="translate(41.441 23.292)">
      <g id="Group_100944"  transform="translate(0)">
        <path id="Path_1"  d="M31.989-94.25a31.994,31.994,0,0,0,31.989-32,32,32,0,0,0-31.989-32A32,32,0,0,0,0-126.25a31.994,31.994,0,0,0,31.989,32" transform="translate(0 158.25)" fill="#010143"/>
        <path id="Path_2"  d="M67.567-109.676a9.81,9.81,0,0,0-6.5,2.378l-.914-1.683H55.188V-80.91L62.4-83.449v-5.038a9.906,9.906,0,0,0,5.165,1.406c6.478,0,11.108-4.709,11.108-11.31s-4.63-11.287-11.108-11.287M66.591-93.54a4.662,4.662,0,0,1-3.417-1.4,4.662,4.662,0,0,1-1.325-3.447,4.662,4.662,0,0,1,1.326-3.447,4.663,4.663,0,0,1,3.417-1.4,4.663,4.663,0,0,1,3.417,1.4,4.662,4.662,0,0,1,1.326,3.447,4.672,4.672,0,0,1-1.328,3.445,4.672,4.672,0,0,1-3.414,1.4" transform="translate(-34.565 126.727)" fill="#ffffff"/>
        <path id="Path_3"  d="M104.933-58.5a3.216,3.216,0,0,1-3.216,3.216A3.216,3.216,0,0,1,98.5-58.5a3.216,3.216,0,0,1,3.215-3.215,3.216,3.216,0,0,1,3.216,3.216" transform="translate(-56.666 102.241)" fill="#ffffff"/>
        <path id="Path_4"  d="M392.5-30.271a3.083,3.083,0,0,1-3.083,3.083,3.083,3.083,0,0,1-3.083-3.083,3.083,3.083,0,0,1,3.083-3.083,3.083,3.083,0,0,1,3.083,3.083" transform="translate(-230.089 83.87)" fill="#010143"/>
        <path id="Path_5"  d="M272.294-114.682c0-4.792,3.627-8.235,8.667-8.235,5.023,0,8.666,3.443,8.666,8.235,0,4.775-3.643,8.236-8.666,8.236-5.04,0-8.667-3.46-8.667-8.236m12,0a3.26,3.26,0,0,0-3.333-3.452,3.253,3.253,0,0,0-3.333,3.452,3.253,3.253,0,0,0,3.333,3.452,3.253,3.253,0,0,0,3.333-3.452" transform="translate(-162.169 137.208)" fill="#010143"/>
        <path id="Path_6"  d="M369.414-112.843v-8.822h5.325v8.59c0,1.631.877,2.591,2.3,2.591s2.283-.976,2.283-2.591v-8.59h5.324v8.822c0,4.326-3.041,7.143-7.607,7.143s-7.624-2.817-7.624-7.143" transform="translate(-220.011 136.463)" fill="#010143"/>
        <path id="Path_7"  d="M573.8-116.425v8.822h-5.325v-8.591c0-1.631-.877-2.591-2.3-2.591s-2.283.976-2.283,2.591v8.59h-5.324v-8.821c0-4.326,3.041-7.143,7.607-7.143s7.624,2.818,7.624,7.143" transform="translate(-332.665 137.596)" fill="#010143"/>
        <path id="Path_8"  d="M421.217-106.412c-4.957,0-8.535-3.473-8.535-8.256s3.561-8.19,8.552-8.19a7.863,7.863,0,0,1,8.184,6.85h-5.186a3.138,3.138,0,0,0-3.015-2.079,3.194,3.194,0,0,0-3.2,3.436,3.231,3.231,0,0,0,3.2,3.469,3.115,3.115,0,0,0,3.026-2.256h5.232a8.018,8.018,0,0,1-8.258,7.027Z" transform="translate(-245.78 137.173)" fill="#010143"/>
        <path id="Path_9"  d="M467.681-117.53v4.663h-3.663c-3.418,0-5.5-2.09-5.5-5.525v-5.833h-2.83v-1.244l6.925-7.375h1.091v4.52h3.883v4.1h-3.749v4.919a1.64,1.64,0,0,0,.48,1.308,1.639,1.639,0,0,0,1.312.467Z" transform="translate(-271.397 143.12)" fill="#010143"/>
        <path id="Path_10"  d="M491.5-106.208h5.324v-15.457H491.5Z" transform="translate(-292.712 136.463)" fill="#010143" fill-rule="evenodd"/>
        <path id="Path_11"  d="M510.73-114.682c0-4.792,3.627-8.235,8.667-8.235,5.023,0,8.666,3.443,8.666,8.235,0,4.775-3.643,8.236-8.666,8.236-5.04,0-8.667-3.46-8.667-8.236m12,0a3.26,3.26,0,0,0-3.333-3.452,3.253,3.253,0,0,0-3.334,3.452,3.253,3.253,0,0,0,3.334,3.452,3.253,3.253,0,0,0,3.333-3.452" transform="translate(-304.168 137.208)" fill="#010143"/>
        <path id="Path_12"  d="M243.191-49.8c0-4.791,3.627-8.235,8.667-8.235,5.023,0,8.666,3.443,8.666,8.235,0,4.775-3.643,8.236-8.666,8.236-5.04,0-8.667-3.461-8.667-8.236m12,0a3.26,3.26,0,0,0-3.334-3.452,3.253,3.253,0,0,0-3.333,3.452,3.253,3.253,0,0,0,3.333,3.452,3.253,3.253,0,0,0,3.334-3.452" transform="translate(-144.836 98.574)" fill="#010143"/>
        <path id="Path_13"  d="M289.929-49.8c0-4.792,3.627-8.235,8.667-8.235,5.023,0,8.666,3.443,8.666,8.235,0,4.775-3.643,8.236-8.667,8.236-5.04,0-8.666-3.46-8.666-8.236m12,0a3.26,3.26,0,0,0-3.333-3.452,3.253,3.253,0,0,0-3.334,3.452,3.254,3.254,0,0,0,3.333,3.453,3.254,3.254,0,0,0,3.334-3.453" transform="translate(-172.672 98.574)" fill="#010143"/>
        <path id="Path_14"  d="M346.685-49.553l-3.871-6.537v6.537h-5.324v-21.04h5.324v11.638l3.682-6.056h5.979l-4.817,7.367,5.3,8.091Z" transform="translate(-200.997 106.053)" fill="#010143"/>
        <path id="Path_15"  d="M255.339-122.313s-10.079-2.573-10.067,6.954v8.576H250.6v-7.861c0-1.972.79-2.8,2.674-2.8h2.067Z" transform="translate(-146.076 137.037)" fill="#010143"/>
        <path id="Path_16"  d="M206.422-123.565a7.113,7.113,0,0,0-4.712,1.723l-.662-1.22h-3.6v20.347l5.229-1.841v-3.651a7.181,7.181,0,0,0,3.743,1.02,7.822,7.822,0,0,0,8.051-8.2,7.809,7.809,0,0,0-8.051-8.181m-.707,11.694a3.379,3.379,0,0,1-2.476-1.016,3.379,3.379,0,0,1-.961-2.5,3.379,3.379,0,0,1,.96-2.5,3.379,3.379,0,0,1,2.476-1.016,3.379,3.379,0,0,1,2.476,1.016,3.379,3.379,0,0,1,.96,2.5,3.386,3.386,0,0,1-.963,2.5,3.386,3.386,0,0,1-2.474,1.018" transform="translate(-117.594 137.595)" fill="#010143"/>
        <path id="Path_17"  d="M336.936-121.667v-12.262l-5.264,1.852v3.257a8.466,8.466,0,0,0-2.507-.6,7.612,7.612,0,0,0-1.261-.108,7.875,7.875,0,0,0-8.105,8.252,8.53,8.53,0,0,0,1.517,5,8.508,8.508,0,0,0,7.128,3.86c4.706,0,8.52-2.547,8.52-8.52,0-.229-.017-.454-.034-.678,0-.018,0-.034.006-.052m-8.586,4.425a3.4,3.4,0,0,1-2.49-1.017,3.4,3.4,0,0,1-.971-2.508,3.4,3.4,0,0,1,.978-2.5,3.4,3.4,0,0,1,2.483-1.012,3.4,3.4,0,0,1,2.484,1.011,3.4,3.4,0,0,1,.976,2.5,3.4,3.4,0,0,1-.971,2.508,3.4,3.4,0,0,1-2.489,1.018" transform="translate(-190.461 143.767)" fill="#010143"/>
        <path id="Path_18"  d="M206.5-63.726a7.2,7.2,0,0,0-3.816,1.058v-4.6l-5.229,1.841v17.532h3.914l.5-1.14a7.128,7.128,0,0,0,4.632,1.644,7.8,7.8,0,0,0,8.068-8.169,7.8,7.8,0,0,0-8.068-8.167m-.708,11.654a3.372,3.372,0,0,1-2.468-1,3.372,3.372,0,0,1-.969-2.482,3.377,3.377,0,0,1,.964-2.491,3.376,3.376,0,0,1,2.473-1.011,3.376,3.376,0,0,1,2.473,1.011,3.376,3.376,0,0,1,.964,2.491,3.379,3.379,0,0,1-.971,2.479,3.379,3.379,0,0,1-2.465,1.006" transform="translate(-117.594 104.071)" fill="#010143"/>
        <path id="Path_19"  d="M491.6-132.758h5.243v-4.518H491.6Z" transform="translate(-292.771 145.755)" fill="#010143" fill-rule="evenodd"/>
      </g>
    </g>
  </g>
</svg>
