<svg xmlns="http://www.w3.org/2000/svg" width="85" height="64" viewBox="0 0 85 64">
  <g transform="translate(-0.2 -64.267)">
    <path fill="#fff" d="M184.669,64.267H136.4A7.866,7.866,0,0,0,136.4,80h48.272a7.866,7.866,0,0,0,0-15.733Z" transform="translate(-107.081)" />
    <path fill="#fff" d="M7.867,64.267a7.866,7.866,0,1,0,7.866,7.866A7.876,7.876,0,0,0,7.867,64.267Z" />
    <path fill="#fff" d="M7.867,208.867a7.866,7.866,0,1,0,7.866,7.866A7.876,7.876,0,0,0,7.867,208.867Z" transform="translate(0 -120.466)" />
    <path fill="#fff" d="M7.867,353.467a7.866,7.866,0,1,0,7.866,7.866A7.876,7.876,0,0,0,7.867,353.467Z" transform="translate(0 -240.933)" />
    <path fill="#fff" d="M184.669,208.867H136.4a7.866,7.866,0,0,0,0,15.733h48.272a7.866,7.866,0,0,0,0-15.733Z" transform="translate(-107.081 -120.466)" />
    <path fill="#fff" d="M184.669,353.467H136.4a7.866,7.866,0,0,0,0,15.733h48.272a7.866,7.866,0,0,0,0-15.733Z" transform="translate(-107.081 -240.933)" />
  </g>
</svg>
