<svg xmlns="http://www.w3.org/2000/svg" width="53.333" height="64" viewBox="0 0 53.333 64">
  <g transform="translate(-2)">
    <path fill="#fff" d="M53.677,45.1a17.861,17.861,0,0,1-6.344-13.667V24a18.682,18.682,0,0,0-16-18.453V2.667a2.667,2.667,0,0,0-5.333,0v2.88A18.679,18.679,0,0,0,10,24v7.435A17.881,17.881,0,0,1,3.632,45.123a4.666,4.666,0,0,0,3.035,8.211h44A4.666,4.666,0,0,0,53.677,45.1Z" />
    <path fill="#fff" d="M18.123,29a10.016,10.016,0,0,0,9.8-8H8.326A10.016,10.016,0,0,0,18.123,29Z" transform="translate(10.543 35)" />
  </g>
</svg>
