<svg xmlns="http://www.w3.org/2000/svg" width="64" height="64.004" viewBox="0 0 64 64">
  <path fill="#fff" d="M20149,22736a31.909,31.909,0,1,1,12.457-2.516A31.792,31.792,0,0,1,20149,22736Zm13.051-23.475a3.215,3.215,0,1,0,3.219,3.213A3.217,3.217,0,0,0,20162.049,22712.527Zm-24.41-22.781v28.064l7.213-2.533v-5.039a9.853,9.853,0,0,0,5.064,1.4h.094a11.055,11.055,0,0,0,7.986-3.178,12.126,12.126,0,0,0,0-16.246,11.063,11.063,0,0,0-7.986-3.166h-.1a9.822,9.822,0,0,0-6.4,2.379l-.912-1.684h-4.959Zm11.4,15.443h-.086a4.939,4.939,0,0,1-3.334-8.3,4.631,4.631,0,0,1,3.332-1.4h.086c.025,0,.053,0,.078,0a4.847,4.847,0,0,1-.014,9.693c-.021,0-.043,0-.064,0l0,0Z" transform="translate(-20117 -22672)" />
</svg>
