<svg xmlns="http://www.w3.org/2000/svg" width="72.818" height="64" viewBox="0 0 72.818 64">
  <path fill="#fff" d="M211,240h12.8v4.267H211Zm0,0" transform="translate(-180.991 -205.867)" />
  <path fill="#fff" d="M59.076,104.8h-12v2.133a2.132,2.132,0,0,1-2.133,2.133H27.876a2.132,2.132,0,0,1-2.133-2.133V104.8h-12a6.393,6.393,0,0,1-6.071-4.375L0,77.41V124a6.407,6.407,0,0,0,6.4,6.4H66.418a6.407,6.407,0,0,0,6.4-6.4V77.412l-7.671,23.014A6.392,6.392,0,0,1,59.076,104.8Zm0,0" transform="translate(0 -66.401)" />
  <path fill="#fff" d="M67.08,0H50.014a6.407,6.407,0,0,0-6.4,6.4V8.533H25.809l8.046,24.142a2.133,2.133,0,0,0,2.025,1.458h12V32a2.132,2.132,0,0,1,2.133-2.133H67.08A2.132,2.132,0,0,1,69.214,32v2.133h12a2.133,2.133,0,0,0,2.025-1.458L91.286,8.533H73.48V6.4A6.407,6.407,0,0,0,67.08,0ZM47.88,8.533V6.4a2.135,2.135,0,0,1,2.133-2.133H67.08A2.135,2.135,0,0,1,69.214,6.4V8.533Zm0,0" transform="translate(-22.138)" />
</svg>
