<svg xmlns="http://www.w3.org/2000/svg" width="46.666" height="64" viewBox="0 0 46.666 64">
  <g transform="translate(-3)"><path fill="#f5f5f5" d="M7.995,20.858V14.647a7.99,7.99,0,1,1,15.979,0v5.326c.277,0,.538.064.81.091a11.986,11.986,0,1,0-16.789.794Z" transform="translate(1.663)" /><path fill="#fff" d="M45.667,22.672a4,4,0,0,0-4,4v.667a.667.667,0,1,1-1.333,0V24.005a4,4,0,1,0-8,0v3.334a.667.667,0,1,1-1.333,0v-6a4,4,0,1,0-8,0v6a.667.667,0,1,1-1.333,0V8a4,4,0,1,0-8,0V32.007a1.334,1.334,0,0,1-1.333-1.334V25.339H11.016A7.992,7.992,0,0,0,3,33.269c.013,14.086,10.264,24.078,16.568,24.078H36.333A13.337,13.337,0,0,0,49.667,44.01V26.673A4,4,0,0,0,45.667,22.672Z" transform="translate(0 6.653)" /></g>
</svg>
