<svg xmlns="http://www.w3.org/2000/svg" width="64" height="64" viewBox="0 0 64 64">
  <g>
    <path fill="#fff" d="M8.75,17.612V22.25a.75.75,0,0,0,1.354.444L12.817,19Z" transform="translate(17.559 41)" />
    <path fill="#fff" d="M63.16.424A1.792,1.792,0,0,0,61.075.259L1.075,36.1A2.377,2.377,0,0,0,.005,38.3a2.262,2.262,0,0,0,1.347,1.992l16.68,6.521L53.555,12.072,26.067,49.95,54.021,60.878a1.784,1.784,0,0,0,1.685-.21,2.337,2.337,0,0,0,.939-1.616L63.979,2.626a2.447,2.447,0,0,0-.819-2.2Z" />
  </g>
</svg>
