<svg xmlns="http://www.w3.org/2000/svg" width="64" height="64" viewBox="0 0 64 64">
  <path fill="#fff" d="M60.488,25.051l-5.013-.637a25.2,25.2,0,0,0-1.517-3.664l3.1-3.987a3.964,3.964,0,0,0-.325-5.277l-4.2-4.2a3.975,3.975,0,0,0-5.293-.339l-3.981,3.1a25.11,25.11,0,0,0-3.667-1.517L38.949,3.52A3.994,3.994,0,0,0,34.987,0H29.013a3.994,3.994,0,0,0-3.963,3.512l-.637,5.013a24.819,24.819,0,0,0-3.667,1.517l-3.984-3.1a3.967,3.967,0,0,0-5.277.325l-4.2,4.2a3.976,3.976,0,0,0-.339,5.3l3.1,3.984a24.907,24.907,0,0,0-1.517,3.664l-5.005.637A3.994,3.994,0,0,0,0,29.013v5.973a3.994,3.994,0,0,0,3.512,3.963l5.013.637a25.2,25.2,0,0,0,1.517,3.664l-3.1,3.987a3.964,3.964,0,0,0,.325,5.277l4.2,4.2a3.978,3.978,0,0,0,5.293.336l3.984-3.1a24.62,24.62,0,0,0,3.664,1.517l.637,5A3.994,3.994,0,0,0,29.013,64h5.973a3.994,3.994,0,0,0,3.963-3.512l.637-5.013a25.2,25.2,0,0,0,3.664-1.517l3.987,3.1a3.964,3.964,0,0,0,5.277-.325l4.2-4.2a3.972,3.972,0,0,0,.339-5.293l-3.1-3.984a24.619,24.619,0,0,0,1.517-3.664l5-.637A3.994,3.994,0,0,0,64,34.987V29.013a3.989,3.989,0,0,0-3.509-3.963ZM32,45.333A13.333,13.333,0,1,1,45.333,32,13.348,13.348,0,0,1,32,45.333Z" />
</svg>
