<svg xmlns="http://www.w3.org/2000/svg" width="66.754" height="64" viewBox="0 0 66.754 64">
  <path fill="#fff" d="M62.138,38.032a11.279,11.279,0,0,1-2.3-2.051,10.536,10.536,0,0,1,.652-3.2c.718-2.432,1.613-5.459-.111-7.828-1.737-2.388-4.91-2.468-7.459-2.533a10.931,10.931,0,0,1-3.184-.342,10.821,10.821,0,0,1-1.294-2.894c-.851-2.422-1.91-5.438-4.748-6.36-2.754-.895-5.225.805-7.4,2.3a10.376,10.376,0,0,1-2.911,1.637,10.358,10.358,0,0,1-2.912-1.637c-2.179-1.5-4.651-3.191-7.4-2.3-2.837.922-3.9,3.936-4.748,6.359a11.032,11.032,0,0,1-1.281,2.885,10.684,10.684,0,0,1-3.2.352c-2.549.065-5.722.145-7.459,2.533-1.725,2.37-.83,5.4-.111,7.83a10.834,10.834,0,0,1,.658,3.179,10.887,10.887,0,0,1-2.307,2.071C2.559,39.6,0,41.553,0,44.575s2.559,4.975,4.616,6.543a11.279,11.279,0,0,1,2.3,2.051,10.536,10.536,0,0,1-.652,3.2c-.718,2.432-1.613,5.46.111,7.828,1.737,2.388,4.91,2.468,7.459,2.533a10.931,10.931,0,0,1,3.184.342,10.822,10.822,0,0,1,1.294,2.894c.852,2.423,1.911,5.438,4.749,6.36a5,5,0,0,0,1.558.249c2.136,0,4.086-1.34,5.846-2.549a10.374,10.374,0,0,1,2.911-1.637,10.362,10.362,0,0,1,2.913,1.637c2.179,1.5,4.65,3.19,7.4,2.3,2.837-.922,3.9-3.936,4.748-6.359a11.032,11.032,0,0,1,1.281-2.885,10.684,10.684,0,0,1,3.2-.352c2.549-.065,5.722-.145,7.459-2.533,1.725-2.37.83-5.4.111-7.83a10.834,10.834,0,0,1-.658-3.179,10.887,10.887,0,0,1,2.307-2.071c2.056-1.569,4.615-3.521,4.615-6.543S64.2,39.6,62.138,38.032ZM45.774,39.588,31.867,53.5a2.781,2.781,0,0,1-3.933,0h0L20.98,46.542a2.781,2.781,0,1,1,3.883-3.983l.05.05L29.9,47.6,41.841,35.655a2.781,2.781,0,1,1,3.983,3.883Z" transform="translate(0 -12.575)" />
</svg>
