<svg xmlns="http://www.w3.org/2000/svg" width="69.568" height="64" viewBox="0 0 69.568 64">
  <path fill="#fff" d="M69.032,78.1,38.593,22.734a4.354,4.354,0,0,0-7.619,0L.535,78.1a4.267,4.267,0,0,0,.07,4.26,4.3,4.3,0,0,0,3.743,2.131H65.22A4.323,4.323,0,0,0,69.032,78.1ZM34.1,42.807a4.2,4.2,0,0,1,.693-.058A4.161,4.161,0,0,1,38.9,46.2a4.062,4.062,0,0,1,0,1.361l-2.744,16.3a1.39,1.39,0,0,1-1.369,1.152,1.3,1.3,0,0,1-.231-.019,1.383,1.383,0,0,1-1.144-1.133l-2.744-16.3A4.132,4.132,0,0,1,34.1,42.807Zm.687,33.333a4.174,4.174,0,1,1,4.174-4.174A4.179,4.179,0,0,1,34.784,76.14Z" transform="translate(0 -20.488)" />
</svg>
