<svg xmlns="http://www.w3.org/2000/svg" width="121.363" height="64" viewBox="0 0 121.363 64">
  <g transform="translate(0 -121)">
    <g transform="translate(-0.001 121)">
      <g transform="translate(0 0)">
        <path fill="#fff" d="M120.456,150.628C119.373,149.42,93.317,121,60.681,121S1.989,149.42.906,150.628a3.556,3.556,0,0,0,0,4.743C1.989,156.58,28.046,185,60.681,185s58.692-28.42,59.775-29.628A3.557,3.557,0,0,0,120.456,150.628Zm-59.775,27.26A24.889,24.889,0,1,1,85.57,153,24.919,24.919,0,0,1,60.681,177.889Z" transform="translate(0.001 -121)" />
      </g>
    </g>
    <g transform="translate(42.903 135.222)">
      <g transform="translate(0 0)">
        <path fill="#fff" d="M202.333,191.667a10.633,10.633,0,0,1,4.477-8.659A17.549,17.549,0,0,0,198.778,181a17.778,17.778,0,1,0,17.475,20.774A10.6,10.6,0,0,1,202.333,191.667Z" transform="translate(-181 -181)" />
      </g>
    </g>
  </g>
</svg>
