<svg xmlns="http://www.w3.org/2000/svg" width="596.241" height="158.25" viewBox="0 0 596.241 158.25">
 <g transform="translate(-640 -360)">
  <g>
   <path id="Subtraction_7" d="M-315.875,1626.25a79.716,79.716,0,0,1-15.947-1.608,78.718,78.718,0,0,1-14.853-4.61,79.127,79.127,0,0,1-13.441-7.3,79.7,79.7,0,0,1-11.71-9.662,79.7,79.7,0,0,1-9.662-11.71,79.13,79.13,0,0,1-7.3-13.441,78.721,78.721,0,0,1-4.61-14.852A79.709,79.709,0,0,1-395,1547.125a79.711,79.711,0,0,1,1.608-15.947,78.728,78.728,0,0,1,4.61-14.853,79.131,79.131,0,0,1,7.3-13.441,79.695,79.695,0,0,1,9.662-11.71,79.7,79.7,0,0,1,11.71-9.662,79.133,79.133,0,0,1,13.441-7.3,78.735,78.735,0,0,1,14.853-4.61A79.717,79.717,0,0,1-315.875,1468a79.715,79.715,0,0,1,15.946,1.608,78.736,78.736,0,0,1,14.853,4.61,79.139,79.139,0,0,1,13.44,7.3,79.708,79.708,0,0,1,11.71,9.662,79.7,79.7,0,0,1,9.662,11.71,79.132,79.132,0,0,1,7.3,13.441,78.729,78.729,0,0,1,4.61,14.853,79.712,79.712,0,0,1,1.608,15.947,79.709,79.709,0,0,1-1.608,15.946,78.726,78.726,0,0,1-4.61,14.852,79.131,79.131,0,0,1-7.3,13.441,79.7,79.7,0,0,1-9.662,11.71,79.7,79.7,0,0,1-11.71,9.662,79.131,79.131,0,0,1-13.44,7.3,78.719,78.719,0,0,1-14.853,4.61A79.713,79.713,0,0,1-315.875,1626.25Zm25.948-61.718a6.579,6.579,0,0,0-6.571,6.572,6.579,6.579,0,0,0,6.571,6.572,6.579,6.579,0,0,0,6.572-6.572A6.579,6.579,0,0,0-289.927,1564.531Zm-49.885-46.537v57.366l14.742-5.188v-10.3a19.749,19.749,0,0,0,4.955,2.13,21.026,21.026,0,0,0,5.6.746,24.211,24.211,0,0,0,9.132-1.714,21.1,21.1,0,0,0,7.183-4.783,21.549,21.549,0,0,0,4.7-7.312,25.443,25.443,0,0,0,1.685-9.3,25.389,25.389,0,0,0-1.685-9.294,21.467,21.467,0,0,0-4.7-7.3,21.086,21.086,0,0,0-7.183-4.767,24.3,24.3,0,0,0-9.132-1.707,20,20,0,0,0-13.286,4.859l-1.868-3.44h-10.142Zm23.3,31.553a9.583,9.583,0,0,1-6.94-2.821,10.035,10.035,0,0,1-2.751-7.086,10.035,10.035,0,0,1,2.751-7.086,9.583,9.583,0,0,1,6.94-2.821,9.583,9.583,0,0,1,6.94,2.821,10.034,10.034,0,0,1,2.751,7.086,10.023,10.023,0,0,1-2.764,7.086A9.582,9.582,0,0,1-316.51,1549.547Z" transform="translate(1035 -1108)" fill="currentColor"/>
  </g>
  <path d="M401.583-25.728a7.626,7.626,0,0,1-7.626,7.626,7.625,7.625,0,0,1-7.625-7.626,7.626,7.626,0,0,1,7.625-7.626,7.626,7.626,0,0,1,7.626,7.626" transform="translate(640 518.25)" fill="currentColor"/>
  <path d="M272.294-102.549c0-11.852,8.971-20.368,21.437-20.368,12.425,0,21.436,8.516,21.436,20.368,0,11.812-9.011,20.371-21.436,20.371-12.466,0-21.437-8.559-21.437-20.371m29.682,0c0-5.025-3.443-8.539-8.245-8.539s-8.245,3.483-8.245,8.539,3.443,8.539,8.245,8.539,8.245-3.484,8.245-8.539" transform="translate(640 518.25)" fill="currentColor"/>
  <path d="M369.414-99.845v-21.82h13.17v21.248c0,4.035,2.169,6.409,5.688,6.409s5.646-2.414,5.646-6.409v-21.248h13.169v21.82c0,10.7-7.521,17.667-18.815,17.667s-18.858-6.969-18.858-17.667" transform="translate(640 518.25)" fill="currentColor"/>
  <path d="M596.241-105.9v21.82h-13.17V-105.33c0-4.035-2.169-6.409-5.688-6.409s-5.646,2.414-5.646,6.409v21.248H558.568V-105.9c0-10.7,7.521-17.668,18.815-17.668s18.858,6.97,18.858,17.668" transform="translate(640 518.25)" fill="currentColor"/>
  <path d="M433.794-82.179c-12.261,0-21.112-8.591-21.112-20.422s8.809-20.257,21.153-20.257c10.745,0,18.8,6.774,20.243,16.943H441.25a7.763,7.763,0,0,0-7.457-5.143c-4.627,0-7.921,3.516-7.921,8.5s3.334,8.58,7.921,8.58a7.705,7.705,0,0,0,7.486-5.579h12.94c-1.489,10.384-9.659,17.381-20.426,17.381Z" transform="translate(640 518.25)" fill="currentColor"/>
  <path d="M485.347-94.966v11.535h-9.061c-8.455,0-13.594-5.169-13.594-13.665v-14.428h-7V-114.6l17.13-18.243h2.7v11.179h9.605v10.141h-9.273v12.168a4.056,4.056,0,0,0,4.432,4.39Z" transform="translate(640 518.25)" fill="currentColor"/>
  <path d="M491.5-83.432h13.17v-38.233H491.5Z" transform="translate(640 518.25)" fill="currentColor" fill-rule="evenodd"/>
  <path d="M510.73-102.549c0-11.852,8.971-20.368,21.437-20.368,12.425,0,21.436,8.516,21.436,20.368,0,11.812-9.011,20.371-21.436,20.371-12.466,0-21.437-8.559-21.437-20.371m29.682,0c0-5.025-3.443-8.539-8.245-8.539s-8.246,3.483-8.246,8.539,3.444,8.539,8.246,8.539,8.245-3.484,8.245-8.539" transform="translate(640 518.25)" fill="currentColor"/>
  <path d="M243.191-37.67c0-11.851,8.971-20.368,21.437-20.368,12.425,0,21.436,8.517,21.436,20.368,0,11.812-9.011,20.372-21.436,20.372-12.466,0-21.437-8.56-21.437-20.372m29.683,0c0-5.024-3.444-8.539-8.246-8.539s-8.245,3.484-8.245,8.539,3.443,8.539,8.245,8.539,8.246-3.484,8.246-8.539" transform="translate(640 518.25)" fill="currentColor"/>
  <path d="M289.929-37.67c0-11.852,8.971-20.368,21.437-20.368,12.425,0,21.436,8.516,21.436,20.368,0,11.812-9.011,20.371-21.437,20.371-12.465,0-21.436-8.559-21.436-20.371m29.682,0c0-5.024-3.444-8.538-8.245-8.538s-8.246,3.483-8.246,8.538,3.444,8.54,8.245,8.54,8.246-3.484,8.246-8.54" transform="translate(640 518.25)" fill="currentColor"/>
  <path d="M360.234-18.552,350.658-34.72v16.168H337.489V-70.593h13.169v28.786l9.107-14.979h14.788L362.638-38.564l13.121,20.012Z" transform="translate(640 518.25)" fill="currentColor"/>
  <path d="M270.172-121.847c-.006,0-24.931-6.365-24.9,17.2v21.212h13.169v-19.443c0-4.877,1.953-6.922,6.615-6.922h5.113Z" transform="translate(640 518.25)" fill="currentColor"/>
  <path d="M219.643-123.564a17.593,17.593,0,0,0-11.656,4.262l-1.638-3.017h-8.9v50.327l12.933-4.553v-9.031a17.762,17.762,0,0,0,9.259,2.522c11.614,0,19.915-8.442,19.915-20.275s-8.3-20.235-19.915-20.235m-1.749,28.926a8.358,8.358,0,0,1-8.5-8.691,8.358,8.358,0,0,1,8.5-8.692,8.358,8.358,0,0,1,8.5,8.692,8.375,8.375,0,0,1-8.5,8.691" transform="translate(640 518.25)" fill="currentColor"/>
  <path d="M362.187-103.6v-30.329l-13.02,4.582v8.055a20.944,20.944,0,0,0-6.2-1.487,18.827,18.827,0,0,0-3.118-.266c-11.692,0-20.048,8.5-20.048,20.412a21.1,21.1,0,0,0,3.753,12.363,21.043,21.043,0,0,0,17.63,9.548c11.639,0,21.074-6.3,21.074-21.073,0-.566-.041-1.122-.085-1.677.005-.044.011-.084.016-.128M340.952-92.655a8.406,8.406,0,0,1-8.559-8.72,8.413,8.413,0,0,1,8.559-8.679,8.4,8.4,0,0,1,8.558,8.679,8.407,8.407,0,0,1-8.558,8.72" transform="translate(640 518.25)" fill="currentColor"/>
  <path d="M219.822-58.512a17.808,17.808,0,0,0-9.438,2.618V-67.265l-12.933,4.553v43.366h9.681l1.234-2.82A17.631,17.631,0,0,0,219.822-18.1c11.695,0,19.956-8.4,19.956-20.205s-8.261-20.2-19.956-20.2m-1.75,28.825a8.34,8.34,0,0,1-8.5-8.621,8.351,8.351,0,0,1,8.5-8.663,8.351,8.351,0,0,1,8.5,8.663,8.358,8.358,0,0,1-8.5,8.621" transform="translate(640 518.25)" fill="currentColor"/>
  <path d="M491.6-126.1h12.968v-11.176H491.6Z" transform="translate(640 518.25)" fill="currentColor" fill-rule="evenodd"/>
 </g>
</svg>
