<svg xmlns="http://www.w3.org/2000/svg" width="400" height="200.292" viewBox="0 0 400 200.292">
  <defs>
    <linearGradient id="linear-gradient" x1="0.144" y1="0.845" x2="1.423" y2="-0.832" gradientUnits="objectBoundingBox">
      <stop offset="0" stop-color="#ec7b35"/>
      <stop offset="1" stop-color="#fa9c55"/>
    </linearGradient>
  </defs>
  <g id="Group_100972" transform="translate(-8434 -6514)">
    <rect id="Rectangle_8263" width="400" height="200" transform="translate(8434 6514)" fill="#fff"/>
    <g id="Group_100651" transform="translate(8434 6574.292)">
      <path id="Path_376775" d="M944.246,449.514v21.52H938.8v-8.88H915.811v45.81h49.583V449.514l-7.176-1.921Z" transform="translate(-703.956 -412.892)" fill="#464662"/>
      <path id="Path_376776" d="M1089.827,507.965h-7.176V447.593l7.176,1.921Z" transform="translate(-829.747 -412.892)" fill="#010143"/>
      <rect id="Rectangle_7884" width="5.084" height="8.88" transform="translate(230.488 49.279)" fill="#a0d9f2"/>
      <path id="Path_376777" d="M1075.6,561.765h-16.794l-5.092-7.93h16.794Z" transform="translate(-808.342 -491.775)" fill="#845151"/>
      <path id="Path_376778" d="M917.76,576.641H900.082l-5.36-8.347H912.4Z" transform="translate(-686.427 -502.557)" fill="#844c73"/>
      <rect id="Rectangle_7885" width="17.677" height="15.566" transform="translate(213.456 73.844)" fill="#f2fbfc"/>
      <path id="Path_376779" d="M878.993,568.293l-5.36,8.347v15.566h10.721V576.64Z" transform="translate(-669.705 -502.695)" fill="#c8e9f7"/>
      <rect id="Rectangle_7886" width="16.794" height="19.739" transform="translate(250.317 69.72)" fill="#f2fbfc"/>
      <rect id="Rectangle_7887" width="17.44" height="52.13" transform="translate(380.254 42.783)" fill="#464662"/>
      <rect id="Rectangle_7888" width="14.03" height="45.81" transform="translate(366.224 48.994)" fill="#c8e9f7"/>
      <rect id="Rectangle_7889" width="26.364" height="68.752" transform="translate(339.861 26.509)" fill="#464662"/>
      <rect id="Rectangle_7890" width="6.168" height="52.13" transform="translate(313.019 94.913) rotate(180)" fill="#c8e9f7"/>
      <path id="Path_376780" d="M1499.7,529.664l-5.643,9.824v24.744h11.285V539.487Z" transform="translate(-1148.91 -473.97)" fill="#f2fbfc"/>
      <rect id="Rectangle_7891" width="32.962" height="58.451" transform="translate(274.93 36.583)" fill="#464662"/>
      <path id="Path_376781" d="M1337.581,312.33l17.527-2.339,7.078,2.339v93.785h-24.6Z" transform="translate(-1026.296 -309.991)" fill="#464662"/>
      <path id="Path_376782" d="M1413.613,406.115h-7.078V309.991l7.078,2.339Z" transform="translate(-1083.633 -309.991)" fill="#010143"/>
      <path id="Path_376783" d="M1333.524,510.366h13.687l5.9-8.017h-13.687Z" transform="translate(-1022.837 -453.394)" fill="#1d1d5d"/>
      <path id="Path_376784" d="M1540.507,539.487H1521.9l-5.642-9.824h18.608Z" transform="translate(-1165.467 -473.768)" fill="#845151"/>
      <path id="Path_376785" d="M397.694,623.794v-67.51c-9.77-.727-21.929,6.375-35.978,6.375-16.349,0-24.141-7.767-40.466-13.239-13.948-4.675-28.354-4.083-43.1.7-13.41,4.349-28.407,12.226-41.886,17.341-13.978,5.305-28.645,5.3-42.961,2.882-14.336-2.421-24.679-6.236-39.571-6.236a78.3,78.3,0,0,0-26.2,4.151c-6.906,2.4-13.537,5.975-20.494,8.144-14.163,4.417-27.009,2.942-41.3.491-14.612-2.5-27.843-7.939-45.509-7.755A71.616,71.616,0,0,0,0,572.32v51.473Z" transform="translate(0 -486.929)" fill="#010143"/>
      <ellipse id="Ellipse_2151" cx="1.427" cy="1.933" rx="1.427" ry="1.933" transform="translate(300.013 54.966)" fill="#1e2859"/>
      <path id="Path_376786" d="M1189.557,389.244v0Z" transform="translate(-887.194 -348.587)" fill="url(#linear-gradient)"/>
      <path id="Path_376787" d="M11.266,2.084,15.674.258,5.031,4.666.622,6.492Z" transform="translate(301.17 35.092) rotate(-67.5)" fill="#fff"/>
      <rect id="Rectangle_7892" width="16.268" height="47.65" transform="translate(318.306 42.823)" fill="#f2fbfc"/>
      <rect id="Rectangle_7893" width="10.574" height="47.65" transform="translate(334.574 42.823)" fill="#c8e9f7"/>
      <rect id="Rectangle_7894" width="42.799" height="4.216" transform="translate(350.689 86.836)" fill="#fff"/>
      <path id="Path_376788" d="M1535.21,652.419h19.009l7.15-11.134h-19.01Z" transform="translate(-1164.223 -559.392)" fill="#c8e9f7"/>
      <rect id="Rectangle_7895" width="19.009" height="23.176" transform="translate(397.147 119.117) rotate(180)" fill="#f2fbfc"/>
      <path id="Path_376789" d="M1617.146,641.284l7.15,12.08v25.144H1610V653.364Z" transform="translate(-1235.379 -559.392)" fill="#1d1d5d"/>
      <path id="Path_376790" d="M1509.034,603.794c-5.644.977-8.576,12.777-9.393,16.228-1,4.223-3.025,18.362-7.572,18.82-2.939.3-4.615-3.408-8.457-2.643-5.76,1.146-6.049,10.6-9.6,18.983-1.567,3.7-5.12,8.828-8.08,8.2-3.221-.678-4.308-4.111-7.785-4.573-4.1-.545-10.07,6.008-14.466,12.082h65.243l.108-.158Z" transform="translate(-1109.034 -533.523)" fill="#464662"/>
      <path id="Path_376791" d="M1250.2,619.1c.792-.888,1.42-2.532.466-3.72-.813-1.013-3.41-.786-4.321-1.767-.788-.849.263-3.2-.668-4.642-.816-1.261-3-.849-6.325.841-1.754.891-2.981,1.848-4.562,1.494-1.065-.239-1.039-1.473-2.107-2.006-1.928-.962-4.74,1.637-6.348.464-1.586-1.157-.3-4.243-2.007-5.506-2.01-1.486-5.375.919-6.8,2.449-1.838,1.974-2.585,4.268-4.4,6.03-2.266,2.2-3.667-.57-6.021.143-1.283.389-2.062,2.678-3.485,2.376-1.046-.222-1.164-2.085-1.855-2.744-.937-.894-1.579-.76-2.768-.224-1.445.651-5.93,4.3-6.006,6.811Z" transform="translate(-917.636 -529.089)" fill="#464662"/>
      <path id="Path_376792" d="M1684.749,837.584v-8.591a18.466,18.466,0,0,0-2.763,3.507,42.142,42.142,0,0,0-2.7,5.084Z" transform="translate(-1287.055 -697.584)" fill="#fff"/>
      <path id="Path_376793" d="M1456.141,648.128c.367-1.252.509-4.136-.8-4.933-1.561-.953-4.3,2.053-6.389,2.269-1.862.193-2.921-1.211-4.761-.654a12.066,12.066,0,0,0-5.237,3.318Z" transform="translate(-1107.815 -558.225)" fill="#367ad1"/>
      <rect id="Rectangle_7896" width="10.574" height="1.302" transform="translate(345.148 44.43) rotate(180)" fill="#f2fbfc"/>
      <rect id="Rectangle_7897" width="8.824" height="21.639" transform="translate(357.4 28.037)" fill="#a0d9f2"/>
      <path id="Path_376794" d="M667.68,773.61c-.537-3.145-2.4-7.891-8.947-8.22-5.661-.284-15.556,3.637-19.318,2.338-3.857-1.332-2.9-5.716-6.609-8.262-3.206-2.2-12.269,1.021-13.319-.71-.919-1.514,2.348-4.689,2.034-6.928-.8-5.674-9.117-2.529-12.946-.485-2.5,1.336-5.285,3.219-8.236,3.464-3.1.258-5.828-1.571-7.464-2.226-6.465-2.589-12.684,1.065-17.564,3.923-6.383,3.738-13.36,6.409-21.1,5.694-4.024-.372-11.963-1.565-16.829-.953-9.4,1.183-17.774,8.492-20.485,12.365Z" transform="translate(-401.536 -637.237)" fill="#fff"/>
      <path id="Path_376795" d="M39.482,725.685c1.025-2.616.025-8.1-2-10.8-2.93-3.9-8.609-4.705-12.772-2.664-6.128,3.006-1.495-8.549-5.38-10.24-4.118-1.793-7.676,4-9.879,2.338-2.312-1.745.881-8.626-.695-13.3-1.641-4.869-5.88-7.691-8.758-7.067v41.736Z" transform="translate(0 -589.199)" fill="#464662"/>
      <path id="Path_376796" d="M1057.816,658.328a.115.115,0,0,0,0-.027v0C1057.814,658.313,1057.815,658.32,1057.816,658.328Z" transform="translate(-810.352 -572.494)" fill="#fff"/>
      <path id="Path_376797" d="M322.682,598.857c-5.043-1.22-22.634-5.059-32.9-7.212-10.375-2.175-25.527-5.686-29.817-7.027-9.143-2.859-15.151-4.647-15.151-7.194,0-2.484,5.5-4.458,7.045-5.145,3.48-1.548,7.042-2.8,10.605-4,6.4-2.144,17.109-5.376,23.511-7.524a70.019,70.019,0,0,0,10.7-4.548c2.7-1.553,3.637-2.947,3.637-4.062,0-1.885-2.277-2.724-3.876-3.158a53.839,53.839,0,0,0-6.7-1.13c-1.05.131-1.94.241-2.994.434,2.1.249,4.7.755,6.188,1.054,1.47.295,5.484,1.184,5.484,2.637,0,1.668-5.362,3.822-7.967,4.862-2.63,1.049-6.917,2.331-12.837,4.122-7.391,2.236-16.034,4.816-18.274,5.559-5.022,1.665-19.093,5.557-19.093,10.888,0,4.544,5.88,7,13.083,9.549a197.33,197.33,0,0,0,22.958,6.45c8.546,1.921,18.205,3.772,29.4,6.212,5.563,1.212,27.231,5.094,27.315,10.308.079,4.888-20.7,9.786-30.277,12.035a222.788,222.788,0,0,1-51.6,5.8c-57.515,0-204.987-.012-251.122-.006v4.642H266.751a228.745,228.745,0,0,0,43.771-4.636c1.03-.226,1.939-.441,2.714-.643,9.519-2.47,27.513-9.364,27.513-17.526C340.748,604.077,329.358,600.472,322.682,598.857ZM336,609.791a.184.184,0,0,1,.005-.049C336,609.759,336,609.775,336,609.791Z" transform="translate(0 -492.408)" fill="#fff"/>
      <g id="Group_100622" transform="translate(53.851 92.564)">
        <g id="Group_100613" transform="translate(3.353)">
          <path id="Path_376798" d="M228.071,377.253c-1,.308.5,2.219.63,3.884s-1.063,2.62-.756,3.884c.5,2.05,1.149,2.11.881,3.19-.756,3.051.126,7.074,1.511,10.819s3.274,6.1,3.4,2.5,2.9-11.373,1.637-12.483-3.526-1.387-3.274-3.19-.252-2.358-1.007-3.606S231.219,376.282,228.071,377.253Z" transform="translate(-227.73 -377.123)" fill="#022c43"/>
          <g id="Group_100612" transform="translate(1.227 0.928)">
            <path id="Path_376799" d="M241.245,403.142c-.373-4.651-3.74-19.111-3.774-19.257l.244-.069c.034.146,3.407,14.628,3.781,19.3Z" transform="translate(-237.471 -383.816)" fill="#053f5e"/>
          </g>
        </g>
        <path id="Path_376800" d="M214.674,469.853c-1.793-7.675-7.867-9.548-7.867-9.548-.1,7.071,4.936,14.231,4.936,14.231S216.467,477.528,214.674,469.853Z" transform="translate(-206.087 -447.236)" fill="#fff"/>
        <g id="Group_100614" transform="translate(1.348 13.698)">
          <path id="Path_376801" d="M211.807,464.305s6.074,1.872,7.867,9.548-2.931,4.683-2.931,4.683S211.707,471.376,211.807,464.305Z" transform="translate(-211.805 -464.305)" fill="#55827b"/>
          <path id="Path_376802" d="M222.339,480.44l-.111-3.485-.126,0,.1,3.2c-.367-.87-.823-1.825-1.315-2.791l-.231-3.315-.126.011.21,3.019c-.522-1.014-1.077-2.032-1.6-2.969l-.967-2.883-.118.048.755,2.251c-1.1-1.93-2-3.4-2.1-3.55l-.1.078c.03.049,1.525,2.475,3.055,5.281l-2.4-1.678-.068.117,2.611,1.826c.652,1.2,1.3,2.464,1.839,3.628l-2.448-1.64-.065.119,2.572,1.722.019-.034a21.025,21.025,0,0,1,.977,2.471l-2.007-1.2-.06.122,2.123,1.271a5.148,5.148,0,0,1,.179.872l.125-.015a9.843,9.843,0,0,0-.741-2.479Z" transform="translate(-216.004 -469.193)" fill="#d4cedb"/>
        </g>
        <g id="Group_100616" transform="translate(6.058 3.724)">
          <path id="Path_376803" d="M250.368,427.844c-1.1-.692-1.637-7.906-.63-8.877s3.07-3.892,2.9-4.993c-.5-3.19.63-3.606,1.511-4.716s1.133-5.548,2.644-5.271-.126,4.3,0,5.271,1.511,1.664.252,3.745.5,2.5-.5,4.993c-.44,1.09-.252,3.329-.755,4.854S252.131,428.953,250.368,427.844Z" transform="translate(-249.205 -403.975)" fill="#053f5e"/>
          <g id="Group_100615" transform="translate(2.962 1.08)">
            <path id="Path_376804" d="M272.981,433.43l-.252-.014c.41-8.674,4.088-21.525,4.125-21.654l.24.084C277.057,411.974,273.389,424.792,272.981,433.43Z" transform="translate(-272.729 -411.762)" fill="#022c43"/>
          </g>
        </g>
        <path id="Path_376805" d="M279.854,516.049c-2.995,4.85.976,4.07.976,4.07s5.136-3.6,6.674-8.548A8.729,8.729,0,0,0,279.854,516.049Z" transform="translate(-268.96 -490.988)" fill="#022c43"/>
        <g id="Group_100617" transform="translate(9.524 19.659)">
          <path id="Path_376806" d="M285.5,505.571a8.729,8.729,0,0,0-7.65,4.478c-2.995,4.85.976,4.07.976,4.07S283.965,510.523,285.5,505.571Z" transform="translate(-276.736 -505.565)" fill="#557882"/>
          <path id="Path_376807" d="M283.618,513.888l.87-2.4.087.038-.8,2.2c.453-.5.988-1.044,1.55-1.581l.915-2.245.085.042-.833,2.044c.594-.562,1.212-1.118,1.791-1.625l1.329-1.741.071.066-1.038,1.359c1.2-1.041,2.167-1.813,2.268-1.893l.055.083c-.032.026-1.625,1.3-3.329,2.835l2.053-.506.02.1-2.234.551c-.728.658-1.467,1.357-2.106,2.019l2.078-.466.019.1-2.182.49-.006-.029a14.257,14.257,0,0,0-1.243,1.451l1.671-.283.014.1-1.768.3a3.566,3.566,0,0,0-.323.558l-.084-.045a6.761,6.761,0,0,1,1.08-1.522Z" transform="translate(-281.819 -507.798)" fill="#d4cedb"/>
        </g>
        <g id="Group_100618" transform="translate(0 20.628)">
          <path id="Path_376808" d="M201.1,512.1a7.917,7.917,0,0,1,7.285,4.771c2.467,5.1-2.471,2.918-2.471,2.918S202.982,518.451,201.1,512.1Z" transform="translate(-201.099 -512.094)" fill="#557882"/>
          <path id="Path_376809" d="M213.09,522.29a5.474,5.474,0,0,0-.774-1.4l-.851-2.5-.084.035.758,2.225a17.553,17.553,0,0,0-1.289-1.481l-.373-1.962-.088.02.347,1.823c-.406-.417-.821-.815-1.211-1.174l-.4-1.664-.087.025.367,1.529c-.94-.859-1.706-1.471-1.783-1.532l-.053.08c.022.018,1.089.872,2.281,2l-1.834-.752-.031.093,2.055.843h0c.5.48,1.006,1,1.463,1.528l-2.05-.679-.026.095,2.2.728a11.363,11.363,0,0,1,.851,1.12l-1.941-.851-.033.092,2.068.907a4.29,4.29,0,0,1,.431.88Z" transform="translate(-206.755 -515.642)" fill="#d4cedb"/>
        </g>
        <g id="Group_100619" transform="translate(7.409 18.302)">
          <path id="Path_376810" d="M259.94,506.19s2.323-6.968,4.794-8.165a3.1,3.1,0,0,0,1.779-1.96s1.384,7.185-4.448,10.125Z" transform="translate(-259.94 -496.065)" fill="#55827b"/>
          <path id="Path_376811" d="M269.449,509.642l-.057-.089-1.23.959a30.529,30.529,0,0,0,1.451-2.8l-.089-.047a32.162,32.162,0,0,1-2.186,4l.549-2.494-.1-.026-.607,2.758c-.315.482-.658.976-1.026,1.465l.346-2.022-.1-.02-.378,2.214c-.39.509-.806,1.01-1.247,1.486l.436-1.825-.1-.028-.478,2c-.209.22-.423.435-.643.641l.064.083a17.613,17.613,0,0,0,1.448-1.547l2.045-.784-.032-.1-1.873.718c.42-.514.813-1.042,1.175-1.565l1.827-1.232-.052-.093-1.613,1.088c.379-.559.723-1.108,1.027-1.622Z" transform="translate(-263.49 -506.059)" fill="#d4cedb"/>
        </g>
        <rect id="Rectangle_7899" width="9.444" height="11.096" transform="translate(12.887 39.66) rotate(-180)" fill="#053f5e"/>
        <rect id="Rectangle_7900" width="4.281" height="11.096" transform="translate(13.894 39.66) rotate(-180)" fill="#022c43"/>
        <g id="Group_100620" transform="translate(3.821 28.792)">
          <rect id="Rectangle_7901" width="0.252" height="3.329" fill="#022c43"/>
        </g>
        <g id="Group_100621" transform="translate(3.821 33.142)">
          <rect id="Rectangle_7902" width="0.252" height="1.11" fill="#022c43"/>
        </g>
      </g>
      <g id="Group_100631" transform="translate(161.979 108.831)">
        <g id="Group_100624" transform="translate(3.83 1.936)">
          <path id="Path_376812" d="M907.615,514.253c.608.462-.8,1.363-1.239,2.45s.164,2.032-.308,2.8c-.766,1.251-1.216,1.125-1.263,1.92-.133,2.244-1.571,4.723-3.289,6.888s-3.483,3.268-2.81.812.443-8.384,1.522-8.809,2.662-.034,2.871-1.31a2.906,2.906,0,0,1,1.435-2.167C905.3,516.193,905.7,512.8,907.615,514.253Z" transform="translate(-898.56 -513.894)" fill="#053f5e"/>
          <g id="Group_100623" transform="translate(1.532 0.607)">
            <path id="Path_376813" d="M907.478,529.138l-.163-.08c1.233-3.046,6.543-11.922,6.6-12.012l.149.109C914.007,517.244,908.705,526.107,907.478,529.138Z" transform="translate(-907.314 -517.046)" fill="#022c43"/>
          </g>
        </g>
        <g id="Group_100626" transform="translate(3.127)">
          <path id="Path_376814" d="M899.97,503.943c.711.219-.358,1.578-.447,2.761s.756,1.862.537,2.761c-.354,1.458-.817,1.5-.627,2.268.537,2.169-.09,5.029-1.074,7.691s-2.328,4.339-2.417,1.775-2.059-8.086-1.164-8.875,2.507-.986,2.328-2.268a3.11,3.11,0,0,1,.716-2.564C898.359,506.605,897.732,503.252,899.97,503.943Z" transform="translate(-894.545 -503.85)" fill="#022c43"/>
          <g id="Group_100625" transform="translate(1.934 0.66)">
            <path id="Path_376815" d="M905.777,521.014,905.6,521c.266-3.323,2.664-13.619,2.688-13.723l.173.049C908.436,507.427,906.042,517.708,905.777,521.014Z" transform="translate(-905.599 -507.274)" fill="#053f5e"/>
          </g>
        </g>
        <g id="Group_100627" transform="translate(3.701 9.71)">
          <path id="Path_376816" d="M906.244,554.24a8.355,8.355,0,0,0-7.689,5.035c-2.6,5.381,2.608,3.079,2.608,3.079S904.256,560.944,906.244,554.24Z" transform="translate(-897.825 -554.236)" fill="#558266"/>
          <path id="Path_376817" d="M907.724,563.778a5.77,5.77,0,0,1,.816-1.478l.9-2.638.089.037-.8,2.348a18.515,18.515,0,0,1,1.36-1.563l.394-2.071.093.021-.366,1.924c.429-.44.867-.86,1.279-1.239l.421-1.756.092.027L911.613,559c.993-.907,1.8-1.553,1.881-1.617l.056.085c-.023.019-1.15.92-2.407,2.116l1.935-.794.033.1-2.169.89h0c-.524.506-1.062,1.058-1.545,1.613l2.163-.716.027.1-2.322.769a11.992,11.992,0,0,0-.9,1.182l2.048-.9.035.1-2.182.957a4.531,4.531,0,0,0-.455.929Z" transform="translate(-905.992 -556.761)" fill="#d4cedb"/>
        </g>
        <g id="Group_100628" transform="translate(0.317 4.956)">
          <path id="Path_376818" d="M880.845,529.565A11.9,11.9,0,0,0,878.923,540c1.671,6.281,3.876,1.96,3.876,1.96S883.628,534.537,880.845,529.565Z" transform="translate(-878.48 -529.565)" fill="#558266"/>
          <path id="Path_376819" d="M885.028,544.211l-1.258-2.525.091-.055,1.155,2.318c-.073-.788-.116-1.678-.137-2.592l-1.107-2.46.093-.051,1.008,2.24c-.019-.963-.015-1.943,0-2.852l-.419-2.5.1-.021.327,1.949c.04-1.88.119-3.343.127-3.495l.1.007c0,.049-.133,2.466-.143,5.169l1.06-2.307.093.052-1.153,2.51c0,1.157.021,2.354.086,3.43l1.109-2.3.092.054-1.164,2.418-.027-.015a18.027,18.027,0,0,0,.254,2.208l.964-1.786.089.058-1.019,1.89a4.2,4.2,0,0,0,.208.7l-.094.048a8.233,8.233,0,0,1-.424-2.1Z" transform="translate(-882.845 -533.283)" fill="#d4cedb"/>
        </g>
        <rect id="Rectangle_7903" width="9.796" height="11.509" transform="translate(9.869 27.118) rotate(-180)" fill="#053f5e"/>
        <rect id="Rectangle_7904" width="4.441" height="11.509" transform="translate(4.441 27.118) rotate(-180)" fill="#022c43"/>
        <g id="Group_100629" transform="translate(9.214 16.472)">
          <rect id="Rectangle_7905" width="0.261" height="3.453" fill="#022c43"/>
        </g>
        <g id="Group_100630" transform="translate(9.214 20.356)">
          <rect id="Rectangle_7906" width="0.261" height="1.151" fill="#022c43"/>
        </g>
      </g>
      <g id="Group_100641" transform="translate(146.579 89.906)">
        <g id="Group_100633" transform="translate(3.743 0.185)">
          <path id="Path_376820" d="M791.126,386.274c-1.159.358.584,2.574.73,4.5s-1.233,3.038-.876,4.5c.578,2.377,1.332,2.447,1.022,3.7-.876,3.538.146,8.2,1.752,12.546s3.8,7.077,3.943,2.9,3.359-13.189,1.9-14.476-4.089-1.608-3.8-3.7-.292-2.734-1.168-4.182S794.776,385.148,791.126,386.274Z" transform="translate(-790.73 -386.123)" fill="#022c43"/>
          <g id="Group_100632" transform="translate(1.422 1.077)">
            <path id="Path_376821" d="M804.848,415.227c-.432-5.393-4.337-22.162-4.377-22.331l.283-.08c.039.169,3.951,16.964,4.385,22.383Z" transform="translate(-800.471 -392.816)" fill="#053f5e"/>
          </g>
        </g>
        <g id="Group_100634" transform="translate(0 20.182)">
          <path id="Path_376822" d="M765.1,498.684s7.812-.531,11.813,7.735-4.006,4.731-4.006,4.731S768.152,508.984,765.1,498.684Z" transform="translate(-765.099 -498.677)" fill="#466f55"/>
          <path id="Path_376823" d="M783.1,514.29a8.874,8.874,0,0,0-1.254-2.271l-1.38-4.052-.137.056,1.228,3.607a28.465,28.465,0,0,0-2.09-2.4l-.605-3.181-.143.033.562,2.956c-.658-.676-1.332-1.321-1.964-1.9l-.647-2.7-.141.041.594,2.479c-1.525-1.393-2.766-2.386-2.89-2.485l-.086.13c.036.029,1.767,1.413,3.7,3.25l-2.973-1.22-.051.151,3.333,1.367v0c.805.778,1.631,1.625,2.373,2.478l-3.323-1.1-.042.154,3.567,1.181a18.455,18.455,0,0,1,1.38,1.816l-3.147-1.38-.054.15,3.353,1.47a6.944,6.944,0,0,1,.7,1.427Z" transform="translate(-772.826 -503.511)" fill="#d4cedb"/>
        </g>
        <g id="Group_100636" transform="translate(8.777)">
          <path id="Path_376824" d="M826.553,412.655c-1.274-.8-1.9-9.168-.73-10.294s3.56-4.513,3.358-5.79c-.584-3.7.73-4.182,1.752-5.469s1.314-6.434,3.066-6.112-.146,4.986,0,6.112,1.752,1.93.292,4.343.584,2.9-.584,5.79c-.51,1.264-.292,3.86-.876,5.629S828.6,413.941,826.553,412.655Z" transform="translate(-825.205 -384.975)" fill="#053f5e"/>
          <g id="Group_100635" transform="translate(3.435 1.252)">
            <path id="Path_376825" d="M849.021,417.89l-.292-.017c.476-10.058,4.74-24.961,4.783-25.111l.278.1C853.748,393.008,849.494,407.873,849.021,417.89Z" transform="translate(-848.729 -392.762)" fill="#022c43"/>
          </g>
        </g>
        <g id="Group_100637" transform="translate(7.135 14.501)">
          <path id="Path_376826" d="M815.244,464.623a16.276,16.276,0,0,1,4.838,13.97c-1,9.124-4.961,3.7-4.961,3.7S812.426,472.214,815.244,464.623Z" transform="translate(-813.959 -464.623)" fill="#558266"/>
          <path id="Path_376827" d="M822.536,485.866l1.216-3.816-.138-.053-1.117,3.5c-.063-1.11-.189-2.354-.35-3.626l1.021-3.688-.14-.047-.93,3.358c-.175-1.338-.384-2.7-.593-3.952l.06-3.563-.146,0-.047,2.782c-.447-2.595-.861-4.6-.9-4.809l-.142.036c.014.066.7,3.383,1.276,7.125l-1.949-2.928-.118.1,2.121,3.186c.243,1.6.461,3.266.6,4.774l-2.016-2.909-.116.1,2.117,3.056.034-.028a25.393,25.393,0,0,1,.108,3.124l-1.707-2.231-.111.1,1.806,2.36a6,6,0,0,1-.142,1.025l.141.042a11.7,11.7,0,0,0,.149-3.022Z" transform="translate(-818.722 -470.774)" fill="#d4cedb"/>
        </g>
        <g id="Group_100638" transform="translate(11.075 16.626)">
          <path id="Path_376828" d="M840.94,493.023s3.432-10.294,7.082-12.063a4.573,4.573,0,0,0,2.628-2.9s2.044,10.616-6.571,14.958Z" transform="translate(-840.94 -478.065)" fill="#466f55"/>
          <path id="Path_376829" d="M854.163,495.764l-.084-.131-1.817,1.418a45.184,45.184,0,0,0,2.144-4.132l-.132-.069a47.461,47.461,0,0,1-3.229,5.909l.811-3.684-.142-.038-.9,4.074c-.465.712-.972,1.442-1.515,2.164l.51-2.988-.144-.03-.559,3.271c-.576.752-1.191,1.493-1.842,2.195l.645-2.7-.141-.041-.706,2.953c-.309.326-.626.643-.95.947l.095.123a26.007,26.007,0,0,0,2.139-2.285l3.021-1.158-.048-.152-2.768,1.061c.62-.759,1.2-1.54,1.736-2.313l2.7-1.82-.076-.137-2.384,1.607c.56-.826,1.068-1.637,1.517-2.4Z" transform="translate(-845.359 -490.471)" fill="#d4cedb"/>
        </g>
        <rect id="Rectangle_7907" width="10.952" height="12.867" transform="translate(6.037 31.397)" fill="#053f5e"/>
        <rect id="Rectangle_7908" width="4.965" height="12.867" transform="translate(4.869 31.397)" fill="#022c43"/>
        <g id="Group_100639" transform="translate(16.258 31.737)">
          <rect id="Rectangle_7909" width="0.292" height="3.86" fill="#022c43"/>
        </g>
        <g id="Group_100640" transform="translate(16.258 36.705)">
          <rect id="Rectangle_7910" width="0.292" height="1.287" fill="#022c43"/>
        </g>
      </g>
      <path id="Path_376830" d="M261.168,643.065c-15.185,0-28.468.85-35.735,2.119-3.881-1.081-12.2-1.828-21.83-1.828-13.345,0-24.163,1.433-24.163,3.2,0,.969,3.243,1.836,8.368,2.424-.613.254-.945.525-.945.806,0,1.462,8.945,2.648,19.978,2.648,10.837,0,19.659-1.144,19.969-2.57,7.5,1.144,20.088,1.895,34.359,1.895,22.983,0,41.614-1.947,41.614-4.348S284.151,643.065,261.168,643.065Z" transform="translate(-129.379 -513.561)" fill="#022c43"/>
      <ellipse id="Ellipse_2152" cx="26.769" cy="2.12" rx="26.769" ry="2.12" transform="translate(53.035 128.348)" fill="#115173"/>
      <ellipse id="Ellipse_2153" cx="16.359" cy="1.156" rx="16.359" ry="1.156" transform="translate(79.573 127.77)" fill="#022c43"/>
      <path id="Path_376831" d="M46.1,0C71.564,0,92.2,1.941,92.2,4.335S71.564,8.67,46.1,8.67,0,6.729,0,4.335,20.641,0,46.1,0Z" transform="translate(78.574 128.155)" fill="#4a6ca9"/>
      <ellipse id="Ellipse_2154" cx="16.359" cy="1.156" rx="16.359" ry="1.156" transform="translate(130.217 127.192)" fill="#022c43"/>
      <ellipse id="Ellipse_2155" cx="22.133" cy="1.753" rx="22.133" ry="1.753" transform="translate(61.259 133.496)" fill="#4a6ca9"/>
      <ellipse id="Ellipse_2156" cx="16.359" cy="1.156" rx="16.359" ry="1.156" transform="translate(128.389 128.348)" fill="#022c43"/>
      <ellipse id="Ellipse_2157" cx="16.359" cy="1.156" rx="16.359" ry="1.156" transform="translate(59.509 131.312)" fill="#022c43"/>
      <path id="Path_376832" d="M834.431,651.607c.459-.86.213-1.542-.579-1.542a3.3,3.3,0,0,0-2.387,1.542Z" transform="translate(-686.226 -516.604)" fill="#022c43"/>
      <path id="Path_376833" d="M552.43,651.607c.459-.86.213-1.542-.579-1.542a3.3,3.3,0,0,0-2.387,1.542Z" transform="translate(-437.146 -516.604)" fill="#022c43"/>
      <path id="Path_376834" d="M400.43,651.607c.459-.86.213-1.542-.579-1.542a3.3,3.3,0,0,0-2.387,1.542Z" transform="translate(-312.37 -516.604)" fill="#022c43"/>
      <path id="Path_376835" d="M295.059,656.416c.4-.752.186-1.349-.506-1.349a2.886,2.886,0,0,0-2.088,1.349Z" transform="translate(-222.629 -520.626)" fill="#022c43"/>
      <path id="Path_376836" d="M272.948,658.836c.229-.43.106-.771-.289-.771a1.65,1.65,0,0,0-1.193.771Z" transform="translate(-205.303 -523.046)" fill="#022c43"/>
      <path id="Path_376837" d="M285.384,655.708c.451-.846.21-1.517-.57-1.517a3.247,3.247,0,0,0-2.349,1.517Z" transform="translate(-214.379 -519.92)" fill="#022c43"/>
      <path id="Path_376838" d="M410.025,650.956c.86-1.612.4-2.891-1.085-2.891a6.187,6.187,0,0,0-4.475,2.891Z" transform="translate(-318.082 -514.973)" fill="#022c43"/>
      <path id="Path_376839" d="M855.845,648.525c.677-1.27.315-2.277-.855-2.277a4.873,4.873,0,0,0-3.525,2.277Z" transform="translate(-702.727 -513.524)" fill="#022c43"/>
      <path id="Path_376840" d="M503.223,559.6l-5.014-13.556a3.317,3.317,0,0,1,1.593-4.167,2.818,2.818,0,0,1,3.783,1.755,3.655,3.655,0,0,1,.168.634l2.378,14.4a1.672,1.672,0,0,1-1.225,1.95A1.5,1.5,0,0,1,503.223,559.6Z" transform="translate(-426.811 -428.77)" fill="#fff"/>
      <path id="Path_376841" d="M409.961,353.293a4.232,4.232,0,0,0-5.767-2.483l-1.982.956a3.64,3.64,0,0,0-1.893,3.8,1.39,1.39,0,0,0-.027,1.156l.815,1.882a2.225,2.225,0,0,0,3.084,1.2,1.589,1.589,0,0,0,.65-2.023l-.391-.9,5.111-2.465A.89.89,0,0,0,409.961,353.293Z" transform="translate(-318.724 -275.757)" fill="#fff"/>
      <path id="Path_376842" d="M436.588,556.156l-.3-14.634a3.077,3.077,0,0,1,2.835-3.269,3.044,3.044,0,0,1,2.968,3.123,3.738,3.738,0,0,1-.048.658l-2.432,14.391a1.539,1.539,0,0,1-1.775,1.342A1.64,1.64,0,0,1,436.588,556.156Z" transform="translate(-348.952 -426.033)" fill="#fff"/>
      <path id="Path_376843" d="M441.588,556.156l-.3-14.634a3.077,3.077,0,0,1,2.835-3.269,3.044,3.044,0,0,1,2.968,3.123,3.72,3.72,0,0,1-.048.658l-2.432,14.391a1.539,1.539,0,0,1-1.775,1.342A1.64,1.64,0,0,1,441.588,556.156Z" transform="translate(-353.148 -426.033)" fill="#685582"/>
      <path id="Path_376844" d="M426.629,623.919a3.592,3.592,0,1,0-7.164,0Z" transform="translate(-334.863 -492.08)" fill="#fff"/>
      <path id="Path_376845" d="M3.868,0a4.426,4.426,0,0,1,4.083,4.42l.134,5.338a3.9,3.9,0,0,1-3.867,4.2A4.426,4.426,0,0,1,.136,9.543L0,4.2A3.9,3.9,0,0,1,3.868,0Z" transform="translate(89.66 106.163) rotate(16.39)" fill="#fff"/>
      <path id="Path_376846" d="M2.257,0l.911.044A2.683,2.683,0,0,1,5.649,2.572a2.134,2.134,0,0,1-2.254,2.3l-.911-.044A2.683,2.683,0,0,1,0,2.3,2.134,2.134,0,0,1,2.257,0Z" transform="translate(65.047 63.966) rotate(39.447)" fill="#022c43"/>
      <path id="Path_376847" d="M3,0l3.87.063A2.391,2.391,0,0,1,9.3,2.286a3.7,3.7,0,0,1-3.948,3.6L2.067,5.834A2.012,2.012,0,0,1,.022,3.963L0,2.737A2.81,2.81,0,0,1,3,0Z" transform="translate(91.493 76.857) rotate(79.68)" fill="#022c43"/>
      <path id="Path_376848" d="M1.835,0,4.25.089A1.588,1.588,0,0,1,5.8,1.547h0A2.224,2.224,0,0,1,3.383,3.813l-2.05-.075a1.337,1.337,0,0,1-1.3-1.227L0,1.723A1.691,1.691,0,0,1,1.835,0Z" transform="translate(84.798 78.392) rotate(64.496)" fill="#022c43"/>
      <path id="Path_376849" d="M2.658,0l6.9.213A3.069,3.069,0,0,1,12.38,3.257,2.659,2.659,0,0,1,9.724,6.13l-6.9-.213A3.069,3.069,0,0,1,0,2.875,2.659,2.659,0,0,1,2.658,0Z" transform="matrix(0.946, 0.325, -0.325, 0.946, 78.1, 86.981)" fill="#fff"/>
      <path id="Path_376850" d="M2.658,0l6.9.213A3.069,3.069,0,0,1,12.38,3.257,2.659,2.659,0,0,1,9.724,6.13l-6.9-.213A3.069,3.069,0,0,1,0,2.875,2.659,2.659,0,0,1,2.658,0Z" transform="matrix(0.946, 0.325, -0.325, 0.946, 78.1, 85.997)" fill="#022c43"/>
      <path id="Path_376851" d="M508.223,559.6l-5.014-13.556a3.316,3.316,0,0,1,1.593-4.167,2.818,2.818,0,0,1,3.783,1.755,3.65,3.65,0,0,1,.168.634l2.378,14.4a1.672,1.672,0,0,1-1.225,1.95A1.5,1.5,0,0,1,508.223,559.6Z" transform="translate(-430.936 -428.77)" fill="#685582"/>
      <path id="Path_376852" d="M3.868,0a4.426,4.426,0,0,1,4.083,4.42l.134,5.338a3.9,3.9,0,0,1-3.867,4.2A4.426,4.426,0,0,1,.136,9.543L0,4.2A3.9,3.9,0,0,1,3.868,0Z" transform="translate(90.302 106.163) rotate(16.39)" fill="#022c43"/>
      <path id="Path_376853" d="M4.237,0A3.886,3.886,0,0,1,8.1,4.194L7.96,9.527a4.442,4.442,0,0,1-4.094,4.422A3.886,3.886,0,0,1,0,9.756L.144,4.423A4.442,4.442,0,0,1,4.237,0Z" transform="matrix(0.954, -0.3, 0.3, 0.954, 68.163, 107.507)" fill="#022c43"/>
      <ellipse id="Ellipse_2158" cx="6.471" cy="5.85" rx="6.471" ry="5.85" transform="translate(63.043 99.405)" fill="#022c43"/>
      <path id="Path_376854" d="M7.278,0a6.407,6.407,0,0,1,6.51,6.948l-.25,7.015A7.65,7.65,0,0,1,6.515,21.43,6.407,6.407,0,0,1,0,14.481l.25-7.015A7.65,7.65,0,0,1,7.278,0Z" transform="matrix(0.908, -0.419, 0.419, 0.908, 54.735, 90.617)" fill="#fff"/>
      <path id="Path_376855" d="M7.278,0a6.407,6.407,0,0,1,6.51,6.948l-.25,7.015A7.65,7.65,0,0,1,6.515,21.43,6.407,6.407,0,0,1,0,14.481l.25-7.015A7.65,7.65,0,0,1,7.278,0Z" transform="matrix(0.908, -0.419, 0.419, 0.908, 55.785, 90.617)" fill="#c1d8e0"/>
      <path id="Path_376856" d="M2.727,0l7.2.345a3.2,3.2,0,0,1,3,2.975,2.54,2.54,0,0,1-2.724,2.7L3,5.679A3.2,3.2,0,0,1,0,2.7,2.54,2.54,0,0,1,2.727,0Z" transform="matrix(0.677, 0.736, -0.736, 0.677, 69.63, 86.089)" fill="#022c43"/>
      <path id="Path_376857" d="M2.151,0l8.516.251a2.3,2.3,0,0,1,2.28,2.12,1.988,1.988,0,0,1-2.15,1.99L2.281,4.111A2.3,2.3,0,0,1,0,1.991,1.988,1.988,0,0,1,2.151,0Z" transform="translate(77.382 91.831) rotate(-109.614)" fill="#fff"/>
      <path id="Path_376858" d="M2.151,0l8.516.251a2.3,2.3,0,0,1,2.28,2.12,1.988,1.988,0,0,1-2.15,1.99L2.281,4.111A2.3,2.3,0,0,1,0,1.991,1.988,1.988,0,0,1,2.151,0Z" transform="translate(78.025 91.831) rotate(-109.614)" fill="#56466c"/>
      <path id="Path_376859" d="M2.26.285,8.319,0a1.908,1.908,0,0,1,2.057,2.012A2.4,2.4,0,0,1,8.118,4.228L2.059,4.51A1.908,1.908,0,0,1,0,2.5,2.4,2.4,0,0,1,2.26.285Z" transform="matrix(0.626, -0.78, 0.78, 0.626, 67.104, 101.981)" fill="#685582"/>
      <path id="Path_376860" d="M3.379.006C5.207-.07,6.657.575,6.619,1.448S5.068,3.09,3.241,3.166-.037,2.6,0,1.724,1.551.082,3.379.006Z" transform="translate(86.718 91.703) rotate(-58.897)" fill="#8068a0"/>
      <path id="Path_376861" d="M1.989,0a1.776,1.776,0,0,1,1.8,1.925L3.735,3.445A2.108,2.108,0,0,1,1.8,5.507,1.776,1.776,0,0,1,0,3.582L.053,2.063A2.108,2.108,0,0,1,1.989,0Z" transform="translate(86.425 84.631) rotate(-23.648)" fill="#685582"/>
      <path id="Path_376862" d="M4.321,0A3.858,3.858,0,0,1,8.228,4.185l-.113,3.3a4.579,4.579,0,0,1-4.2,4.48A3.858,3.858,0,0,1,0,7.782l.113-3.3A4.579,4.579,0,0,1,4.321,0Z" transform="translate(81.188 78.297) rotate(-23.648)" fill="#8068a0"/>
      <path id="Path_376863" d="M4.067,0A2.921,2.921,0,0,1,7.026,3.169L6.989,4.233a2.835,2.835,0,0,1-2.6,2.774l-1.894.069A2.458,2.458,0,0,1,0,4.411L0,4.33A4.424,4.424,0,0,1,4.067,0Z" transform="translate(81.502 78.715) rotate(-23.648)" fill="#8068a0"/>
      <path id="Path_376864" d="M2,0,7.019.052a1.7,1.7,0,0,1,1.6,1.753A2.728,2.728,0,0,1,5.99,4.694L1.353,4.646A1.434,1.434,0,0,1,.009,3.17L0,2.2A2.073,2.073,0,0,1,2,0Z" transform="translate(83.269 78.249) rotate(5.926)" fill="#56466c"/>
      <path id="Path_376865" d="M.82.265,8.008,0A1.86,1.86,0,0,1,9.892,2.017h0a3.706,3.706,0,0,1-3.4,3.625l-2.2.081A4.232,4.232,0,0,1,0,1.136.89.89,0,0,1,.82.265Z" transform="translate(92.082 78.739) rotate(156.352)" fill="#022c43"/>
      <path id="Path_376866" d="M449.765,467.194l-2.411-2.167.418-3.4,2.411,2.167Z" transform="translate(-358.189 -365.155)" fill="#fff"/>
      <path id="Path_376867" d="M2,0,7.019.052a1.7,1.7,0,0,1,1.6,1.753A2.728,2.728,0,0,1,5.99,4.694L1.353,4.646A1.434,1.434,0,0,1,.009,3.17L0,2.2A2.073,2.073,0,0,1,2,0Z" transform="translate(83.269 77.463) rotate(5.926)" fill="#022c43"/>
      <path id="Path_376868" d="M.8,0,3.647.03a.683.683,0,0,1,.64.7A1.093,1.093,0,0,1,3.235,1.89L.542,1.862A.575.575,0,0,1,0,1.271L0,.88A.831.831,0,0,1,.8,0Z" transform="translate(82.429 79.459) rotate(5.926)" fill="#053f5e"/>
      <path id="Path_376869" d="M.8,0,3.647.03a.683.683,0,0,1,.64.7A1.093,1.093,0,0,1,3.235,1.89L.542,1.862A.575.575,0,0,1,0,1.271L0,.88A.831.831,0,0,1,.8,0Z" transform="translate(84.038 78.673) rotate(5.926)" fill="#053f5e"/>
      <ellipse id="Ellipse_2159" cx="1.137" cy="1.253" rx="1.137" ry="1.253" transform="translate(89.993 80.008)" fill="#8068a0"/>
      <g id="Group_100642" transform="translate(32.347 65.166)">
        <path id="Path_376870" d="M2.877.079,4.546,0,1.669,60.055,0,60.134Z" transform="matrix(0.64, -0.769, 0.769, 0.64, 0, 3.495)" fill="#fff"/>
      </g>
      <g id="Group_100643" transform="translate(31.997 65.359)">
        <path id="Path_376871" d="M2.877.079,4.546,0,1.669,60.055,0,60.134Z" transform="matrix(0.64, -0.769, 0.769, 0.64, 0, 3.495)" fill="#022c43"/>
      </g>
      <path id="Path_376872" d="M2.748.467l14-.466a2.559,2.559,0,0,1,2.57,2.769A2.987,2.987,0,0,1,16.57,5.716l-14,.466A2.559,2.559,0,0,1,0,3.412,2.987,2.987,0,0,1,2.748.467Z" transform="translate(51.306 68.278) rotate(-20.794)" fill="#fff"/>
      <path id="Path_376873" d="M2.748.467l14-.466a2.559,2.559,0,0,1,2.57,2.769A2.987,2.987,0,0,1,16.57,5.716l-14,.466A2.559,2.559,0,0,1,0,3.412,2.987,2.987,0,0,1,2.748.467Z" transform="translate(52.006 68.471) rotate(-20.794)" fill="#022c43"/>
      <path id="Path_376874" d="M292.44,298.894c.875-.578,2.275-1.156,2.624-.385s.35,1.156,0,.771.175-1.156.7-.771,1.225,1.349.875,1.734.875,1.349.525,1.734a4.808,4.808,0,0,1-1.4.771" transform="translate(-228.232 -235.106)" fill="none" stroke="#022c43" stroke-miterlimit="10" stroke-width="2"/>
      <path id="Path_376875" d="M457.49,383.86c0-.439-.235-.8-.525-.8s-.525.356-.525.8a.908.908,0,0,0,.275.695v.251c0,.209.112.379.25.379s.25-.17.25-.379v-.251A.907.907,0,0,0,457.49,383.86Z" transform="translate(-365.78 -302.078)" fill="#fff"/>
      <ellipse id="Ellipse_2160" cx="2.799" cy="3.083" rx="2.799" ry="3.083" transform="translate(92.989 97.947)" fill="#fff"/>
      <ellipse id="Ellipse_2161" cx="2.799" cy="3.083" rx="2.799" ry="3.083" transform="translate(67.061 98.34)" fill="#8068a0"/>
      <ellipse id="Ellipse_2162" cx="2.799" cy="3.083" rx="2.799" ry="3.083" transform="translate(73.366 76.312)" fill="#fff"/>
      <ellipse id="Ellipse_2163" cx="2.799" cy="3.083" rx="2.799" ry="3.083" transform="translate(73.848 76.508)" fill="#685582"/>
      <g id="Group_100644" transform="translate(55.266 63.895)">
        <path id="Path_376876" d="M209.273,330.9l-.083,1.012.647.744.083-1.012Z" transform="translate(-209.19 -325.449)" fill="#053f5e"/>
        <path id="Path_376877" d="M215.347,328.621l-.083,1.012.647.744.083-1.012Z" transform="translate(-214.201 -323.61)" fill="#053f5e"/>
        <path id="Path_376878" d="M216.347,322.621l-.083,1.012.647.744.083-1.012Z" transform="translate(-215.026 -318.766)" fill="#053f5e"/>
        <path id="Path_376879" d="M221.347,326.621l-.083,1.012.647.744.083-1.012Z" transform="translate(-219.151 -321.995)" fill="#053f5e"/>
        <path id="Path_376880" d="M226.347,331.621l-.083,1.012.647.744.083-1.012Z" transform="translate(-223.276 -326.032)" fill="#053f5e"/>
        <path id="Path_376881" d="M227.347,324.621l-.083,1.012.647.744.083-1.012Z" transform="translate(-224.101 -320.381)" fill="#053f5e"/>
        <path id="Path_376882" d="M233.347,322.621l-.083,1.012.647.744.083-1.012Z" transform="translate(-229.052 -318.766)" fill="#053f5e"/>
        <path id="Path_376883" d="M232.347,328.621l-.083,1.012.647.744.083-1.012Z" transform="translate(-228.227 -323.61)" fill="#053f5e"/>
        <path id="Path_376884" d="M240.347,319.621l-.083,1.012.647.744.083-1.012Z" transform="translate(-234.827 -316.344)" fill="#053f5e"/>
        <path id="Path_376885" d="M267.347,309.621l-.083,1.012.647.744.083-1.012Z" transform="translate(-257.103 -308.272)" fill="#053f5e"/>
        <path id="Path_376886" d="M272.347,313.62l-.083,1.012.647.744.083-1.012Z" transform="translate(-261.228 -311.501)" fill="#053f5e"/>
        <path id="Path_376887" d="M268.347,302.621l-.083,1.012.647.744.083-1.012Z" transform="translate(-257.928 -302.621)" fill="#053f5e"/>
        <path id="Path_376888" d="M228.347,318.621l-.083,1.012.647.744.083-1.012Z" transform="translate(-224.926 -315.537)" fill="#053f5e"/>
        <path id="Path_376889" d="M214.588,335.454l-.083,1.012.647.744.083-1.012Z" transform="translate(-213.575 -329.126)" fill="#053f5e"/>
        <path id="Path_376890" d="M210.791,324.824l-.083,1.012.647.744.083-1.012Z" transform="translate(-210.443 -320.545)" fill="#053f5e"/>
      </g>
      <path id="Path_376891" d="M525.63,623.919a3.592,3.592,0,1,0-7.165,0Z" transform="translate(-443.701 -492.08)" fill="#fff"/>
      <path id="Path_376892" d="M616.268,414.351a2.841,2.841,0,0,0-3.866,1.677l-.736,1.865-1.557-4.716a2.945,2.945,0,0,0,.105-.781,2.86,2.86,0,0,0-.528-1.67c0-.022,0-.043,0-.065a2.977,2.977,0,0,0-1.159-2.4l-2.725-3.185a.655.655,0,0,0-.989-.032.827.827,0,0,0-.029,1.09l1.508,1.762a2.872,2.872,0,0,0-1.854,2.764,3.01,3.01,0,0,0,.912,2.188,2.78,2.78,0,0,0,.742,1.516l2.953,8.944a2.106,2.106,0,0,0,1.806,1.5,2.942,2.942,0,0,0,.984.771h0A2.841,2.841,0,0,0,615.7,423.9l2.088-5.29A3.369,3.369,0,0,0,616.268,414.351Z" transform="translate(-473.646 -321.243)" fill="#fff"/>
      <path id="Path_376893" d="M687.881,367.065a4.633,4.633,0,0,0-4.36,3.58c2.33-.065,5.3,1.9,6.694,4.441a6.605,6.605,0,0,1,.435.964,5.191,5.191,0,0,0,1.78-3.974A4.8,4.8,0,0,0,687.881,367.065Z" transform="translate(-539.887 -290.75)" fill="#fff"/>
      <g id="Group_100645" transform="translate(130.794 103.853)">
        <path id="Path_376894" d="M.019.186,13.281,0l-.019,1.228L0,1.414Z" transform="translate(0 13.123) rotate(-81.155)" fill="#fff"/>
      </g>
      <path id="Path_376895" d="M705.212,469.544H692.44l2.034-8.479h12.772Z" transform="translate(-569.146 -364.659)" fill="#fff"/>
      <path id="Path_376896" d="M696.212,469.544H683.44l2.034-8.479h12.772Z" transform="translate(-561.721 -364.659)" fill="#c1d8e0"/>
      <path id="Path_376897" d="M609.112,568.86l-4.59,11.958a.779.779,0,0,1-1.054.471.91.91,0,0,1-.474-1l2.408-12.709a1.964,1.964,0,0,1,2.31-1.666,2.156,2.156,0,0,1,1.512,2.544A2.451,2.451,0,0,1,609.112,568.86Z" transform="translate(-460.723 -448.33)" fill="#c1d8e0"/>
      <path id="Path_376898" d="M649.777,570.7l-3.672,9.566a.623.623,0,0,1-.843.377.727.727,0,0,1-.379-.8l1.927-10.167a1.572,1.572,0,0,1,1.848-1.333,1.725,1.725,0,0,1,1.21,2.035A1.952,1.952,0,0,1,649.777,570.7Z" transform="translate(-507.338 -450.299)" fill="#c1d8e0"/>
      <path id="Path_376899" d="M710.82,567.582l2.408,12.709a.888.888,0,0,1-.623,1.048.791.791,0,0,1-.9-.522l-4.59-11.958a2.236,2.236,0,0,1,1.038-2.818,1.891,1.891,0,0,1,2.558,1.143A2.456,2.456,0,0,1,710.82,567.582Z" transform="translate(-559.475 -448.33)" fill="#fff"/>
      <path id="Path_376900" d="M730.344,569.679l1.927,10.167a.71.71,0,0,1-.5.838.632.632,0,0,1-.724-.418l-3.672-9.567a1.788,1.788,0,0,1,.83-2.254,1.513,1.513,0,0,1,2.047.914A1.987,1.987,0,0,1,730.344,569.679Z" transform="translate(-597.868 -450.299)" fill="#c1d8e0"/>
      <rect id="Rectangle_7911" width="24.67" height="5.203" rx="2.602" transform="translate(109.297 115.632)" fill="#fff"/>
      <rect id="Rectangle_7912" width="4.549" height="7.323" rx="2.274" transform="translate(146.163 83.831)" fill="#022c43"/>
      <g id="Group_100646" transform="translate(130.924 83.131)">
        <path id="Path_376901" d="M2.878,0h0A3.369,3.369,0,0,1,5.972,3.3l.194,5.684A2.841,2.841,0,0,1,3.29,12.063,3.369,3.369,0,0,1,.2,8.765L0,3.081A2.841,2.841,0,0,1,2.878,0Z" transform="translate(9.524 8.634) rotate(23.501)" fill="#022c43"/>
        <path id="Path_376902" d="M2.467,0h0A2.024,2.024,0,0,1,4.5,2.19l-.3,10.122a2.351,2.351,0,0,1-2.163,2.324A2.024,2.024,0,0,1,0,12.447L.3,2.325A2.351,2.351,0,0,1,2.467,0Z" transform="translate(9.915 19.264) rotate(160.014)" fill="#d4cedb"/>
        <ellipse id="Ellipse_2164" cx="2.449" cy="2.698" rx="2.449" ry="2.698" transform="translate(1.21 5.132)" fill="#022c43"/>
        <ellipse id="Ellipse_2165" cx="2.624" cy="2.891" rx="2.624" ry="2.891" transform="translate(0.335 3.205)" fill="#d4cedb"/>
        <path id="Path_376903" d="M.976,0a.655.655,0,0,1,.7.7L1.467,4.988A.827.827,0,0,1,.7,5.761a.655.655,0,0,1-.7-.7L.207.774A.827.827,0,0,1,.976,0Z" transform="matrix(0.728, -0.686, 0.686, 0.728, 0, 1.148)" fill="#ffa4a4"/>
      </g>
      <path id="Path_376904" d="M667.837,463.457h-15.4l2.1-15.369a5.765,5.765,0,0,1,5.468-6.022h0c4.324,0,7.829,3.861,7.829,8.624Z" transform="translate(-513.991 -349.204)" fill="#fff"/>
      <path id="Path_376905" d="M665.288,473.931H654.44l1.479-10.828a4.062,4.062,0,0,1,3.852-4.243h0a5.817,5.817,0,0,1,5.516,6.076Z" transform="translate(-515.536 -362.79)" fill="#c1d8e0"/>
      <path id="Path_376906" d="M3.939.008c2.126-.1,3.81.711,3.76,1.807S5.887,3.881,3.761,3.979-.048,3.268,0,2.172,1.813.106,3.939.008Z" transform="matrix(0.817, -0.577, 0.577, 0.817, 141.252, 96.265)" fill="#c1d8e0"/>
      <rect id="Rectangle_7913" width="3.674" height="5.589" rx="1.837" transform="translate(144.58 88.892)" fill="#8068a0"/>
      <rect id="Rectangle_7914" width="7.982" height="12.141" rx="3.991" transform="translate(142.474 78.627)" fill="#d4cedb"/>
      <path id="Rectangle_7915" d="M3.4,0h.819A2.662,2.662,0,0,1,6.878,2.662v0A4.469,4.469,0,0,1,2.409,7.13H2.24A2.24,2.24,0,0,1,0,4.89V3.4A3.4,3.4,0,0,1,3.4,0Z" transform="translate(142.506 79.591)" fill="#beb1cc"/>
      <rect id="Rectangle_7916" width="12.597" height="9.058" rx="4.529" transform="translate(120.844 108.81)" fill="#022c43"/>
      <path id="Path_376907" d="M.9,0a.789.789,0,0,1,.774.846L1.583,5.259a.873.873,0,0,1-.808.881A.789.789,0,0,1,0,5.293L.088.881A.873.873,0,0,1,.9,0Z" transform="translate(148.295 81.986) rotate(-12.791)" fill="#022c43"/>
      <rect id="Rectangle_7917" width="2.853" height="9.058" rx="1.427" transform="translate(144.61 108.81)" fill="#022c43"/>
      <ellipse id="Ellipse_2166" cx="4.374" cy="4.722" rx="4.374" ry="4.722" transform="translate(132.213 109.013)" fill="#053f5e"/>
      <path id="Path_376908" d="M621.547,551.464l-2.394-14.4a3.189,3.189,0,0,1,2.332-3.721,2.935,2.935,0,0,1,3.378,2.569,3.708,3.708,0,0,1,.047.659l-.343,14.633a1.6,1.6,0,0,1-1.561,1.633A1.577,1.577,0,0,1,621.547,551.464Z" transform="translate(-485.739 -422.029)" fill="#afa3be"/>
      <path id="Path_376909" d="M581.574,553.973l-6.594,2.513a1.65,1.65,0,0,1-2.347-.717h0a1.979,1.979,0,0,1,.957-2.467l5.9-4.105a2.313,2.313,0,0,1,3.211,1.24h0A2.774,2.774,0,0,1,581.574,553.973Z" transform="translate(-435.571 -435.253)" fill="#fff"/>
      <ellipse id="Ellipse_2167" cx="4.899" cy="4.722" rx="4.899" ry="4.722" transform="translate(140.541 109.013)" fill="#053f5e"/>
      <path id="Path_376910" d="M609.866,537.861l12.767-4.066a2.874,2.874,0,0,1,3.594,2.183,3.255,3.255,0,0,1-1.982,3.959,2.8,2.8,0,0,1-.59.117l-13.252,1.09a1.578,1.578,0,0,1-1.631-1.547A1.676,1.676,0,0,1,609.866,537.861Z" transform="translate(-477.39 -422.994)" fill="#d4cedb"/>
      <path id="Path_376911" d="M607.164,619.35c-2.609,0-4.724,1.442-4.724,3.221h9.448C611.888,620.792,609.773,619.35,607.164,619.35Z" transform="translate(-460.28 -491.503)" fill="#fff"/>
      <g id="Group_100647" transform="translate(133.83 80.976)">
        <path id="Path_376912" d="M636.44,393.065l6.6,3.069a2.311,2.311,0,0,1,1.274,2.115V400l-7.873,2.65Z" transform="translate(-634.047 -392.716)" fill="#115173"/>
        <ellipse id="Ellipse_2168" cx="1.984" cy="5.167" rx="1.984" ry="5.167" fill="#053f5e"/>
        <ellipse id="Ellipse_2169" cx="1.487" cy="4.285" rx="1.487" ry="4.285" transform="translate(0.306 0.882)" fill="#022c43"/>
        <rect id="Rectangle_7918" width="1.575" height="7.516" rx="0.787" transform="translate(7.467 5.745)" fill="#115173"/>
      </g>
      <g id="Group_100648" transform="translate(118.045 89.063)">
        <path id="Path_376913" d="M2.9,0a3.452,3.452,0,0,1,3.18,3.276l.252,5.588a2.768,2.768,0,0,1-2.9,2.993A3.452,3.452,0,0,1,.255,8.585L0,3A2.768,2.768,0,0,1,2.9,0Z" transform="translate(11.443 4.666) rotate(35.64)" fill="#053f5e"/>
        <path id="Path_376914" d="M2.6,0h0A1.979,1.979,0,0,1,4.628,2.15L4.237,12.174a2.4,2.4,0,0,1-2.2,2.322A1.979,1.979,0,0,1,0,12.348L.393,2.324A2.4,2.4,0,0,1,2.6,0Z" transform="translate(11.884 14.521) rotate(151.984)" fill="#d4cedb"/>
        <ellipse id="Ellipse_2170" cx="2.449" cy="2.698" rx="2.449" ry="2.698" transform="translate(1.05 0.964)" fill="#022c43"/>
        <ellipse id="Ellipse_2171" cx="2.449" cy="2.698" rx="2.449" ry="2.698" fill="#b0a7ba"/>
      </g>
      <path id="Path_376915" d="M687.881,370.065a4.633,4.633,0,0,0-4.36,3.58c2.33-.066,5.3,1.9,6.694,4.441a6.6,6.6,0,0,1,.435.964,5.192,5.192,0,0,0,1.78-3.974A4.8,4.8,0,0,0,687.881,370.065Z" transform="translate(-539.887 -293.172)" fill="#115173"/>
      <path id="Path_376916" d="M691.826,375.052a2.449,2.449,0,0,0-2.3,1.893,4.475,4.475,0,0,1,3.539,2.348,3.482,3.482,0,0,1,.23.51,2.744,2.744,0,0,0,.941-2.1A2.536,2.536,0,0,0,691.826,375.052Z" transform="translate(-544.797 -297.198)" fill="#053f5e"/>
      <path id="Path_376917" d="M669.947,373.342c1.916-.523,4.3.831,5.622,3.087a7.666,7.666,0,0,0-.92-3.212c-1.561-3.037-4.559-5.243-6.7-4.927s-2.6,3.034-1.043,6.071a10.987,10.987,0,0,0,.892,1.443A3.025,3.025,0,0,1,669.947,373.342Z" transform="translate(-525.191 -291.715)" fill="#022c43"/>
      <g id="Group_100649" transform="translate(140.314 76.16)">
        <path id="Path_376918" d="M664.259,372.746c-1.561-3.037-1.094-5.755,1.043-6.071,1.463-.216,3.33.75,4.863,2.356-1.591-1.833-3.636-2.974-5.213-2.741-2.137.316-2.6,3.034-1.043,6.071a10.984,10.984,0,0,0,.891,1.443c.007-.032.015-.062.022-.093A10.781,10.781,0,0,1,664.259,372.746Z" transform="translate(-662.987 -366.26)" fill="#fff"/>
        <path id="Path_376919" d="M713.56,403.274a7.447,7.447,0,0,1,.734,1.036c0-.055-.007-.113-.011-.17A7.332,7.332,0,0,0,713.56,403.274Z" transform="translate(-704.711 -396.141)" fill="#fff"/>
      </g>
      <ellipse id="Ellipse_2172" cx="0.962" cy="1.253" rx="0.962" ry="1.253" transform="translate(148.816 83.831)" fill="#c0b2d0"/>
      <g id="Group_100650" transform="translate(149.036 113.327)">
        <path id="Path_376920" d="M0,.006,5.217,0V.385L0,.392Z" transform="translate(0 0.061) rotate(-0.671)" fill="#053f5e"/>
      </g>
      <ellipse id="Ellipse_2173" cx="5.963" cy="1.349" rx="5.963" ry="1.349" transform="translate(100.051 130.49)" fill="#022c43"/>
      <rect id="Rectangle_7919" width="12.422" height="10.214" rx="5.107" transform="translate(94.131 59.741)" fill="#053f5e"/>
      <line id="Line_2010" x1="4.422" transform="translate(120.754 69.404)" fill="none" stroke="#022c43" stroke-linecap="round" stroke-miterlimit="10" stroke-width="1.746"/>
      <path id="Path_376921" d="M637.894,284.924a1.794,1.794,0,0,1,1.7,1.874v5.171a1.794,1.794,0,0,1-1.7,1.874h-1.871" transform="translate(-533.742 -224.439)" fill="none" stroke="#022c43" stroke-linecap="round" stroke-miterlimit="10" stroke-width="1.746"/>
      <path id="Path_376922" d="M578.387,296.341a3.136,3.136,0,0,0-2.974-3.276H567.54a2.214,2.214,0,0,0-2.1,2.313v11.756h7.348v-7.516h2.624a3.136,3.136,0,0,0,2.974-3.276Z" transform="translate(-451.118 -231.011)" fill="#022c43"/>
      <path id="Path_376923" d="M586.44,321.508v-8.03a1.353,1.353,0,0,1,1.283-1.413h8.69" transform="translate(-468.672 -246.35)" fill="none" stroke="#053f5e" stroke-miterlimit="10" stroke-width="2"/>
      <path id="Path_376924" d="M549.335,501.367l-1.171,24.282a1.29,1.29,0,0,1-2.554,0l-1.17-24.282a2.318,2.318,0,0,1,2.34-2.313,2.367,2.367,0,0,1,2.554,2.12C549.339,501.237,549.338,501.3,549.335,501.367Z" transform="translate(-433.304 -394.388)" fill="#053f5e"/>
      <path id="Path_376925" d="M557.538,521.116l-.5,10.407a.553.553,0,0,1-1.094,0l-.5-10.407a.993.993,0,0,1,1-.991,1.014,1.014,0,0,1,1.095.908C557.539,521.061,557.539,521.089,557.538,521.116Z" transform="translate(-442.471 -412.044)" fill="#022c43"/>
      <path id="Path_376926" d="M485.043,501.311l-8.005,22.754a1.133,1.133,0,0,1-1.5.732,1.323,1.323,0,0,1-.7-1.545L480.9,499.78a2.17,2.17,0,0,1,2.7-1.66,2.453,2.453,0,0,1,1.507,2.979C485.089,501.17,485.066,501.243,485.043,501.311Z" transform="translate(-374.974 -393.561)" fill="#022c43"/>
      <path id="Path_376927" d="M480.113,501.279l-7.971,22.769a1.133,1.133,0,0,1-1.5.734,1.322,1.322,0,0,1-.7-1.544l6.026-23.483a2.17,2.17,0,0,1,2.7-1.665,2.452,2.452,0,0,1,1.511,2.976C480.159,501.138,480.137,501.211,480.113,501.279Z" transform="translate(-370.864 -393.538)" fill="#053f5e"/>
      <rect id="Rectangle_7920" width="6.998" height="3.083" rx="1.542" transform="translate(100.233 116.286)" fill="#022c43"/>
      <rect id="Rectangle_7921" width="6.998" height="3.083" rx="1.542" transform="translate(110.122 120.084)" fill="#022c43"/>
      <path id="Path_376928" d="M583.294,501.811l8.005,22.754a1.133,1.133,0,0,0,1.5.732,1.323,1.323,0,0,0,.7-1.545l-6.061-23.472a2.17,2.17,0,0,0-2.7-1.66,2.453,2.453,0,0,0-1.507,2.979C583.248,501.67,583.27,501.743,583.294,501.811Z" transform="translate(-465.917 -393.965)" fill="#022c43"/>
      <path id="Path_376929" d="M588.387,501.779l7.971,22.769a1.133,1.133,0,0,0,1.5.734,1.323,1.323,0,0,0,.7-1.544l-6.026-23.483a2.17,2.17,0,0,0-2.7-1.665,2.452,2.452,0,0,0-1.511,2.977C588.341,501.638,588.364,501.711,588.387,501.779Z" transform="translate(-470.192 -393.941)" fill="#053f5e"/>
      <path id="Path_376930" d="M604.345,521.625l3.25,9.283a.462.462,0,0,0,.613.3.539.539,0,0,0,.286-.629L606.036,521a.885.885,0,0,0-1.1-.678,1,1,0,0,0-.616,1.214C604.326,521.568,604.335,521.6,604.345,521.625Z" transform="translate(-483.506 -412.19)" fill="#022c43"/>
      <path id="Path_376931" d="M494.451,518.625l-3.25,9.283a.462.462,0,0,1-.613.3.54.54,0,0,1-.286-.63L492.759,518a.885.885,0,0,1,1.1-.679,1,1,0,0,1,.616,1.214C494.469,518.568,494.46,518.6,494.451,518.625Z" transform="translate(-387.847 -409.781)" fill="#022c43"/>
      <rect id="Rectangle_7922" width="6.998" height="3.083" rx="1.542" transform="translate(127.09 119.468) rotate(180)" fill="#022c43"/>
      <rect id="Rectangle_7923" width="18.721" height="6.167" rx="3.083" transform="translate(104.235 97.75)" fill="#022c43"/>
      <rect id="Rectangle_7924" width="2.853" height="21.97" rx="1.427" transform="translate(111.248 76.308)" fill="#053f5e"/>
      <line id="Line_2011" y1="3.051" transform="translate(104.258 79.228)" fill="none" stroke="#022c43" stroke-linecap="round" stroke-miterlimit="10" stroke-width="1.85"/>
      <path id="Path_376932" d="M520.959,408.742a3.5,3.5,0,0,1-3.316,3.653H504.37a3.5,3.5,0,0,1-3.316-3.653V400.9" transform="translate(-397.228 -316.292)" fill="none" stroke="#022c43" stroke-linecap="round" stroke-miterlimit="10" stroke-width="1.85"/>
      <rect id="Rectangle_7925" width="13.122" height="14.454" rx="6.561" transform="translate(107.091 79.755)" fill="#022c43"/>
      <rect id="Rectangle_7926" width="17.358" height="15.032" rx="7.516" transform="translate(105.051 74.642)" fill="#115173"/>
      <line id="Line_2012" y2="1.702" transform="translate(120.262 84.75)" fill="none" stroke="#022c43" stroke-linecap="round" stroke-miterlimit="10" stroke-width="2"/>
      <path id="Path_376933" d="M578.887,354.617a3.976,3.976,0,0,1,3.771,4.154v3.416" transform="translate(-462.184 -279.165)" fill="none" stroke="#022c43" stroke-linecap="round" stroke-miterlimit="10" stroke-width="2"/>
      <rect id="Rectangle_7927" width="12.462" height="10.792" rx="5.396" transform="translate(107.409 76.757)" fill="#022c43"/>
      <path id="Rectangle_7928" d="M1.094,0H5.03A1.094,1.094,0,0,1,6.124,1.094v2.59A3.062,3.062,0,0,1,3.062,6.745h0A3.062,3.062,0,0,1,0,3.683V1.094A1.094,1.094,0,0,1,1.094,0Z" transform="translate(110.625 102.676)" fill="#115173"/>
      <path id="Rectangle_7929" d="M.744,0H2.93a.744.744,0,0,1,.744.744v3.2A1.837,1.837,0,0,1,1.837,5.781h0A1.837,1.837,0,0,1,0,3.944V.744A.744.744,0,0,1,.744,0Z" transform="translate(112.611 102.268)" fill="#022c43"/>
      <path id="Rectangle_7930" d="M1.506,0H4.618A1.506,1.506,0,0,1,6.124,1.506v.621A4.618,4.618,0,0,1,1.506,6.745h0A1.506,1.506,0,0,1,0,5.239V1.506A1.506,1.506,0,0,1,1.506,0Z" transform="translate(103.87 102.676)" fill="#115173"/>
      <path id="Rectangle_7931" d="M.947,0H2.9a.947.947,0,0,1,.947.947v2.9a2.9,2.9,0,0,1-2.9,2.9h0A.947.947,0,0,1,0,5.8V.947A.947.947,0,0,1,.947,0Z" transform="translate(106.01 102.282)" fill="#022c43"/>
      <path id="Rectangle_7932" d="M1.546,0H4.577A1.546,1.546,0,0,1,6.124,1.546V5.2A1.546,1.546,0,0,1,4.577,6.745h0A4.577,4.577,0,0,1,0,2.168V1.546A1.546,1.546,0,0,1,1.546,0Z" transform="translate(117.219 102.676)" fill="#115173"/>
      <path id="Rectangle_7933" d="M.972,0H2.877a.972.972,0,0,1,.972.972v4.8a.972.972,0,0,1-.972.972h0A2.877,2.877,0,0,1,0,3.868V.972A.972.972,0,0,1,.972,0Z" transform="translate(117.273 102.282)" fill="#022c43"/>
      <ellipse id="Ellipse_2174" cx="4.024" cy="4.432" rx="4.024" ry="4.432" transform="translate(109.455 77.719)" fill="#f66"/>
      <ellipse id="Ellipse_2175" cx="3.674" cy="4.047" rx="3.674" ry="4.047" transform="translate(109.793 78.104)" fill="#053f5e"/>
      <ellipse id="Ellipse_2176" cx="2.624" cy="2.891" rx="2.624" ry="2.891" transform="translate(110.805 79.258)" fill="#022c43"/>
      <ellipse id="Ellipse_2177" cx="1.4" cy="1.542" rx="1.4" ry="1.542" transform="translate(111.987 80.604)" fill="#053f5e"/>
      <ellipse id="Ellipse_2178" cx="0.7" cy="0.771" rx="0.7" ry="0.771" transform="translate(113.306 80.391)" fill="#115173"/>
      <ellipse id="Ellipse_2179" cx="0.875" cy="0.964" rx="0.875" ry="0.964" transform="translate(121.669 78.822)" fill="#022c43"/>
      <ellipse id="Ellipse_2180" cx="0.7" cy="0.771" rx="0.7" ry="0.771" transform="translate(121.838 78.818)" fill="#f50808"/>
      <path id="Path_376934" d="M532.081,361.065h-7.048a2.854,2.854,0,0,0-2.707,2.982v4.828a3.161,3.161,0,0,0,.587,1.851l10.669-9.16A2.521,2.521,0,0,0,532.081,361.065Z" transform="translate(-414.89 -284.321)" fill="#fff" opacity="0.25" style="mix-blend-mode: overlay;isolation: isolate"/>
      <path id="Path_376935" d="M530.5,376.6a2.5,2.5,0,0,0,1.277.353h5.775l3.979-5.552v-2.258a3.167,3.167,0,0,0-.529-1.765Z" transform="translate(-421.746 -289.396)" fill="#fff" opacity="0.25" style="mix-blend-mode: overlay;isolation: isolate"/>
      <ellipse id="Ellipse_2181" cx="0.525" cy="0.578" rx="0.525" ry="0.578" transform="translate(120.076 65.137)" fill="#de1f1f"/>
      <ellipse id="Ellipse_2182" cx="0.525" cy="0.578" rx="0.525" ry="0.578" transform="translate(121.364 65.137)" fill="#053f5e"/>
      <rect id="Rectangle_7934" width="1.575" height="78.334" transform="translate(70.045 53.505)" fill="#022c43"/>
      <rect id="Rectangle_7935" width="4.549" height="1.919" rx="0.96" transform="translate(68.555 106.185)" fill="#022c43"/>
      <rect id="Rectangle_7936" width="5.599" height="1.919" rx="0.96" transform="translate(67.575 88.104)" fill="#022c43"/>
      <ellipse id="Ellipse_2183" cx="1.225" cy="3.263" rx="1.225" ry="3.263" transform="translate(67.136 85.819)" fill="#022c43"/>
      <rect id="Rectangle_7937" width="2.853" height="12.284" rx="1.427" transform="translate(69.482 54.045)" fill="#022c43"/>
      <rect id="Rectangle_7938" width="11.547" height="8.829" rx="4.415" transform="translate(65.243 55.772)" fill="#fff"/>
      <path id="Path_376936" d="M281.053,263.846H276v-5.182h0Z" transform="translate(-209.201 -192.798)" fill="#022c43"/>
      <path id="Path_376937" d="M258.44,192.51l4.9-3.359V176.867l-4.9-3.359Z" transform="translate(-194.557 -122.822)" fill="#022c43"/>
      <path id="Path_376938" d="M276,159.565h.442L276,164.747h0Z" transform="translate(-209.143 -111.566)" fill="#022c43"/>
      <path id="Path_376939" d="M383.339,173.01l-4.9,3.359v12.284l4.9,3.359Z" transform="translate(-328.174 -122.42)" fill="#022c43"/>
      <rect id="Rectangle_7939" width="1.75" height="0.768" transform="translate(76.964 56.54)" fill="#022c43"/>
      <rect id="Rectangle_7940" width="1.75" height="0.768" transform="translate(76.964 62.682)" fill="#022c43"/>
      <rect id="Rectangle_7941" width="1.75" height="0.768" transform="translate(62.638 56.54)" fill="#022c43"/>
      <rect id="Rectangle_7942" width="1.75" height="0.768" transform="translate(62.638 62.682)" fill="#022c43"/>
      <rect id="Rectangle_7943" width="0.875" height="2.111" transform="translate(66.674 52.509)" fill="#022c43"/>
      <rect id="Rectangle_7944" width="0.875" height="2.111" transform="translate(73.919 52.509)" fill="#022c43"/>
      <rect id="Rectangle_7945" width="0.875" height="2.111" transform="translate(66.674 64.562)" fill="#022c43"/>
      <rect id="Rectangle_7946" width="0.875" height="2.111" transform="translate(73.919 64.562)" fill="#022c43"/>
      <rect id="Rectangle_7947" width="0.175" height="8.829" transform="translate(67.488 55.772)" fill="#115173"/>
      <rect id="Rectangle_7948" width="0.175" height="8.829" transform="translate(69.582 55.772)" fill="#115173"/>
      <rect id="Rectangle_7949" width="0.175" height="8.829" transform="translate(71.675 55.772)" fill="#115173"/>
      <rect id="Rectangle_7950" width="0.175" height="8.829" transform="translate(73.768 55.772)" fill="#115173"/>
      <rect id="Rectangle_7951" width="2.853" height="20.346" transform="translate(65.808 50.014)" fill="#fff" opacity="0.35" style="mix-blend-mode: overlay;isolation: isolate"/>
      <g id="Group_100973" transform="translate(314 -21.131)" opacity="0.723">
        <path id="Path_1" d="M10.565-137.119a10.565,10.565,0,0,0,10.565-10.566A10.565,10.565,0,0,0,10.566-158.25,10.565,10.565,0,0,0,0-147.684a10.565,10.565,0,0,0,10.565,10.565" transform="translate(0 158.25)" fill="#010143"/>
        <path id="Path_2" d="M59.276-109.677a3.24,3.24,0,0,0-2.147.785l-.3-.556H55.188v9.271l2.383-.839v-1.664a3.272,3.272,0,0,0,1.706.464,3.564,3.564,0,0,0,3.669-3.735,3.558,3.558,0,0,0-3.669-3.728m-.322,5.33a1.54,1.54,0,0,1-1.129-.463,1.54,1.54,0,0,1-.438-1.139,1.54,1.54,0,0,1,.438-1.138,1.54,1.54,0,0,1,1.128-.463,1.54,1.54,0,0,1,1.128.463,1.54,1.54,0,0,1,.438,1.138,1.543,1.543,0,0,1-.439,1.138,1.543,1.543,0,0,1-1.128.464" transform="translate(-48.377 115.305)" fill="#fff"/>
        <path id="Path_3" d="M100.625-60.657a1.062,1.062,0,0,1-1.062,1.062A1.062,1.062,0,0,1,98.5-60.657a1.062,1.062,0,0,1,1.062-1.062,1.062,1.062,0,0,1,1.062,1.062" transform="translate(-84.688 75.098)" fill="#fff"/>
      </g>
    </g>
    <rect id="Rectangle_8262" width="400" height="200" transform="translate(8434 6514)" fill="#fff" opacity="0.447"/>
  </g>
</svg>
