<svg xmlns="http://www.w3.org/2000/svg" width="122.744" height="89.053" viewBox="0 0 122.744 89.053">
  <defs>
    <linearGradient id="linear-gradient" x1="0.5" y1="1" x2="0.5">
      <stop offset="0" stop-color="gray" stop-opacity="0.251"/>
      <stop offset="0.54" stop-color="gray" stop-opacity="0.122"/>
      <stop offset="1" stop-color="gray" stop-opacity="0.102"/>
    </linearGradient>
  </defs>
  <g id="undraw_videographer_nnc7" transform="translate(0 0)">
    <ellipse id="Ellipse_1" cx="36.968" cy="1.256" rx="36.968" ry="1.256" transform="translate(21.659 86.541)" fill="#6c63ff" opacity="0.1"/>
    <g id="flowers" transform="translate(87.336 42.27)">
      <path id="Path_1418" d="M776.7,526.081s7.952-10.073,7.336-20.085a19.452,19.452,0,0,1,3.089-11.907,32.6,32.6,0,0,1,3.737-4.668" transform="translate(-776.037 -481.391)" fill="none" stroke="#535461" stroke-width="2"/>
      <path id="Path_1419" d="M876.27,432.574c-.562,1.4.341,6.479.341,6.479s4.166-3.042,4.729-4.442a2.733,2.733,0,0,0-5.073-2.037Z" transform="translate(-861.797 -430.858)" fill="#6c63ff"/>
      <path id="Path_1420" d="M823.818,467.167c.289,1.481,3.809,5.253,3.809,5.253s1.844-4.818,1.554-6.3a2.732,2.732,0,1,0-5.364,1.046Z" transform="translate(-816.651 -459.38)" fill="#6c63ff"/>
      <path id="Path_1421" d="M782.362,556.264c1,1.132,5.938,2.6,5.938,2.6s-.84-5.089-1.837-6.222a2.732,2.732,0,1,0-4.1,3.61Z" transform="translate(-780.335 -535.15)" fill="#6c63ff"/>
      <path id="Path_1422" d="M772.273,638.573c.791,1.285,5.413,3.578,5.413,3.578s.031-5.159-.76-6.444a2.732,2.732,0,0,0-4.653,2.865Z" transform="translate(-771.867 -606.5)" fill="#6c63ff"/>
      <path id="Path_1423" d="M849.211,510.437c-1.4.572-6.481-.3-6.481-.3s3.016-4.187,4.409-4.759a2.732,2.732,0,1,1,2.072,5.057Z" transform="translate(-833.014 -494.987)" fill="#6c63ff"/>
      <path id="Path_1424" d="M836.635,602.521c-1.508.129-6.1-2.222-6.1-2.222s4.128-3.093,5.631-3.222a2.732,2.732,0,1,1,.465,5.445Z" transform="translate(-822.496 -574.279)" fill="#6c63ff"/>
      <path id="Path_1425" d="M807.752,691.816c-1.46.379-6.382-1.162-6.382-1.162s3.546-3.745,5.006-4.127a2.733,2.733,0,0,1,1.371,5.288Z" transform="translate(-797.325 -651.414)" fill="#6c63ff"/>
      <path id="Path_1426" d="M876.27,432.574c-.562,1.4.341,6.479.341,6.479s4.166-3.042,4.729-4.442a2.733,2.733,0,0,0-5.073-2.037Z" transform="translate(-861.797 -430.858)" fill="#4a6ca9" opacity="0.25"/>
      <path id="Path_1427" d="M823.818,467.167c.289,1.481,3.809,5.253,3.809,5.253s1.844-4.818,1.554-6.3a2.732,2.732,0,1,0-5.364,1.046Z" transform="translate(-816.651 -459.38)" fill="#4a6ca9" opacity="0.25"/>
      <path id="Path_1428" d="M782.362,556.264c1,1.132,5.938,2.6,5.938,2.6s-.84-5.089-1.837-6.222a2.732,2.732,0,1,0-4.1,3.61Z" transform="translate(-780.335 -535.15)" fill="#4a6ca9" opacity="0.25"/>
      <path id="Path_1429" d="M772.273,638.573c.791,1.285,5.413,3.578,5.413,3.578s.031-5.159-.76-6.444a2.732,2.732,0,0,0-4.653,2.865Z" transform="translate(-771.867 -606.5)" fill="#4a6ca9" opacity="0.25"/>
      <path id="Path_1430" d="M849.211,510.437c-1.4.572-6.481-.3-6.481-.3s3.016-4.187,4.409-4.759a2.732,2.732,0,1,1,2.072,5.057Z" transform="translate(-833.014 -494.987)" fill="#4a6ca9" opacity="0.25"/>
      <path id="Path_1431" d="M836.635,602.521c-1.508.129-6.1-2.222-6.1-2.222s4.128-3.093,5.631-3.222a2.732,2.732,0,1,1,.465,5.445Z" transform="translate(-822.496 -574.279)" fill="#4a6ca9" opacity="0.25"/>
      <path id="Path_1432" d="M807.752,691.816c-1.46.379-6.382-1.162-6.382-1.162s3.546-3.745,5.006-4.127a2.733,2.733,0,0,1,1.371,5.288Z" transform="translate(-797.325 -651.414)" fill="#4a6ca9" opacity="0.25"/>
      <path id="Path_1433" d="M777.2,578.927s11.352-5.984,14.845-15.388a19.479,19.479,0,0,1,7.649-9.634A32.724,32.724,0,0,1,805,551.15" transform="translate(-776.469 -534.658)" fill="none" stroke="#535461" stroke-width="2"/>
      <path id="Path_1434" d="M981.743,503.129c-1.081,1.051-2.313,6.061-2.313,6.061s5.041-1.1,6.123-2.144a2.732,2.732,0,1,0-3.81-3.917Z" transform="translate(-950.972 -492.553)" fill="#9993fe"/>
      <path id="Path_1435" d="M929.362,513.54c-.336,1.471,1.353,6.345,1.353,6.345s3.637-3.657,3.976-5.128a2.732,2.732,0,1,0-5.327-1.217Z" transform="translate(-907.731 -500.371)" fill="#9993fe"/>
      <path id="Path_1436" d="M855.1,577.9c.452,1.44,4.371,4.8,4.371,4.8s1.295-4.993.842-6.433a2.732,2.732,0,1,0-5.21,1.645Z" transform="translate(-843.562 -554.632)" fill="#9993fe"/>
      <path id="Path_1437" d="M812.63,649.357c.2,1.494,3.5,5.464,3.5,5.464s2.12-4.7,1.919-6.2a2.733,2.733,0,0,0-5.416.735Z" transform="translate(-807.021 -616.725)" fill="#9993fe"/>
      <path id="Path_1438" d="M930.615,570.289c-1.508-.042-5.8-2.9-5.8-2.9s4.452-2.6,5.959-2.564a2.732,2.732,0,1,1-.155,5.462Z" transform="translate(-903.841 -546.459)" fill="#9993fe"/>
      <path id="Path_1439" d="M886.231,650.616c-1.426-.492-4.671-4.5-4.671-4.5s5.026-1.156,6.453-.664a2.732,2.732,0,0,1-1.782,5.165Z" transform="translate(-866.521 -615.925)" fill="#9993fe"/>
      <path id="Path_1440" d="M821.226,719.932c-1.489-.244-5.366-3.647-5.366-3.647s4.76-1.989,6.249-1.745a2.732,2.732,0,1,1-.883,5.393Z" transform="translate(-809.828 -675.628)" fill="#9993fe"/>
    </g>
    <path id="Path_1441" d="M608.474,332.784h-1.216l-8.9-45.92-1.141,45.92h-1.291l-1.445-45.843-8.667,45.843H584.45l5.891-47.2.192-1.534,11.556-1.293.359,2.827Z" transform="translate(-519.411 -245.409)" fill="#464353"/>
    <rect id="Rectangle_610" width="7.356" height="4.561" transform="translate(57.159 28.146)" fill="#464353"/>
    <path id="Path_1442" d="M863.05,301.986l4.448-1.8h.975a.536.536,0,0,1,.536.536v12.526a.536.536,0,0,1-.536.536H867.5l-4.448-1.852Z" transform="translate(-763.213 -275.834)" fill="#464353"/>
    <rect id="Rectangle_611" width="9.094" height="8.809" transform="translate(90.744 26.722)" fill="#464353"/>
    <rect id="Rectangle_612" width="5.854" height="1.064" transform="translate(74.958 10.177)" fill="#514e7f"/>
    <rect id="Rectangle_613" width="16.478" height="12.031" transform="translate(68.278 11.554)" fill="#11507a"/>
    <rect id="Rectangle_614" width="16.478" height="1.426" transform="translate(68.278 22.161)" opacity="0.1"/>
    <rect id="Rectangle_615" width="0.369" height="8.809" transform="translate(90.602 26.722)" opacity="0.1"/>
    <rect id="Rectangle_616" width="2.509" height="4.561" transform="translate(62.006 28.146)" opacity="0.1"/>
    <path id="Path_1443" d="M639.527,285.587H627.42l.192-1.534,11.557-1.293Z" transform="translate(-556.49 -245.409)" opacity="0.1"/>
    <rect id="Rectangle_617" width="28.509" height="17.561" rx="8.781" transform="translate(62.233 22.388)" fill="#11507a"/>
    <path id="Path_1444" d="M833.162,201.07h.086v9.949h-.086a.711.711,0,0,1-.711-.712v-8.526A.711.711,0,0,1,833.162,201.07Z" transform="translate(-733.411 -174.918)" fill="#514e7f"/>
    <path id="Path_1445" d="M870.71,188h.923a.588.588,0,0,1,.588.588v12.424a.588.588,0,0,1-.588.588h-.923Z" transform="translate(-766.425 -163.64)" fill="#514e7f"/>
    <rect id="Rectangle_618" width="1.312" height="4.561" transform="translate(57.159 28.146)" opacity="0.1"/>
    <rect id="Rectangle_619" width="2.565" height="7.754" rx="1.283" transform="translate(55.677 26.722)" fill="#514e7f"/>
    <circle id="Ellipse_2" cx="8.211" cy="8.211" r="8.211" transform="translate(60.067 3.343)" fill="#464353"/>
    <circle id="Ellipse_3" cx="6.159" cy="6.159" r="6.159" transform="translate(62.119 5.396)" fill="#4a6ca9"/>
    <circle id="Ellipse_4" cx="5.987" cy="5.987" r="5.987" transform="translate(77.515 5.739)" fill="#464353"/>
    <circle id="Ellipse_5" cx="4.49" cy="4.49" r="4.49" transform="translate(79.012 7.236)" fill="#4a6ca9"/>
    <circle id="Ellipse_6" cx="0.788" cy="0.788" r="0.788" transform="translate(82.249 24.213)" fill="#87f3fc"/>
    <circle id="Ellipse_7" cx="0.788" cy="0.788" r="0.788" transform="translate(84.756 24.213)" fill="#87f3fc" opacity="0.5"/>
    <path id="Path_1446" d="M360.16,150.265l-.056-.111a4.979,4.979,0,0,1,1,.458c-.137-1.191-4.707-4.537-5.529-4.537s-1.737-1.42-1.737-1.42a9.643,9.643,0,0,1-2.742-.754c-.366-.388-2.834-.162-3.428-.025a2.794,2.794,0,0,1-1.508-.366s-.5-.823-1.142-.823-1.323-.916-1.323-.916a2.839,2.839,0,0,0-1.145-.642,2.971,2.971,0,0,1-1.555-1.145c-.321-.459-1.92-.686-2.833-.548a19.653,19.653,0,0,1-3.382-.186,2.422,2.422,0,0,0,1.248-1.558c-.9-.047-3.263-2.032-3.263-2.032s.1.642.21,1.537l-.152-.2-.021.016a14.855,14.855,0,0,1-.021-1.919c0-.049.008-.1.011-.149a4.269,4.269,0,0,0,1.338-4.208c-.025-.1-.054-.206-.086-.306a1.9,1.9,0,0,0,.548.137h.1a.8.8,0,0,0,.6-.266h0a.657.657,0,0,0,.067-.1.181.181,0,0,0,.012-.022.745.745,0,0,0,.041-.1c0-.013.007-.025.01-.038a.775.775,0,0,0,.016-.085v-.126a1.625,1.625,0,0,0-.137-.611,2.716,2.716,0,0,1-.336-1.086.678.678,0,0,1,.011-.092,4.943,4.943,0,0,1,.291-.868v-.012c.014-.043.025-.085.034-.128a.326.326,0,0,0,.011-.038,1.182,1.182,0,0,0,.021-.152v-.011a1.452,1.452,0,0,0-.95-1.305,9.3,9.3,0,0,1-1.434-.548,5.464,5.464,0,0,1-1.12-1.342,2.557,2.557,0,0,0-2.194-1.078c-.52.059-.991.332-1.508.437-.786.163-1.616-.074-2.4.108a.822.822,0,0,0-.488.274.557.557,0,0,0-.1.248h0a.949.949,0,0,0,0,.25v.007a1.736,1.736,0,0,0,.043.234l.012.048a.2.2,0,0,0,.011.048c0,.016.018.064.026.1.015.053.027.107.041.162v.019c.012.056.025.112.034.17h0a2.918,2.918,0,0,1,.044.359h0a1.654,1.654,0,0,1-.21.976c-.343.548-1.071.791-1.387,1.363a1.18,1.18,0,0,0-.137.446h0a1.184,1.184,0,0,0-.007.156v.021a.516.516,0,0,0,.012.137.282.282,0,0,0,0,.033,1.144,1.144,0,0,0,.027.121.119.119,0,0,0,.011.038,1.047,1.047,0,0,0,.055.137h0c.147.306.424.558.481.89h0a.051.051,0,0,0,.007.03,2.237,2.237,0,0,1-.125.739.834.834,0,0,0-.017.09h0v.182a.31.31,0,0,0,0,.038v.089a.221.221,0,0,0,.014.051l.01.034c.007.016.014.032.022.048l.015.03a.49.49,0,0,0,.033.048l.016.022a.378.378,0,0,0,.063.059c.189.137.484.1.639.274a.322.322,0,0,1,.044.069l.008.016a.383.383,0,0,1,.026.075h0a.751.751,0,0,1,0,.313c-.055.274-.171.524-.233.793a1.678,1.678,0,0,0-.027.167h0a.275.275,0,0,1-.007.075v.107a.448.448,0,0,0,.008.1c.008.034,0,.033.008.048l.008.04a.194.194,0,0,0,.015.053l.012.034c.007.019.016.038.025.058a.214.214,0,0,0,.014.026.482.482,0,0,0,.049.08.862.862,0,0,0,.727.3,2.292,2.292,0,0,0,.485-.055c.036.084.073.167.112.248a4.259,4.259,0,0,0,.772,1.086,1.031,1.031,0,0,1-.014.128c-.031.313-.07.649-.114.987-.355-.163-.629-.226-.738-.108-.459.5,0,2.246,0,2.246s-2.242,0-2.79.5-1.553,0-1.553,0-2.057.23-1.919.643-1.1,0-1.1,0-.869.092-.823.686-1.326.869-1.143,1.282-.823.686-.823.686-1.005-.045-.639.548h0s-.548,1.283-1,1.371-1.052,1.145-1.052,1.145-1.76.321-1.681.871-2.706,4.483-2.706,4.483a4.474,4.474,0,0,0-.274,3.26,27.035,27.035,0,0,1,1.234,2.794c.137.5,1.8,2.719,1.785,3.131a9.8,9.8,0,0,0,.972,1.7l-.165.17-.361.372s-1.143,2.841.228,2.978a9.029,9.029,0,0,0,2.413.084.58.58,0,0,0,.192-.084l.016-.012c.5.736.853,1.25.853,1.25s.049-.073.137-.2l.137.2s.11-.156.3-.411c-.06,1.246-.069,2.475-.069,2.475s.6-.092.321,2.657a7.425,7.425,0,0,0,1.645,4.993v4.079h0a2.734,2.734,0,0,0,.019.274,8.317,8.317,0,0,0,.711,2.879c.64,1.19,0,4.306,0,4.306s-.042,2.542.111,5.712c0,.086.01.176.014.263-2.772,2.317-5.746,5.388-5.746,5.388a1.51,1.51,0,0,1,.411.185l-.166.213-.755.931h0l-.584.721h0l.925,2.85,1.01-.395a3.076,3.076,0,0,1,.433,1.595.686.686,0,0,1-.137.319.4.4,0,0,0-.071.158c-.265,1.032.839,5.484,2.59,5.677a.613.613,0,0,0,.784-.339,2.362,2.362,0,0,0-.115-1.381,2.28,2.28,0,0,1-.326-2.318c.351-.7.931-1.645,1.35-2.31l.173-.274c.377.476.609.781.609.781l1.346-1.448c.029.062.058.122.088.18a4.306,4.306,0,0,0,.348.579l.913,3.621.369-.082c-.008.088-.014.181-.019.274a4.537,4.537,0,0,0,.3,2.095,1.248,1.248,0,0,0,1.224.766c2.125-.052,2.742-1.2,2.742-1.2v-2.879l.731-.163s-.053-6.326-.241-9.853c0-.078-.008-.154-.012-.228v-.031l4.693-5.047.361-.144a4.876,4.876,0,0,0,3.063-4.261,14.676,14.676,0,0,1,.365-3.115c.365-1.42.047-8.8-.639-10.63a18.678,18.678,0,0,1-.914-3.9,1.489,1.489,0,0,0,0-1.759,3.5,3.5,0,0,1-.48-.784l.892-.147.514-.085.274-.047c-.137,1.212-.16,2.143.165,2.365,1.006.686,4.387-1.6,4.387-1.6-1.234,0-1.919-9.209-1.669-9.438a17.643,17.643,0,0,0,.3-5.666c-.328-.823,1.15-4.5,1.15-4.5l.228-.337h0s5.393,2.354,5.987,2.805,2.468-1.1,2.787-.5,2.331,1.492,2.331,1.492,2.971-.3,3.29.433a13.829,13.829,0,0,0,2.24,2.451,10.463,10.463,0,0,1,.073-1.205c.04.095.078.191.119.288.91,2.154,2.425,4.881,3.829,3.414C362.148,154.9,360.937,151.819,360.16,150.265ZM319.511,160v.026l-.011-.011Zm-1.064-10.568-.581,6.13-1.142,1.183-.137.145-1.18-1.285s-.595-.274,0-.779-1-1.645-1-1.645-.047-.823.548-1.053,1.371-1.741,1.371-1.741l2.148-1.1h0Zm7.645,31.374a.727.727,0,0,1,.137-.1c.256-.145.421.014.506.293a2.363,2.363,0,0,1-.1,1.409c-.319.733.458,3.666.458,3.666a2.229,2.229,0,0,0-1.189,1.329.907.907,0,0,1-.137.3c-.012-.077-.023-.151-.034-.222-.089-.548-.137-.9-.137-.9a5.842,5.842,0,0,1-.092-2.152c.145-.882.439-2.672.548-3.351.027-.165.043-.263.044-.274Z" transform="translate(-284.537 -122.544)" fill="url(#linear-gradient)"/>
    <path id="Path_1447" d="M483.41,220.677l.3-.2.835,1.762-.321.377h-.971s.034-.96.058-.994S483.41,220.677,483.41,220.677Z" transform="translate(-435.484 -207.053)" fill="#464353"/>
    <path id="Path_1448" d="M415.7,731.27v3.77s-.617,1.147-2.742,1.2a1.247,1.247,0,0,1-1.224-.764,4.57,4.57,0,0,1-.3-2.091,8.2,8.2,0,0,1,.1-.968Z" transform="translate(-373.506 -647.813)" fill="#3f3d56"/>
    <path id="Path_1449" d="M415.756,731.27v1.167l-4.267.948a8.233,8.233,0,0,1,.1-.968Z" transform="translate(-373.562 -647.813)" opacity="0.1"/>
    <path id="Path_1450" d="M389.556,558.851l-5.347,1.189-.913-3.611a4.381,4.381,0,0,1-.348-.577c-.059-.115-.116-.237-.171-.365-1-2.278-1.438-6.385-1.627-9.88-.01-.177-.019-.352-.027-.525-.154-3.161-.111-5.7-.111-5.7s.64-3.108,0-4.3a8.325,8.325,0,0,1-.712-2.879c-.014-.174-.019-.274-.019-.274l.1-.259.4-1.067h4.434l2.577,2.181.392.332-.044.274c-.111.678-.4,2.468-.548,3.343a5.805,5.805,0,0,0,.092,2.147s.053.348.137.9c.021.137.044.282.07.44.328,2.026.942,5.727,1.2,6.611a10.039,10.039,0,0,1,.185,1.675c.011.164.021.336.03.515C389.5,552.542,389.556,558.851,389.556,558.851Z" transform="translate(-346.631 -474.663)" fill="#777b9b"/>
    <path id="Path_1451" d="M417.646,758.49v.038s-.617,1.148-2.742,1.2a1.247,1.247,0,0,1-1.224-.764A5.312,5.312,0,0,0,417.646,758.49Z" transform="translate(-375.452 -671.301)" opacity="0.1"/>
    <path id="Path_1452" d="M659.941,327.082c-1.409,1.463-2.918-1.257-3.829-3.406-.512-1.209-.832-2.239-.832-2.239l3.751-1.588s.23.366.52.946C660.328,322.345,661.538,325.419,659.941,327.082Z" transform="translate(-583.928 -292.799)" fill="#ffccb1"/>
    <path id="Path_1453" d="M444.648,194.525a17.109,17.109,0,0,0,.3,4.05s-7.631.823-6.946-.365a13.583,13.583,0,0,0,.808-3.94c.106-1,.152-1.773.152-1.773s7.312-2.924,6.215-.457A7.248,7.248,0,0,0,444.648,194.525Z" transform="translate(-396.405 -181.658)" fill="#ffccb1"/>
    <path id="Path_1454" d="M460.2,239.036l-1.026,12.247,4.707-.776-.823-10.1.274-2.7Z" transform="translate(-411.308 -206.535)" fill="#464353"/>
    <path id="Path_1455" d="M463.868,250.647l-2.044.337-2.664.439.188-2.235.839-10.013,1.068-.452.757-.319,1.308-.554-.274,2.7Z" transform="translate(-411.299 -206.656)" opacity="0.1"/>
    <path id="Path_1456" d="M341.7,683.932a2.271,2.271,0,0,0,.326,2.313,2.331,2.331,0,0,1,.115,1.371c-.191.533-.784.337-.784.337-1.867-.206-3-5.243-2.519-5.82s-.292-1.9-.292-1.9l-1.011.394-.926-2.843.584-.72.755-.93.511-.631,5.107,5.329s-.218.328-.518.8C342.63,682.286,342.05,683.232,341.7,683.932Z" transform="translate(-308.948 -599.689)" fill="#3f3d56"/>
    <path id="Path_1457" d="M394.786,609.512l-6.367,6.829c-1.116-2.18-1.6-6.554-1.8-10.246a17.476,17.476,0,0,1,3.2-2.247,20.6,20.6,0,0,0,3.549-3.138c.328,2.026.942,5.727,1.2,6.611A14.126,14.126,0,0,1,394.786,609.512Z" transform="translate(-352.102 -535.153)" opacity="0.1"/>
    <path id="Path_1458" d="M363.634,420.561l-7.414-1.115.4-1.067h4.434Z" transform="translate(-322.472 -362.435)" opacity="0.1"/>
    <path id="Path_1459" d="M394.588,606.235l-6.508,6.98c-1-2.277-1.444-6.385-1.633-9.88q-.015-.265-.028-.525a17.749,17.749,0,0,1,3.225-2.27,22.426,22.426,0,0,0,3.48-3.03c.021.137.044.282.07.44.328,2.026.942,5.727,1.2,6.611A10.937,10.937,0,0,1,394.588,606.235Z" transform="translate(-351.929 -532.391)" opacity="0.1"/>
    <path id="Path_1460" d="M352,680.849s-.218.328-.518.8c-1.09-1.378-3.674-4.55-5.1-5.5l.511-.631Z" transform="translate(-317.379 -599.706)" opacity="0.1"/>
    <path id="Path_1461" d="M367.029,425.76a14.613,14.613,0,0,0-.365,3.108,4.862,4.862,0,0,1-3.063,4.25l-.361.137-12.476,13.385s-4.616-6.032-6.124-6.4c0,0,6.078-6.261,8.957-7.632,0,0,3.474-2.513,3.657-3.381a2.235,2.235,0,0,1,1.189-1.326s-.777-2.924-.458-3.656a2.35,2.35,0,0,0,.1-1.405c-.085-.274-.249-.437-.506-.293a.725.725,0,0,0-.137.1l-7.905-1.189V417.4a7.4,7.4,0,0,1-1.645-4.981c.274-2.742-.321-2.65-.321-2.65s.029-4.631.419-5.018a44.514,44.514,0,0,1,4.145-2.158l11.769,2.091.485,2.251a7.69,7.69,0,0,0,1.1,2.586,1.481,1.481,0,0,1,0,1.753,18.644,18.644,0,0,0,.914,3.887C367.082,416.988,367.395,424.344,367.029,425.76Z" transform="translate(-315.877 -364.195)" fill="#777b9b"/>
    <path id="Path_1462" d="M450.537,192.04a7.282,7.282,0,0,0-.532,2.484,4.25,4.25,0,0,1-5.835-.255c.106-1,.152-1.773.152-1.773S451.634,189.573,450.537,192.04Z" transform="translate(-401.762 -181.658)" opacity="0.1"/>
    <path id="Path_1463" d="M443.928,165.23a4.25,4.25,0,1,1-.118-1A4.25,4.25,0,0,1,443.928,165.23Z" transform="translate(-394.218 -155.708)" fill="#ffccb1"/>
    <path id="Path_1464" d="M399.555,235.85s-3.055-1.416-3.245-1.6-6.527,16.088-6.527,16.088L388,258.427s9.505,4.066,11.562,3.518,2.239,0,2.239,0,2.1-11.791,2.789-12.841-.64-11.745-.64-11.745l-2.376-3.109Z" transform="translate(-353.293 -218.934)" opacity="0.1"/>
    <path id="Path_1465" d="M399.555,231.85s-3.055-1.416-3.245-1.6-6.527,16.088-6.527,16.088L388,254.427s9.505,4.066,11.562,3.518,2.239,0,2.239,0,2.1-11.791,2.789-12.841-.64-11.745-.64-11.745l-2.376-3.109Z" transform="translate(-353.293 -215.482)" opacity="0.1"/>
    <path id="Path_1466" d="M404.555,247.112a9.078,9.078,0,0,0-.576,1.833c-.162.652-.337,1.43-.517,2.266-.809,3.774-1.695,8.743-1.695,8.743s-.056-.167-.453-.225a4.7,4.7,0,0,0-1.782.225c-2.057.548-11.563-3.52-11.563-3.52l.274-1.234,1.508-6.855s6.353-16.27,6.536-16.086c.111.111,1.3.685,2.2,1.112.577.274,1.042.487,1.042.487l1.919-1.516.105-.084,2.365,3.108S405.241,246.061,404.555,247.112Z" transform="translate(-353.267 -217.217)" fill="#4a6ca9"/>
    <path id="Path_1467" d="M398.98,235.433a6.066,6.066,0,0,1-.365,2.787s-2.194,5.394-2.834,7.886-4.3,7.516-4.3,7.516-.537.539-1.29,1.289c-.084.084-.171.17-.259.26l1.508-6.855s6.353-16.27,6.536-16.086c.111.111,1.3.686,2.2,1.112C399.611,233.858,398.8,234.735,398.98,235.433Z" transform="translate(-354.958 -217.191)" opacity="0.1"/>
    <path id="Path_1468" d="M348.753,225.3a6.065,6.065,0,0,1-.365,2.787s-2.194,5.394-2.834,7.886-4.3,7.516-4.3,7.516-.537.539-1.29,1.289c-.089.089-.182.181-.274.274-1.47,1.463-3.536,3.514-4.182,4.113-.095.089-.159.147-.186.166a.576.576,0,0,1-.192.084,9.028,9.028,0,0,1-2.413-.084c-1.371-.137-.228-2.97-.228-2.97l.361-.372.329-.34,3.735-3.843.274-.289,1.142-1.178.581-6.115.014-.147s-.17-.388-.432-.98c-.7-1.6-2.069-4.7-2.571-5.7-.058-.117-.1-.2-.137-.256,0-.007-.007-.014-.011-.019-.366-.594.639-.548.639-.548s1.006-.274.823-.686,1.189-.686,1.143-1.279.823-.686.823-.686,1.234.411,1.1,0,1.919-.64,1.919-.64,1.005.5,1.553,0,2.8-.5,2.8-.5-.459-1.737,0-2.24,3.9,2.24,3.9,2.24S348.479,224.242,348.753,225.3Z" transform="translate(-305.005 -207.053)" fill="#464353"/>
    <path id="Path_1469" d="M370.61,409.58s3.794,5.347,6.444,3.611-3.565-6.261-3.565-6.261Z" transform="translate(-338.287 -367.94)" opacity="0.1"/>
    <path id="Path_1470" d="M370.61,407.58s3.794,5.347,6.444,3.611-3.565-6.261-3.565-6.261Z" transform="translate(-338.287 -366.214)" fill="#ffccb1"/>
    <path id="Path_1471" d="M488.606,261.527c.289-2.524,1.128-6.316.444-7.467a9.179,9.179,0,0,1-.773-2.848c-.1-.64-.177-1.311-.24-1.947-.167-1.688-.221-3.133-.221-3.133s-1.645-7.338-1.326-8.846a22.01,22.01,0,0,0-.23-4.944l.106-.084,2.365,3.108s1.324,10.694.639,11.746a9.053,9.053,0,0,0-.576,1.833l1.308-.548-.274,2.7.823,10.1Z" transform="translate(-438.081 -217.218)" opacity="0.1"/>
    <path id="Path_1472" d="M486.58,220.48s2.364,1.981,3.263,2.026a2.419,2.419,0,0,1-1.248,1.555,19.265,19.265,0,0,0,3.382.185c.915-.141,2.513.089,2.832.548a2.958,2.958,0,0,0,1.562,1.139,2.808,2.808,0,0,1,1.145.64l-4.024,5.941s-1.463,3.657-1.143,4.479a17.875,17.875,0,0,1-.3,5.666c-.251.228.435,9.415,1.669,9.415,0,0-3.381,2.285-4.387,1.6s1.281-8.089.274-9.781-1.234-7.927-1.234-7.927-1.645-7.336-1.324-8.844S486.58,220.48,486.58,220.48Z" transform="translate(-438.357 -207.053)" fill="#464353"/>
    <path id="Path_1473" d="M659.551,320.787c-1.222-.381-3.093-.392-3.439,2.879-.512-1.209-.832-2.239-.832-2.239l3.751-1.588S659.261,320.207,659.551,320.787Z" transform="translate(-583.928 -292.79)" opacity="0.1"/>
    <path id="Path_1474" d="M529.713,262.93l2.242.274s.686.914,1.323.914,1.142.823,1.142.823a2.8,2.8,0,0,0,1.508.365c.594-.137,3.062-.363,3.428.025a9.633,9.633,0,0,0,2.742.753s.914,1.416,1.737,1.416,5.392,3.337,5.529,4.525c0,0-4.524-2.879-4.57,3.451a13.9,13.9,0,0,1-2.24-2.444c-.321-.731-3.29-.433-3.29-.433s-2.01-.892-2.331-1.486-2.194.946-2.787.495-5.987-2.8-5.987-2.8l-1.669-3.136Z" transform="translate(-472.795 -243.683)" fill="#464353"/>
    <circle id="Ellipse_8" cx="0.388" cy="0.388" r="0.388" transform="translate(46.194 24.024)" fill="#3f3d56"/>
    <circle id="Ellipse_9" cx="0.388" cy="0.388" r="0.388" transform="translate(45.806 32.125)" fill="#3f3d56"/>
    <circle id="Ellipse_10" cx="0.388" cy="0.388" r="0.388" transform="translate(46.194 27.861)" fill="#3f3d56"/>
    <circle id="Ellipse_11" cx="0.388" cy="0.388" r="0.388" transform="translate(45.074 36.389)" fill="#3f3d56"/>
    <path id="Path_1475" d="M342.148,697.442c-.19.533-.784.337-.784.337-1.867-.206-3-5.243-2.519-5.82s-.3-1.91-.3-1.91l-1.011.394-.926-2.843.584-.72c.581,1.008,1.414,2.457,1.61,2.827a5.172,5.172,0,0,1,.514,2.468C339.286,693.066,340.32,697.327,342.148,697.442Z" transform="translate(-308.948 -609.508)" opacity="0.1"/>
    <path id="Path_1476" d="M443.843,164.259c-.093-.032-.186-.069-.274-.106a1.782,1.782,0,0,1-.835-.548c-.174-.255-.23-.614-.5-.76-.313-.167-.685.059-1.024.137a2.149,2.149,0,0,1-1.215-.162c-.584-.215-1.4-.611-2-.2-.466.318-.285.993-.4,1.474-.185.747-.979,1.234-1.128,1.989-.067.333-.023.74-.293.947a.7.7,0,0,1-.263.115,4.25,4.25,0,1,1,7.942-2.879Z" transform="translate(-394.25 -155.738)" opacity="0.1"/>
    <path id="Path_1477" d="M426.67,131.445a2.13,2.13,0,0,0,1.215.16c.344-.081.71-.307,1.023-.137.274.147.329.5.5.759a1.73,1.73,0,0,0,.836.548,2.377,2.377,0,0,0,.744.208.843.843,0,0,0,.7-.265,1.084,1.084,0,0,0,.025-1.089,2.685,2.685,0,0,1-.336-1.084c.018-.452.345-.846.373-1.3a1.45,1.45,0,0,0-.95-1.3,9.16,9.16,0,0,1-1.434-.548,5.444,5.444,0,0,1-1.12-1.338,2.558,2.558,0,0,0-2.194-1.075c-.52.059-.991.33-1.508.436-.786.163-1.616-.074-2.4.108a.823.823,0,0,0-.488.267,1.087,1.087,0,0,0-.008.928,2.147,2.147,0,0,1-.086,1.681c-.343.555-1.071.79-1.387,1.36a1.206,1.206,0,0,0-.032,1.1c.151.315.443.572.488.919a2.211,2.211,0,0,1-.125.736.657.657,0,0,0,.163.686c.2.137.484.1.639.274a.548.548,0,0,1,.073.472c-.055.274-.171.522-.233.791a.969.969,0,0,0,.105.791,1.19,1.19,0,0,0,1.234.241.859.859,0,0,0,.347-.137c.274-.207.226-.614.293-.947.15-.754.943-1.244,1.128-1.989.119-.481-.062-1.157.4-1.475C425.269,130.833,426.086,131.229,426.67,131.445Z" transform="translate(-380.931 -124.641)" fill="#464353"/>
    <path id="Path_1478" d="M463.61,533.93s4.3,2.742,4.441,3.794Z" transform="translate(-418.536 -477.528)" opacity="0.1"/>
    <path id="Path_1479" d="M462,549.93s4.936,2.376,4.661,3.2Z" transform="translate(-417.147 -491.335)" opacity="0.1"/>
    <path id="Path_1480" d="M459.61,565.26s2.789,1.463,2.971,2.331Z" transform="translate(-415.085 -504.563)" opacity="0.1"/>
    <path id="Path_1481" d="M468.28,589.26s1.827,1.6,2.194,1.189S468.28,589.26,468.28,589.26Z" transform="translate(-422.566 -525.272)" opacity="0.1"/>
    <path id="Path_1482" d="M449.61,596.6s1.424,2.284.739,2.421S449.61,596.6,449.61,596.6Z" transform="translate(-406.456 -531.606)" opacity="0.1"/>
    <path id="Path_1483" d="M392.487,300.6s-2.423,1.461-1.692,1.828S392.487,300.6,392.487,300.6Z" transform="translate(-355.586 -276.188)" opacity="0.1"/>
    <path id="Path_1484" d="M393.757,261.26s-2.468,4.524-1.326,4.2S393.757,261.26,393.757,261.26Z" transform="translate(-356.856 -242.242)" opacity="0.1"/>
    <path id="Path_1485" d="M587.3,294.26S585.8,296.034,586.07,297Z" transform="translate(-524.178 -270.717)" opacity="0.1"/>
    <path id="Path_1486" d="M611.633,300.6s-2.263,2.01-1.932,2.239Z" transform="translate(-544.569 -276.188)" opacity="0.1"/>
    <path id="Path_1487" d="M633.835,318.61s-.229,1.322.137,1.371Z" transform="translate(-565.362 -291.729)" opacity="0.1"/>
    <path id="Path_1488" d="M437.444,506.036c-.583.754-.583,2.091-.846,2.639-.144.3-.465.823-.725,1.245-.085-.274-.249-.437-.506-.293-.169-1.257-.466-3.428-.562-3.865-.137-.617,1.371-2.262,1.371-2.262s1.474.308,1.851,1.062S438.026,505.284,437.444,506.036Z" transform="translate(-393.673 -451.27)" opacity="0.05"/>
    <path id="Path_1489" d="M348.277,378.3c-1.645.227-4.707,4.615-4.707,4.615s-.4-.584-.96-1.4c-.7-1.035-1.645-2.446-2.331-3.515l4.017-4.143.731.787s1.418,1.416,1.418,1.691a2.573,2.573,0,0,0,.622.787C347.6,377.677,348.277,378.3,348.277,378.3Z" transform="translate(-312.115 -339.404)" opacity="0.1"/>
    <path id="Path_1490" d="M359.477,269.326c-.057-.116-.1-.2-.137-.256l1.771.118.939,5.83C361.35,273.419,359.979,270.326,359.477,269.326Z" transform="translate(-328.562 -248.981)" opacity="0.1"/>
    <path id="Path_1491" d="M344.75,379.249c-1.47,1.463-3.536,3.514-4.182,4.113a2.46,2.46,0,0,1-.186.166.576.576,0,0,1-.192.084c-.646-.949-1.567-2.316-2.28-3.428l.329-.34L341.976,376l.462.5s1.418,1.416,1.418,1.691A4.284,4.284,0,0,0,344.75,379.249Z" transform="translate(-310.07 -341.251)" opacity="0.1"/>
    <path id="Path_1492" d="M317.605,269.067l-2.056-.137s-.548,1.279-1,1.371-1.052,1.142-1.052,1.142-1.76.321-1.684.869-2.706,4.471-2.706,4.471a4.453,4.453,0,0,0-.274,3.252,26.93,26.93,0,0,1,1.234,2.787c.137.5,1.76,2.7,1.747,3.108s4.149,6.444,4.149,6.444,3.061-4.387,4.707-4.616a12.842,12.842,0,0,1-1.828-1.965c0-.274-1.407-1.69-1.407-1.69l-1.782-1.919s-.6-.274,0-.777-1-1.645-1-1.645-.047-.823.548-1.052,1.371-1.736,1.371-1.736l2.148-1.1Z" transform="translate(-284.779 -248.86)" fill="#464353"/>
    <path id="Path_1493" d="M317,334.443s2.468-.5,2.513-.182S317,334.443,317,334.443Z" transform="translate(-292.027 -305.142)" opacity="0.1"/>
    <path id="Path_1494" d="M332,354.43s2.092.274,2,.721S332,354.43,332,354.43Z" transform="translate(-304.97 -322.638)" opacity="0.1"/>
    <path id="Path_1495" d="M344.61,297.76s2.011,2.848,2.286,2.258Z" transform="translate(-315.851 -273.737)" opacity="0.1"/>
    <g id="Group_734" transform="translate(39.1 1.41)" opacity="0.1">
      <path id="Path_1496" d="M431.384,134.224a3.072,3.072,0,0,0-.123-.983,3.065,3.065,0,0,1-.091-.411,1.688,1.688,0,0,0,.091.686A3.535,3.535,0,0,1,431.384,134.224Z" transform="translate(-429.64 -132.83)"/>
      <path id="Path_1497" d="M502.818,156.086c.054-.411.336-.786.362-1.207a1.062,1.062,0,0,0-.008-.21c-.053.425-.348.8-.365,1.234A1.014,1.014,0,0,0,502.818,156.086Z" transform="translate(-491.459 -151.676)"/>
      <path id="Path_1498" d="M438.514,169.082a.843.843,0,0,1-.7.265,2.38,2.38,0,0,1-.745-.208,1.781,1.781,0,0,1-.836-.548c-.174-.255-.23-.613-.5-.76-.313-.167-.686.059-1.024.137a2.128,2.128,0,0,1-1.213-.16c-.584-.215-1.4-.611-2-.2-.466.318-.285.994-.4,1.475-.185.746-.979,1.234-1.128,1.989-.067.333-.023.74-.293.947a.857.857,0,0,1-.348.137c-.436.1-.973.118-1.234-.241a.735.735,0,0,1-.137-.35.866.866,0,0,0,.137.624,1.189,1.189,0,0,0,1.234.241.858.858,0,0,0,.348-.137c.274-.207.226-.614.293-.947.149-.754.943-1.244,1.128-1.989.119-.481-.061-1.157.4-1.475.6-.411,1.416-.012,2,.2a2.128,2.128,0,0,0,1.213.16c.346-.081.712-.307,1.024-.137.274.147.328.5.5.76a1.731,1.731,0,0,0,.836.548,2.378,2.378,0,0,0,.745.208.843.843,0,0,0,.7-.265.81.81,0,0,0,.148-.629A.684.684,0,0,1,438.514,169.082Z" transform="translate(-426.855 -162.683)"/>
      <path id="Path_1499" d="M420.644,164.516c-.045-.347-.337-.6-.488-.919a1.165,1.165,0,0,1-.107-.377,1.194,1.194,0,0,0,.107.651c.147.306.424.558.481.888A.86.86,0,0,0,420.644,164.516Z" transform="translate(-420.04 -159.053)"/>
      <path id="Path_1500" d="M424.292,181.775a.521.521,0,0,0-.078-.435c-.155-.177-.45-.137-.639-.274a.48.48,0,0,1-.18-.326.617.617,0,0,0,.18.6c.18.13.484.1.639.274A.377.377,0,0,1,424.292,181.775Z" transform="translate(-422.927 -174.171)"/>
    </g>
    <path id="Path_1501" d="M160.789,706.163s-5.671-.343-5,3.632a.962.962,0,0,0,.5,1.021s.01-.295.581-.195a2.6,2.6,0,0,0,.616.029,1.289,1.289,0,0,0,.754-.31h0a4.5,4.5,0,0,0,2.214-3.264s.458-.569.44-.714l-.96.411a1.708,1.708,0,0,1,.07,1.264s-.032-1.234-.215-1.211c-.037.007-.5.24-.5.24a2.822,2.822,0,0,1,.137,2.077s.162-1.482-.314-1.991l-.673.394a2.971,2.971,0,0,1,.211,2.257,4.233,4.233,0,0,0-.352-2.161l-.611.476a2.91,2.91,0,0,1,.241,2.066s-.049-1.811-.373-1.947a3.689,3.689,0,0,0-.616.664s.422.89.16,1.359c0,0-.16-1.207-.293-1.212a4,4,0,0,0-.587,1.346,2.914,2.914,0,0,1,.458-1.423,1.607,1.607,0,0,0-.814.422s.082-.565.946-.614a3.7,3.7,0,0,1,.558-.643,3.505,3.505,0,0,0-1.379.159,1.55,1.55,0,0,1,1.536-.291l.6-.492a5,5,0,0,0-1.61.017,1.953,1.953,0,0,1,1.773-.128l.655-.392a6.024,6.024,0,0,0-1.538-.137,2.362,2.362,0,0,1,1.73.027l.47-.211s-.706-.137-.913-.161-.218-.08-.218-.08a2.455,2.455,0,0,1,1.326.148A6.06,6.06,0,0,0,160.789,706.163Z" transform="translate(-152.869 -626.142)" fill="#4a6ca9"/>
    <ellipse id="Ellipse_12" cx="4.014" cy="0.679" rx="4.014" ry="0.679" transform="translate(0 84.343)" fill="#6c63ff" opacity="0.1"/>
  </g>
</svg>
