<svg xmlns="http://www.w3.org/2000/svg" width="53.907" height="42.446" viewBox="0 0 53.907 42.446">
  <defs>
    <linearGradient id="linear-gradient" x1="0.5" y1="1" x2="0.5">
      <stop offset="0" stop-color="gray" stop-opacity="0.251"/>
      <stop offset="0.54" stop-color="gray" stop-opacity="0.122"/>
      <stop offset="1" stop-color="gray" stop-opacity="0.102"/>
    </linearGradient>
  </defs>
  <g id="undraw_freelancer_b0my_1_" transform="translate(0.214 0)">
    <path id="Path_1502" d="M107.94,406.21a7.047,7.047,0,0,1,1.285,7.329c-1.665,4.379,2.855,11.657,2.855,11.657s-.049-.007-.138-.023a8.59,8.59,0,0,1-5.7-13.148C107.494,410.111,108.519,407.866,107.94,406.21Z" transform="translate(-102.686 -389.404)" fill="#437ade"/>
    <path id="Path_1503" d="M144.4,406.21s1.665,3.616,0,6.566-.286,11.229,4.14,12.419" transform="translate(-139.143 -389.404)" fill="none" stroke="#535461" stroke-width="2"/>
    <path id="Path_1504" d="M70.25,597.444s3.366-.536,3.671,2.481,6.471,3.435,6.471,3.435l-.116.077c-5.087,3.341-9.954,2.127-9.221-2.311C71.328,599.475,71.307,597.817,70.25,597.444Z" transform="translate(-70.25 -568.704)" fill="#6c63ff"/>
    <path id="Path_1505" d="M70.25,597.444s3.366-.536,3.671,2.481,6.471,3.435,6.471,3.435l-.116.077c-5.087,3.341-9.954,2.127-9.221-2.311C71.328,599.475,71.307,597.817,70.25,597.444Z" transform="translate(-70.25 -568.704)" fill="#f5f5f5" opacity="0.45"/>
    <path id="Path_1506" d="M70.25,598s2.613.574,2.4,2.949,3.88,5.227,7.747,2.966" transform="translate(-70.25 -569.26)" fill="none" stroke="#535461" stroke-width="2"/>
    <path id="Path_1508" d="M616.194,688.466s2.557-.2,3.294.677,3.364,2.9,2.279,3.346-6.907-1.344-6.907-1.344Z" transform="translate(-580.973 -654.078)" fill="#ffb9b9"/>
    <path id="Path_1509" d="M280.451,158.63a1.333,1.333,0,0,0-1.088-1.213c-.39-.062-.824.048-1.159-.162a2.122,2.122,0,0,1-.381-.373,2.691,2.691,0,0,0-1.895-.767,6.786,6.786,0,0,0-2.061.342,5.635,5.635,0,0,0-3.473,2.153c-1.085,1.826-.084,4.288-.942,6.231a17.285,17.285,0,0,0-1.317,2.44c-.311,1.2.3,2.418.775,3.564a17,17,0,0,1,.961,3.186,7.145,7.145,0,0,1,.081,2.924,3.136,3.136,0,0,0-.165,1.269c.124.638.742,1.041,1.3,1.369l.146.086a6.975,6.975,0,0,0,2.567,1.073,2.664,2.664,0,0,0,1.68-.3,1.839,1.839,0,0,0,.919-1.4,10.367,10.367,0,0,0-.4-1.918.582.582,0,0,1,.022-.294.719.719,0,0,1,.282-.282,5.22,5.22,0,0,0,2.1-5.107c-.24-1.3-.987-2.6-.625-3.873a17.107,17.107,0,0,1,1-1.948,3.269,3.269,0,0,0,.107-2.266,3.27,3.27,0,0,1-.361-1.556c.181-.938,1.431-1.238,1.9-2.069a1.476,1.476,0,0,0-.448-1.887" transform="translate(-255.744 -154.868)" fill="#b96b6b"/>
    <path id="Path_1510" d="M280.451,158.63a1.333,1.333,0,0,0-1.088-1.213c-.39-.062-.824.048-1.159-.162a2.122,2.122,0,0,1-.381-.373,2.691,2.691,0,0,0-1.895-.767,6.786,6.786,0,0,0-2.061.342,5.635,5.635,0,0,0-3.473,2.153c-1.085,1.826-.084,4.288-.942,6.231a17.285,17.285,0,0,0-1.317,2.44c-.311,1.2.3,2.418.775,3.564a17,17,0,0,1,.961,3.186,7.145,7.145,0,0,1,.081,2.924,3.136,3.136,0,0,0-.165,1.269c.124.638.742,1.041,1.3,1.369l.146.086a6.975,6.975,0,0,0,2.567,1.073,2.664,2.664,0,0,0,1.68-.3,1.839,1.839,0,0,0,.919-1.4,10.367,10.367,0,0,0-.4-1.918.582.582,0,0,1,.022-.294.719.719,0,0,1,.282-.282,5.22,5.22,0,0,0,2.1-5.107c-.24-1.3-.987-2.6-.625-3.873a17.107,17.107,0,0,1,1-1.948,3.269,3.269,0,0,0,.107-2.266,3.27,3.27,0,0,1-.361-1.556c.181-.938,1.431-1.238,1.9-2.069a1.476,1.476,0,0,0-.448-1.887" transform="translate(-255.744 -154.868)" fill="#464353"/>
    <path id="Path_1511" d="M276.878,568.085H263.5V560.93l7.467,2.862,5.911-2.862Z" transform="translate(-249.599 -531.71)" fill="#777b9b"/>
    <path id="Path_1512" d="M276.878,568.085H263.5V560.93l7.467,2.862,5.911-2.862Z" transform="translate(-249.599 -531.71)" opacity="0.1"/>
    <path id="Path_1513" d="M441.956,720.932s-2.427.58-2.676,1.643,1.431.966,1.431.966,2.364-.483,2.676-2.416S441.956,720.932,441.956,720.932Z" transform="translate(-416.295 -683.869)" fill="#ffb9b9"/>
    <path id="Path_1514" d="M441.956,720.932s-2.427.58-2.676,1.643,1.431.966,1.431.966,2.364-.483,2.676-2.416S441.956,720.932,441.956,720.932Z" transform="translate(-416.295 -683.869)" opacity="0.38"/>
    <path id="Path_1515" d="M342.979,740.119s-2.288.149-2.319,2c0,.249,2.383.321,5.217-1.2s3.027-1.684,3.027-1.684-1.1-1.765-1.867-2S342.979,740.119,342.979,740.119Z" transform="translate(-323.834 -699.816)" fill="#cbcdda"/>
    <path id="Path_1516" d="M152.07,647.081s-2.613,2.178,2.24,5.227a15.944,15.944,0,0,0,9.52,2.489s5.062-.6,5.829-2.976-3.776-4.367-3.776-4.367-4.978,0-7.218-1.431S152.07,647.081,152.07,647.081Z" transform="translate(-146.32 -613.879)" fill="#777b9b"/>
    <path id="Path_1517" d="M344.869,599.87a6.154,6.154,0,0,0,5.289,0c2.346-1.006,7.492-.611,9.74-.373a2.6,2.6,0,0,1,2.245,1.856c.235.832.062,1.854-1.345,2.813-3.111,2.115-5.289,2.738-6.1,3.609s-3.111,1.307-3.111,1.307-2.924-.436-2.924-1.058,2.676-3.671,2.676-3.671-3.92,3.609-7.965-1.244S344.869,599.87,344.869,599.87Z" transform="translate(-324.994 -570.402)" fill="#777b9b"/>
    <path id="Path_1518" d="M252.562,277.612l-7.9-5.413s3.791-2.57,4.116-4.868a1.867,1.867,0,0,0-.258-1.292c-1.556-2.489,5.476,0,5.476,0a14.7,14.7,0,0,0,.264,1.929c.306,1.515.95,3.533,2.287,4.542C258.847,274.252,252.562,277.612,252.562,277.612Z" transform="translate(-233.808 -256.917)" fill="#ffccb1"/>
    <path id="Path_1519" d="M309.014,267.965a4.608,4.608,0,0,1-5.482-.634,1.867,1.867,0,0,0-.258-1.292c-1.556-2.489,5.476,0,5.476,0A14.7,14.7,0,0,0,309.014,267.965Z" transform="translate(-288.564 -256.917)" opacity="0.1"/>
    <circle id="Ellipse_14" cx="4.604" cy="4.604" r="4.604" transform="translate(13.528 2.34)" fill="#ffccb1"/>
    <path id="Path_1520" d="M167.589,336.332s-.933,5.476-2.489,5.164-6.409-5.787-6.409-5.787-5.04,1.68-4.231,5.787,1.618,7.591-.062,8.9-2.738,7.4-2.738,7.4,5.351-2.24,8.151-1.369,5.662.436,6.347-.373a22.932,22.932,0,0,0,1.68-2.551s-1.431-2.116-.747-3.173,1.556-1.12,2.053-4.107,4.418-4.044,3.671-5.724S170.638,336.332,167.589,336.332Z" transform="translate(-146.594 -323.291)" opacity="0.1"/>
    <path id="Path_1521" d="M167.589,332.332s-.933,5.476-2.489,5.164-6.409-5.787-6.409-5.787-5.04,1.68-4.231,5.787,1.618,7.591-.062,8.9-2.738,7.4-2.738,7.4,5.351-2.24,8.151-1.369,5.662.436,6.347-.373a22.929,22.929,0,0,0,1.68-2.551s-1.431-2.116-.747-3.173,1.556-1.12,2.053-4.107,4.418-4.044,3.671-5.724S170.638,332.332,167.589,332.332Z" transform="translate(-146.594 -319.539)" fill="#4a6ca9"/>
    <path id="Path_1522" d="M454.531,699.047s2.489-.622,3.36.124,3.8,2.3,2.8,2.924-7.031-.187-7.031-.187Z" transform="translate(-429.803 -663.792)" fill="#ffccb1"/>
    <g id="Group_735" transform="translate(5.066 12.171)" opacity="0.05">
      <path id="Path_1523" d="M263.526,337.5a.664.664,0,0,0,.427-.062c-1.729-.667-6.214-5.724-6.214-5.724s-.177.059-.459.182C258.137,332.844,262.14,337.22,263.526,337.5Z" transform="translate(-250.708 -331.71)"/>
      <path id="Path_1524" d="M337.627,407.457c1.716-.66-3.173,2.738-3.671,5.724s-1.369,3.049-2.053,4.107.747,3.173.747,3.173a22.931,22.931,0,0,1-1.68,2.551,4.372,4.372,0,0,1-2.9.846c1.689.054,3.073-.317,3.521-.846a22.935,22.935,0,0,0,1.68-2.551s-1.431-2.116-.747-3.173,1.555-1.12,2.053-4.107A10.538,10.538,0,0,1,337.627,407.457Z" transform="translate(-317.093 -402.666)"/>
      <path id="Path_1525" d="M151.708,662.8c-.032.166-.048.26-.048.26a22.046,22.046,0,0,1,6.3-1.564A18.512,18.512,0,0,0,151.708,662.8Z" transform="translate(-151.66 -640.971)"/>
    </g>
    <path id="Path_1526" d="M442.333,403.71s.56.062,1.12,2.987a15.863,15.863,0,0,0,2.738,5.724,13.557,13.557,0,0,1,1.991,3.8c.747,2.24,4.076,5.2,5.258,5.32,0,0-2.271,2.271-2.022,2.893s-.249,0-.249,0-3.111-1.182-3.8-3.111-3.671-5.04-3.671-5.04-3.982-7.716-4.169-8.96S442.333,403.71,442.333,403.71Z" transform="translate(-416.548 -387.059)" fill="#4a6ca9"/>
    <path id="Path_1527" d="M209.16,572.21s4.791.56,5.849,2.053,5.958-.867,5.958-.867" transform="translate(-200.517 -545.075)" opacity="0.1"/>
    <path id="Path_1528" d="M206.414,414.981s2.053,7.529,2.8,8.462,6.533,8.587,9.271,8.089c0,0-.809,3.484-1.369,3.609,0,0-5.662-5.6-7.591-5.538,0,0-3.547-2.924-3.92-4.356s-3.36-6.1-3.36-6.1-1.493-3.3-.871-4.729S205.294,413.612,206.414,414.981Z" transform="translate(-193.073 -396.34)" opacity="0.1"/>
    <path id="Path_1529" d="M207.414,412.981s2.053,7.529,2.8,8.462,6.533,8.587,9.271,8.089c0,0-.809,3.484-1.369,3.609,0,0-5.662-5.6-7.591-5.538,0,0-3.547-2.924-3.92-4.356s-3.36-6.1-3.36-6.1-1.493-3.3-.871-4.729S206.294,411.612,207.414,412.981Z" transform="translate(-194.011 -394.464)" fill="#4a6ca9"/>
    <path id="Path_1530" d="M228.451,139.629a1.333,1.333,0,0,0-1.088-1.213c-.389-.062-.824.048-1.159-.162a2.121,2.121,0,0,1-.381-.373,2.692,2.692,0,0,0-1.895-.767,6.786,6.786,0,0,0-2.061.342,5.635,5.635,0,0,0-3.473,2.153c-1.085,1.826-.084,4.288-.942,6.231a17.289,17.289,0,0,0-1.317,2.44c-.311,1.2.3,2.418.775,3.564a17,17,0,0,1,.961,3.186,7.145,7.145,0,0,1,.082,2.924,3.134,3.134,0,0,0-.166,1.269c.124.638.742,1.041,1.3,1.369l.146.086a6.974,6.974,0,0,0,2.567,1.073,2.664,2.664,0,0,0,1.68-.3,1.839,1.839,0,0,0,.919-1.4,10.359,10.359,0,0,0-.4-1.918.583.583,0,0,1,.022-.294.719.719,0,0,1,.282-.282,5.22,5.22,0,0,0,2.1-5.107c-.24-1.3-.987-2.6-.625-3.873a17.092,17.092,0,0,1,1-1.948,3.269,3.269,0,0,0,.107-2.266,3.27,3.27,0,0,1-.361-1.556c.181-.938,1.431-1.238,1.9-2.069a1.476,1.476,0,0,0-.448-1.887" transform="translate(-206.98 -137.051)" opacity="0.1"/>
    <path id="Path_1531" d="M226.451,138.63a1.333,1.333,0,0,0-1.088-1.213c-.389-.062-.824.048-1.159-.162a2.122,2.122,0,0,1-.381-.373,2.691,2.691,0,0,0-1.895-.767,6.786,6.786,0,0,0-2.061.342,5.634,5.634,0,0,0-3.473,2.153c-1.085,1.826-.084,4.288-.942,6.231a17.286,17.286,0,0,0-1.317,2.44c-.311,1.2.3,2.418.775,3.564a17,17,0,0,1,.961,3.186,7.144,7.144,0,0,1,.082,2.924,3.134,3.134,0,0,0-.165,1.269c.124.638.742,1.041,1.3,1.369l.146.086a6.975,6.975,0,0,0,2.567,1.073,2.664,2.664,0,0,0,1.68-.3,1.839,1.839,0,0,0,.919-1.4,10.357,10.357,0,0,0-.4-1.918.583.583,0,0,1,.022-.294.719.719,0,0,1,.282-.282,5.22,5.22,0,0,0,2.1-5.107c-.24-1.3-.987-2.6-.625-3.873a17.1,17.1,0,0,1,1-1.948,3.269,3.269,0,0,0,.107-2.266,3.27,3.27,0,0,1-.361-1.556c.181-.938,1.431-1.238,1.9-2.069a1.476,1.476,0,0,0-.448-1.887" transform="translate(-205.104 -136.113)" fill="#464353"/>
    <path id="Path_1532" d="M446.471,794.632a.726.726,0,0,0,.238-.36.319.319,0,0,0-.167-.366.467.467,0,0,0-.441.155.586.586,0,0,1-.429.207.652.652,0,0,0,.2-.61.255.255,0,0,0-.056-.124c-.085-.091-.239-.052-.341.02a1.27,1.27,0,0,0-.416,1.063,2.04,2.04,0,0,1-.006-.436.449.449,0,0,0-.164-.387.5.5,0,0,0-.249-.059.518.518,0,0,0-.407.116.4.4,0,0,0,.016.5,1.619,1.619,0,0,0,.421.337.935.935,0,0,1,.3.287.292.292,0,0,1,.022.051h.91A2.537,2.537,0,0,0,446.471,794.632Z" transform="translate(-420.89 -752.577)" fill="#aaa6fb"/>
    <rect id="Rectangle_620" width="19.787" height="1.369" transform="translate(33.906 8.469)" fill="#6c63ff" opacity="0.1"/>
    <rect id="Rectangle_621" width="19.787" height="1.369" transform="translate(33.906 14.38)" fill="#6c63ff" opacity="0.1"/>
    <rect id="Rectangle_622" width="19.787" height="1.369" transform="translate(33.906 20.54)" fill="#6c63ff" opacity="0.1"/>
    <rect id="Rectangle_623" width="1.244" height="3.547" transform="translate(35.648 4.922)" fill="#6c63ff" opacity="0.1"/>
    <rect id="Rectangle_624" width="1.244" height="0.249" transform="translate(35.648 5.482)" fill="#6c63ff" opacity="0.1"/>
    <rect id="Rectangle_625" width="1.244" height="0.249" transform="translate(35.648 7.411)" fill="#6c63ff" opacity="0.1"/>
    <rect id="Rectangle_626" width="1.244" height="3.547" transform="translate(37.515 4.922)" fill="#6c63ff" opacity="0.1"/>
    <rect id="Rectangle_627" width="1.244" height="0.249" transform="translate(37.515 5.482)" fill="#6c63ff" opacity="0.1"/>
    <rect id="Rectangle_628" width="1.244" height="0.249" transform="translate(37.515 7.411)" fill="#6c63ff" opacity="0.1"/>
    <rect id="Rectangle_629" width="1.244" height="3.547" transform="translate(39.381 4.922)" fill="#6c63ff" opacity="0.1"/>
    <rect id="Rectangle_630" width="1.244" height="0.249" transform="translate(39.381 5.482)" fill="#6c63ff" opacity="0.1"/>
    <rect id="Rectangle_631" width="1.244" height="0.249" transform="translate(39.381 7.411)" fill="#6c63ff" opacity="0.1"/>
    <rect id="Rectangle_632" width="1.244" height="3.547" transform="translate(41.248 4.922)" fill="#6c63ff" opacity="0.1"/>
    <rect id="Rectangle_633" width="1.244" height="0.249" transform="translate(41.248 5.482)" fill="#6c63ff" opacity="0.1"/>
    <rect id="Rectangle_634" width="1.244" height="0.249" transform="translate(41.248 7.411)" fill="#6c63ff" opacity="0.1"/>
    <rect id="Rectangle_635" width="1.244" height="3.547" transform="translate(43.115 4.922)" fill="#6c63ff" opacity="0.1"/>
    <rect id="Rectangle_636" width="1.244" height="0.249" transform="translate(43.115 5.482)" fill="#6c63ff" opacity="0.1"/>
    <rect id="Rectangle_637" width="1.244" height="0.249" transform="translate(43.115 7.411)" fill="#6c63ff" opacity="0.1"/>
    <rect id="Rectangle_638" width="1.244" height="3.547" transform="translate(44.981 4.922)" fill="#6c63ff" opacity="0.1"/>
    <rect id="Rectangle_639" width="1.244" height="0.249" transform="translate(44.981 5.482)" fill="#6c63ff" opacity="0.1"/>
    <rect id="Rectangle_640" width="1.244" height="0.249" transform="translate(44.981 7.411)" fill="#6c63ff" opacity="0.1"/>
    <rect id="Rectangle_641" width="1.244" height="3.547" transform="translate(46.848 4.922)" fill="#6c63ff" opacity="0.1"/>
    <rect id="Rectangle_642" width="1.244" height="0.249" transform="translate(46.848 5.482)" fill="#6c63ff" opacity="0.1"/>
    <rect id="Rectangle_643" width="1.244" height="0.249" transform="translate(46.848 7.411)" fill="#6c63ff" opacity="0.1"/>
    <rect id="Rectangle_644" width="1.244" height="3.547" transform="matrix(0.894, -0.448, 0.448, 0.894, 46.244, 17.458)" fill="#6c63ff" opacity="0.1"/>
    <rect id="Rectangle_645" width="1.244" height="0.249" transform="matrix(0.894, -0.448, 0.448, 0.894, 46.495, 17.958)" fill="#6c63ff" opacity="0.1"/>
    <rect id="Rectangle_646" width="1.244" height="0.249" transform="matrix(0.894, -0.448, 0.448, 0.894, 47.359, 19.682)" fill="#6c63ff" opacity="0.1"/>
    <rect id="Rectangle_647" width="1.244" height="3.547" transform="translate(35.648 10.896)" fill="#6c63ff" opacity="0.1"/>
    <rect id="Rectangle_648" width="1.244" height="0.249" transform="translate(35.648 11.456)" fill="#6c63ff" opacity="0.1"/>
    <rect id="Rectangle_649" width="1.244" height="0.249" transform="translate(35.648 13.384)" fill="#6c63ff" opacity="0.1"/>
    <rect id="Rectangle_650" width="1.244" height="3.547" transform="translate(37.515 10.896)" fill="#6c63ff" opacity="0.1"/>
    <rect id="Rectangle_651" width="1.244" height="0.249" transform="translate(37.515 11.456)" fill="#6c63ff" opacity="0.1"/>
    <rect id="Rectangle_652" width="1.244" height="0.249" transform="translate(37.515 13.384)" fill="#6c63ff" opacity="0.1"/>
    <rect id="Rectangle_653" width="1.244" height="3.547" transform="translate(39.381 10.896)" fill="#6c63ff" opacity="0.1"/>
    <rect id="Rectangle_654" width="1.244" height="0.249" transform="translate(39.381 11.456)" fill="#6c63ff" opacity="0.1"/>
    <rect id="Rectangle_655" width="1.244" height="0.249" transform="translate(39.381 13.384)" fill="#6c63ff" opacity="0.1"/>
    <rect id="Rectangle_656" width="1.244" height="3.547" transform="translate(47.159 10.896)" fill="#6c63ff" opacity="0.1"/>
    <rect id="Rectangle_657" width="1.244" height="0.249" transform="translate(47.159 11.456)" fill="#6c63ff" opacity="0.1"/>
    <rect id="Rectangle_658" width="1.244" height="0.249" transform="translate(47.159 13.384)" fill="#6c63ff" opacity="0.1"/>
    <rect id="Rectangle_659" width="1.244" height="3.547" transform="translate(49.026 10.896)" fill="#6c63ff" opacity="0.1"/>
    <rect id="Rectangle_660" width="1.244" height="0.249" transform="translate(49.026 11.456)" fill="#6c63ff" opacity="0.1"/>
    <rect id="Rectangle_661" width="1.244" height="0.249" transform="translate(49.026 13.384)" fill="#6c63ff" opacity="0.1"/>
    <rect id="Rectangle_662" width="1.244" height="3.547" transform="translate(50.892 10.896)" fill="#6c63ff" opacity="0.1"/>
    <rect id="Rectangle_663" width="1.244" height="0.249" transform="translate(50.892 11.456)" fill="#6c63ff" opacity="0.1"/>
    <rect id="Rectangle_664" width="1.244" height="0.249" transform="translate(50.892 13.384)" fill="#6c63ff" opacity="0.1"/>
    <rect id="Rectangle_665" width="1.244" height="3.547" transform="translate(35.648 16.993)" fill="#6c63ff" opacity="0.1"/>
    <rect id="Rectangle_666" width="1.244" height="0.249" transform="translate(35.648 17.553)" fill="#6c63ff" opacity="0.1"/>
    <rect id="Rectangle_667" width="1.244" height="0.249" transform="translate(35.648 19.482)" fill="#6c63ff" opacity="0.1"/>
    <rect id="Rectangle_668" width="1.244" height="3.547" transform="translate(37.515 16.993)" fill="#6c63ff" opacity="0.1"/>
    <rect id="Rectangle_669" width="1.244" height="0.249" transform="translate(37.515 17.553)" fill="#6c63ff" opacity="0.1"/>
    <rect id="Rectangle_670" width="1.244" height="0.249" transform="translate(37.515 19.482)" fill="#6c63ff" opacity="0.1"/>
    <rect id="Rectangle_671" width="1.244" height="3.547" transform="translate(39.381 16.993)" fill="#6c63ff" opacity="0.1"/>
    <rect id="Rectangle_672" width="1.244" height="0.249" transform="translate(39.381 17.553)" fill="#6c63ff" opacity="0.1"/>
    <rect id="Rectangle_673" width="1.244" height="0.249" transform="translate(39.381 19.482)" fill="#6c63ff" opacity="0.1"/>
    <rect id="Rectangle_674" width="1.244" height="3.547" transform="translate(41.248 16.993)" fill="#6c63ff" opacity="0.1"/>
    <rect id="Rectangle_675" width="1.244" height="0.249" transform="translate(41.248 17.553)" fill="#6c63ff" opacity="0.1"/>
    <rect id="Rectangle_676" width="1.244" height="0.249" transform="translate(41.248 19.482)" fill="#6c63ff" opacity="0.1"/>
    <rect id="Rectangle_677" width="1.244" height="3.547" transform="translate(43.115 16.993)" fill="#6c63ff" opacity="0.1"/>
    <rect id="Rectangle_678" width="1.244" height="0.249" transform="translate(43.115 17.553)" fill="#6c63ff" opacity="0.1"/>
    <rect id="Rectangle_679" width="1.244" height="0.249" transform="translate(43.115 19.482)" fill="#6c63ff" opacity="0.1"/>
    <rect id="Rectangle_680" width="1.244" height="3.547" transform="translate(44.981 16.993)" fill="#6c63ff" opacity="0.1"/>
    <rect id="Rectangle_681" width="1.244" height="0.249" transform="translate(44.981 17.553)" fill="#6c63ff" opacity="0.1"/>
    <rect id="Rectangle_682" width="1.244" height="0.249" transform="translate(44.981 19.482)" fill="#6c63ff" opacity="0.1"/>
    <path id="Path_1533" d="M854.4,216.717v3.231H853.16V216.48Q853.785,216.59,854.4,216.717Z" transform="translate(-804.445 -211.479)" fill="#6c63ff" opacity="0.1"/>
    <rect id="Rectangle_683" width="1.244" height="0.249" transform="translate(48.715 5.482)" fill="#6c63ff" opacity="0.1"/>
    <rect id="Rectangle_684" width="1.244" height="0.249" transform="translate(48.715 7.411)" fill="#6c63ff" opacity="0.1"/>
    <path id="Path_1534" d="M884.4,222.729v2.8H883.16v-3.1c.162.035.323.073.484.111Q884.026,222.63,884.4,222.729Z" transform="translate(-832.579 -217.059)" fill="#6c63ff" opacity="0.1"/>
    <path id="Path_1535" d="M884.4,224.417v.062H883.16v-.249h.484Q884.026,224.318,884.4,224.417Z" transform="translate(-832.579 -218.747)" fill="#6c63ff" opacity="0.1"/>
    <rect id="Rectangle_685" width="1.244" height="0.249" transform="translate(50.581 7.411)" fill="#6c63ff" opacity="0.1"/>
    <circle id="Ellipse_15" cx="2.323" cy="2.323" r="2.323" transform="translate(4.311 2.059)" fill="#6c63ff" opacity="0.1"/>
    <circle id="Ellipse_16" cx="1.971" cy="1.971" r="1.971" transform="translate(4.662 2.411)" fill="#6c63ff" opacity="0.1"/>
    <circle id="Ellipse_17" cx="0.141" cy="0.141" r="0.141" transform="translate(6.493 4.242)" fill="#6c63ff" opacity="0.1"/>
    <line id="Line_34" x1="0.775" y2="1.356" transform="translate(6.703 2.904)" fill="none" stroke="#6c63ff" stroke-width="1" opacity="0.1"/>
    <line id="Line_35" x1="0.753" y1="0.396" transform="translate(6.76 4.444)" fill="none" stroke="#6c63ff" stroke-width="1" opacity="0.1"/>
    <rect id="Rectangle_686" width="7.307" height="1.032" rx="0.516" transform="translate(26.642 38.837)" fill="#11507a"/>
    <g id="Group_736" transform="translate(31.089 27.326)" opacity="0.7">
      <rect id="Rectangle_687" width="18.16" height="12.556" rx="6.278" fill="url(#linear-gradient)"/>
    </g>
    <rect id="Rectangle_688" width="17.203" height="12.324" rx="6.162" transform="translate(31.413 27.558)" fill="#3e3f49"/>
    <path id="Path_1610" d="M5.8,0h5.6a5.8,5.8,0,0,1,5.8,5.8v.719a5.8,5.8,0,0,1-5.8,5.8H5.8A5.8,5.8,0,0,1,0,6.522V5.8A5.8,5.8,0,0,1,5.8,0Z" transform="translate(31.651 27.558)" fill="#11507a"/>
    <circle id="Ellipse_18" cx="0.556" cy="0.556" r="0.556" transform="translate(40.501 33.079)" fill="#87f3fc"/>
    <path id="Path_1536" d="M227.865,763.423a1.233,1.233,0,0,0-1.463.536,1.588,1.588,0,0,0,.021,1.529,2.245,2.245,0,0,0,2.178,1.232,1.562,1.562,0,0,0,1.472-1.578,1.621,1.621,0,0,0-2.154-1.736Z" transform="translate(-216.511 -724.285)" fill="#aaa6fb"/>
    <path id="Path_1537" d="M226.65,765.155a1.588,1.588,0,0,1-.021-1.529,1.232,1.232,0,0,1,1.463-.536l.05-.018a1.608,1.608,0,0,1,1.161.026,1.608,1.608,0,0,0-1.369-.131l-.05.018a1.233,1.233,0,0,0-1.464.536,1.588,1.588,0,0,0,.021,1.529,2.362,2.362,0,0,0,1.12,1.058A2.449,2.449,0,0,1,226.65,765.155Z" transform="translate(-216.53 -723.874)" fill="#fff" opacity="0.1"/>
    <path id="Path_1538" d="M244.52,771.85s.367.288,1.256,0" transform="translate(-233.676 -732.293)" opacity="0.2"/>
    <path id="Path_1539" d="M243.26,738.21a9.758,9.758,0,0,1,.576,2.145l.5-.052s-.838-1.493-.628-2.093Z" transform="translate(-232.495 -700.746)" fill="#6c63ff"/>
    <path id="Path_1540" d="M243.26,738.21a9.758,9.758,0,0,1,.576,2.145l.5-.052s-.838-1.493-.628-2.093Z" transform="translate(-232.495 -700.746)" opacity="0.2"/>
    <path id="Path_1541" d="M255.191,736.687s-.988-.505-1.431-.088a2.768,2.768,0,0,0-.51,1.485A1.726,1.726,0,0,0,255.191,736.687Z" transform="translate(-241.863 -699.081)" fill="#6c63ff"/>
    <path id="Path_1542" d="M255.191,736.687s-.988-.505-1.431-.088a2.768,2.768,0,0,0-.51,1.485A1.726,1.726,0,0,0,255.191,736.687Z" transform="translate(-241.863 -699.081)" fill="#fff" opacity="0.1"/>
    <path id="Path_1543" d="M253.26,741.9a2,2,0,0,1,1.941-1.4" transform="translate(-241.873 -702.894)" fill="none" stroke="#6c63ff" stroke-width="1"/>
    <g id="Group_737" transform="translate(42.508 12.471)" opacity="0.1">
      <path id="Path_1544" d="M754.043,346.854a.472.472,0,0,0-.56.2.607.607,0,0,0,.008.584.854.854,0,0,0,.831.47.593.593,0,0,0,.56-.6.622.622,0,0,0-.823-.663Z" transform="translate(-753.412 -346.172)" fill="#6c63ff"/>
      <path id="Path_1545" d="M753.61,347.512a.607.607,0,0,1-.008-.584.473.473,0,0,1,.56-.2l.019-.007a.614.614,0,0,1,.444.01.614.614,0,0,0-.523-.05l-.019.007a.472.472,0,0,0-.56.2.607.607,0,0,0,.008.584.906.906,0,0,0,.427.4A.932.932,0,0,1,753.61,347.512Z" transform="translate(-753.449 -346.012)" fill="#6c63ff" opacity="0.1"/>
      <path id="Path_1546" d="M760.42,350.06s.14.11.48,0" transform="translate(-759.984 -349.219)" fill="#6c63ff" opacity="0.2"/>
      <path id="Path_1547" d="M759.93,337.21a3.731,3.731,0,0,1,.22.819l.19-.02s-.32-.569-.24-.8Z" transform="translate(-759.524 -337.168)" fill="#6c63ff"/>
      <path id="Path_1548" d="M759.93,337.21a3.731,3.731,0,0,1,.22.819l.19-.02s-.32-.569-.24-.8Z" transform="translate(-759.524 -337.168)" fill="#6c63ff" opacity="0.2"/>
      <path id="Path_1549" d="M764.5,336.634s-.378-.193-.546-.034a1.062,1.062,0,0,0-.195.567A.66.66,0,0,0,764.5,336.634Z" transform="translate(-763.116 -336.537)" fill="#6c63ff"/>
      <path id="Path_1550" d="M764.5,336.634s-.378-.193-.546-.034a1.062,1.062,0,0,0-.195.567A.66.66,0,0,0,764.5,336.634Z" transform="translate(-763.116 -336.537)" fill="#6c63ff" opacity="0.1"/>
      <path id="Path_1551" d="M763.75,338.614a.765.765,0,0,1,.741-.534" transform="translate(-763.107 -337.984)" fill="#6c63ff"/>
    </g>
    <g id="Group_738" transform="translate(50.472 18.631)" opacity="0.1">
      <path id="Path_1552" d="M882.042,445.854a.472.472,0,0,0-.56.2.607.607,0,0,0,.008.584.854.854,0,0,0,.831.47.593.593,0,0,0,.56-.6.622.622,0,0,0-.823-.663Z" transform="translate(-881.412 -445.172)" fill="#6c63ff"/>
      <path id="Path_1553" d="M881.611,446.512a.607.607,0,0,1-.008-.584.473.473,0,0,1,.56-.2l.019-.007a.614.614,0,0,1,.444.01.614.614,0,0,0-.523-.05l-.019.007a.472.472,0,0,0-.56.2.607.607,0,0,0,.008.584.906.906,0,0,0,.427.4A.933.933,0,0,1,881.611,446.512Z" transform="translate(-881.449 -445.012)" fill="#6c63ff" opacity="0.1"/>
      <path id="Path_1554" d="M888.42,449.06s.14.11.48,0" transform="translate(-887.984 -448.219)" fill="#6c63ff" opacity="0.2"/>
      <path id="Path_1555" d="M887.93,436.21a3.727,3.727,0,0,1,.22.819l.19-.02s-.32-.569-.24-.8Z" transform="translate(-887.524 -436.168)" fill="#6c63ff"/>
      <path id="Path_1556" d="M887.93,436.21a3.727,3.727,0,0,1,.22.819l.19-.02s-.32-.569-.24-.8Z" transform="translate(-887.524 -436.168)" fill="#6c63ff" opacity="0.2"/>
      <path id="Path_1557" d="M892.5,435.634s-.378-.193-.546-.034a1.062,1.062,0,0,0-.195.567A.66.66,0,0,0,892.5,435.634Z" transform="translate(-891.116 -435.537)" fill="#6c63ff"/>
      <path id="Path_1558" d="M892.5,435.634s-.378-.193-.546-.034a1.062,1.062,0,0,0-.195.567A.66.66,0,0,0,892.5,435.634Z" transform="translate(-891.116 -435.537)" fill="#6c63ff" opacity="0.1"/>
      <path id="Path_1559" d="M891.75,437.614a.765.765,0,0,1,.741-.534" transform="translate(-891.107 -436.984)" fill="#6c63ff"/>
    </g>
  </g>
</svg>
